<?xml version="1.0" encoding="utf-8"?>
<!-- Generator: Adobe Illustrator 27.3.1, SVG Export Plug-In . SVG Version: 6.00 Build 0)  -->
<svg version="1.1" xmlns="http://www.w3.org/2000/svg" xmlns:xlink="http://www.w3.org/1999/xlink" x="0px" y="0px"
	 viewBox="0 0 500 292.1" style="enable-background:new 0 0 500 292.1;" xml:space="preserve">
<style type="text/css">
	.st0{fill-rule:evenodd;clip-rule:evenodd;fill:#4364F7;}
	.st1{fill-rule:evenodd;clip-rule:evenodd;fill:url(#SVGID_1_);}
	.st2{fill-rule:evenodd;clip-rule:evenodd;fill:url(#SVGID_00000178194822450359086160000012893313142884748991_);}
	.st3{fill-rule:evenodd;clip-rule:evenodd;fill:url(#SVGID_00000044877385549469622370000017128764061606915736_);}
	.st4{fill-rule:evenodd;clip-rule:evenodd;fill:url(#SVGID_00000096031014540416170830000004671395351675590016_);}
	.st5{fill-rule:evenodd;clip-rule:evenodd;fill:url(#SVGID_00000022520933398692521340000013612787698702014620_);}
	.st6{fill-rule:evenodd;clip-rule:evenodd;fill:url(#SVGID_00000174591377156329729200000008882914045313391784_);}
	.st7{fill-rule:evenodd;clip-rule:evenodd;fill:url(#SVGID_00000082362493577225124490000008016637005155405737_);}
	.st8{fill-rule:evenodd;clip-rule:evenodd;fill:url(#SVGID_00000137108827841545697620000006546708240525775293_);}
	.st9{fill-rule:evenodd;clip-rule:evenodd;fill:url(#SVGID_00000027584390728434625800000015204488815998006196_);}
	.st10{fill-rule:evenodd;clip-rule:evenodd;fill:url(#SVGID_00000116233227840164978580000001481524539614584760_);}
	.st11{fill-rule:evenodd;clip-rule:evenodd;fill:url(#SVGID_00000062191074867484485090000005957929917487429770_);}
	.st12{fill-rule:evenodd;clip-rule:evenodd;fill:url(#SVGID_00000103948901539901138530000003020886402342964880_);}
	.st13{fill-rule:evenodd;clip-rule:evenodd;fill:url(#SVGID_00000098197555686510761830000010593600784258215808_);}
	.st14{fill-rule:evenodd;clip-rule:evenodd;fill:url(#SVGID_00000023246877900397159790000018060526219839271815_);}
	.st15{fill:#4364F7;}
	.st16{fill:#636466;}
	.st17{fill-rule:evenodd;clip-rule:evenodd;fill:#6FB1FC;}
	.st18{fill-rule:evenodd;clip-rule:evenodd;fill:url(#SVGID_00000025417609641207106320000001622102291213346944_);}
	.st19{fill-rule:evenodd;clip-rule:evenodd;fill:url(#SVGID_00000121260720557783596150000012928118911989531816_);}
	.st20{fill-rule:evenodd;clip-rule:evenodd;fill:url(#SVGID_00000066476740098874002700000016713586376002499769_);}
	.st21{fill-rule:evenodd;clip-rule:evenodd;fill:url(#SVGID_00000000195361212535317340000002909375169426991782_);}
	.st22{fill-rule:evenodd;clip-rule:evenodd;fill:url(#SVGID_00000069357299429157057800000010909072760780530317_);}
	.st23{fill-rule:evenodd;clip-rule:evenodd;fill:url(#SVGID_00000011743199321416088460000005468383024333358271_);}
	.st24{fill-rule:evenodd;clip-rule:evenodd;fill:url(#SVGID_00000123426918990216375350000003756965640578536374_);}
	.st25{fill-rule:evenodd;clip-rule:evenodd;fill:url(#SVGID_00000057148403297497784370000011260670145518442662_);}
	.st26{fill-rule:evenodd;clip-rule:evenodd;fill:url(#SVGID_00000034066692890494179950000001548749315813009576_);}
	.st27{fill-rule:evenodd;clip-rule:evenodd;fill:url(#SVGID_00000060728043783171047900000017498961211688473243_);}
	.st28{fill-rule:evenodd;clip-rule:evenodd;fill:url(#SVGID_00000011711200547346164070000006429643984308034443_);}
	.st29{fill-rule:evenodd;clip-rule:evenodd;fill:url(#SVGID_00000059269742684758583640000006004738890010612359_);}
	.st30{fill-rule:evenodd;clip-rule:evenodd;fill:url(#SVGID_00000111171476978283941790000008580469638678204570_);}
	.st31{fill-rule:evenodd;clip-rule:evenodd;fill:url(#SVGID_00000072254962537398503230000002555003447747096709_);}
	.st32{fill-rule:evenodd;clip-rule:evenodd;fill:url(#SVGID_00000183208828413168372340000014735571046993027758_);}
	.st33{fill-rule:evenodd;clip-rule:evenodd;fill:url(#SVGID_00000182491832851068735100000008804304818178160793_);}
	.st34{fill-rule:evenodd;clip-rule:evenodd;fill:url(#SVGID_00000118392634593110432490000012709854043024627642_);}
	.st35{fill-rule:evenodd;clip-rule:evenodd;fill:url(#SVGID_00000057126132216948751270000014391541535610499469_);}
	.st36{fill-rule:evenodd;clip-rule:evenodd;fill:url(#SVGID_00000015314564002594250310000003657709373213750400_);}
	.st37{fill-rule:evenodd;clip-rule:evenodd;fill:url(#SVGID_00000110457254616274744490000011653805212657936523_);}
	.st38{fill-rule:evenodd;clip-rule:evenodd;fill:url(#SVGID_00000059996450372281196820000002295209389533947264_);}
	.st39{fill-rule:evenodd;clip-rule:evenodd;fill:url(#SVGID_00000160191216844114073300000017017954353131505552_);}
	.st40{fill-rule:evenodd;clip-rule:evenodd;fill:url(#SVGID_00000040565016028266334790000006185661999199099799_);}
	.st41{fill-rule:evenodd;clip-rule:evenodd;fill:url(#SVGID_00000013165014059868848130000001161741695333053099_);}
	.st42{fill-rule:evenodd;clip-rule:evenodd;fill:url(#SVGID_00000141431396193051031460000005845478045939957399_);}
	.st43{fill-rule:evenodd;clip-rule:evenodd;fill:url(#SVGID_00000183965356327482666620000000602479837349800857_);}
	.st44{fill-rule:evenodd;clip-rule:evenodd;fill:url(#SVGID_00000094599664185704387690000005072097693178215593_);}
	.st45{fill-rule:evenodd;clip-rule:evenodd;fill:url(#SVGID_00000072251077026837870700000009376311390968190876_);}
</style>
<g id="BACKGROUND">
</g>
<g id="OBJECTS">
	<rect x="587.9" y="-742.2" class="st0" width="120.7" height="120.7"/>
	<g>
		<linearGradient id="SVGID_1_" gradientUnits="userSpaceOnUse" x1="31.8077" y1="157.6208" x2="64.267" y2="157.6208">
			<stop  offset="0.3003" style="stop-color:#4364F7"/>
			<stop  offset="0.7723" style="stop-color:#6FB1FC"/>
		</linearGradient>
		<polygon class="st1" points="51,176.5 51,130.8 41.8,123.6 41.8,191.6 		"/>
		
			<linearGradient id="SVGID_00000047042172547827254130000016908750045235722133_" gradientUnits="userSpaceOnUse" x1="42.5883" y1="155.3072" x2="87.9308" y2="154.8052">
			<stop  offset="0.1397" style="stop-color:#4364F7"/>
			<stop  offset="1" style="stop-color:#6FB1FC"/>
		</linearGradient>
		
			<polygon style="fill-rule:evenodd;clip-rule:evenodd;fill:url(#SVGID_00000047042172547827254130000016908750045235722133_);" points="
			51,130.8 51,176.5 60.9,179.6 60.9,134.5 60.9,134.5 		"/>
		
			<linearGradient id="SVGID_00000110436964461978906360000016466802685998316222_" gradientUnits="userSpaceOnUse" x1="64.1288" y1="118.3366" x2="85.378" y2="150.9632">
			<stop  offset="0.1397" style="stop-color:#4364F7"/>
			<stop  offset="1" style="stop-color:#6FB1FC"/>
		</linearGradient>
		
			<polygon style="fill-rule:evenodd;clip-rule:evenodd;fill:url(#SVGID_00000110436964461978906360000016466802685998316222_);" points="
			60.9,134.5 81.8,122.4 81.8,112.9 51,130.8 		"/>
		
			<linearGradient id="SVGID_00000090294256165870600570000000932508338918334627_" gradientUnits="userSpaceOnUse" x1="58.6271" y1="107.429" x2="77.701" y2="135.0361">
			<stop  offset="0.1397" style="stop-color:#4364F7"/>
			<stop  offset="1" style="stop-color:#6FB1FC"/>
		</linearGradient>
		
			<polygon style="fill-rule:evenodd;clip-rule:evenodd;fill:url(#SVGID_00000090294256165870600570000000932508338918334627_);" points="
			51,130.8 81.8,112.9 81.8,100.5 41.8,123.6 41.8,123.6 		"/>
		
			<linearGradient id="SVGID_00000046335377660953014360000011341850129074304187_" gradientUnits="userSpaceOnUse" x1="102.0758" y1="138.1761" x2="101.1835" y2="76.3809">
			<stop  offset="0.1397" style="stop-color:#4364F7"/>
			<stop  offset="1" style="stop-color:#6FB1FC"/>
		</linearGradient>
		
			<polygon style="fill-rule:evenodd;clip-rule:evenodd;fill:url(#SVGID_00000046335377660953014360000011341850129074304187_);" points="
			81.8,112.9 112.6,130.6 121.8,123.6 81.8,100.5 		"/>
		
			<linearGradient id="SVGID_00000124121996291332933070000008613829513122684809_" gradientUnits="userSpaceOnUse" x1="100.8934" y1="115.1875" x2="73.2863" y2="164.0438">
			<stop  offset="0.1397" style="stop-color:#4364F7"/>
			<stop  offset="1" style="stop-color:#6FB1FC"/>
		</linearGradient>
		
			<polygon style="fill-rule:evenodd;clip-rule:evenodd;fill:url(#SVGID_00000124121996291332933070000008613829513122684809_);" points="
			112.6,130.6 81.8,112.9 81.8,122.4 102.7,134.5 		"/>
		
			<linearGradient id="SVGID_00000056422223287811850360000005543925370310277560_" gradientUnits="userSpaceOnUse" x1="120.24" y1="135.9274" x2="77.8534" y2="158.0131">
			<stop  offset="0.1397" style="stop-color:#4364F7"/>
			<stop  offset="1" style="stop-color:#6FB1FC"/>
		</linearGradient>
		
			<polygon style="fill-rule:evenodd;clip-rule:evenodd;fill:url(#SVGID_00000056422223287811850360000005543925370310277560_);" points="
			112.6,130.6 102.7,134.5 102.7,155.6 112.6,141.1 		"/>
		
			<linearGradient id="SVGID_00000023962270221119690650000006214089364248280491_" gradientUnits="userSpaceOnUse" x1="139.2337" y1="133.1142" x2="78.3307" y2="135.122">
			<stop  offset="0.1397" style="stop-color:#4364F7"/>
			<stop  offset="1" style="stop-color:#6FB1FC"/>
		</linearGradient>
		
			<polygon style="fill-rule:evenodd;clip-rule:evenodd;fill:url(#SVGID_00000023962270221119690650000006214089364248280491_);" points="
			112.6,130.6 112.6,141.1 121.8,143.8 121.8,123.6 		"/>
		
			<linearGradient id="SVGID_00000008107234695493330410000008292330886705291685_" gradientUnits="userSpaceOnUse" x1="112.2328" y1="160.7594" x2="112.2328" y2="118.1497">
			<stop  offset="0.3298" style="stop-color:#4364F7"/>
			<stop  offset="0.6021" style="stop-color:#4364F7"/>
			<stop  offset="1" style="stop-color:#6FB1FC"/>
		</linearGradient>
		
			<polygon style="fill-rule:evenodd;clip-rule:evenodd;fill:url(#SVGID_00000008107234695493330410000008292330886705291685_);" points="
			112.6,141.1 102.7,155.6 121.8,143.8 		"/>
		
			<linearGradient id="SVGID_00000095312216555009301030000006671377006174481537_" gradientUnits="userSpaceOnUse" x1="63.5935" y1="150.6096" x2="80.9417" y2="150.6096">
			<stop  offset="0.1397" style="stop-color:#4364F7"/>
			<stop  offset="1" style="stop-color:#6FB1FC"/>
		</linearGradient>
		
			<polygon style="fill-rule:evenodd;clip-rule:evenodd;fill:url(#SVGID_00000095312216555009301030000006671377006174481537_);" points="
			76.7,152 80.9,144.7 80.9,144.6 63.6,156.6 63.6,156.6 		"/>
		
			<linearGradient id="SVGID_00000132059762815001980930000010579783052554860210_" gradientUnits="userSpaceOnUse" x1="90.6264" y1="177.1605" x2="101.5019" y2="157.25">
			<stop  offset="0.1397" style="stop-color:#4364F7"/>
			<stop  offset="1" style="stop-color:#6FB1FC"/>
		</linearGradient>
		
			<polygon style="fill-rule:evenodd;clip-rule:evenodd;fill:url(#SVGID_00000132059762815001980930000010579783052554860210_);" points="
			76.7,152 63.6,156.6 121.8,190.2 116.6,175.1 		"/>
		
			<linearGradient id="SVGID_00000029754637651357288040000015032782803012204980_" gradientUnits="userSpaceOnUse" x1="103.1859" y1="151.9935" x2="90.9718" y2="177.091">
			<stop  offset="0.1397" style="stop-color:#4364F7"/>
			<stop  offset="1" style="stop-color:#6FB1FC"/>
		</linearGradient>
		
			<polygon style="fill-rule:evenodd;clip-rule:evenodd;fill:url(#SVGID_00000029754637651357288040000015032782803012204980_);" points="
			76.7,152 116.6,175.1 121.8,168.2 80.9,144.7 		"/>
		
			<linearGradient id="SVGID_00000016765010287936539790000015354644563289946004_" gradientUnits="userSpaceOnUse" x1="129.2901" y1="178.6609" x2="91.1421" y2="181.3379">
			<stop  offset="0.1397" style="stop-color:#4364F7"/>
			<stop  offset="1" style="stop-color:#6FB1FC"/>
		</linearGradient>
		
			<polygon style="fill-rule:evenodd;clip-rule:evenodd;fill:url(#SVGID_00000016765010287936539790000015354644563289946004_);" points="
			121.8,168.2 116.6,175.1 121.8,190.2 		"/>
		
			<linearGradient id="SVGID_00000136394506534677665610000010952705976679986088_" gradientUnits="userSpaceOnUse" x1="50.6067" y1="183.8659" x2="43.1332" y2="167.4689">
			<stop  offset="6.625029e-02" style="stop-color:#4364F7"/>
			<stop  offset="0.9944" style="stop-color:#6FB1FC"/>
		</linearGradient>
		
			<polygon style="fill-rule:evenodd;clip-rule:evenodd;fill:url(#SVGID_00000136394506534677665610000010952705976679986088_);" points="
			60.9,179.5 51,176.5 41.8,191.6 41.8,191.6 60.9,179.5 		"/>
	</g>
	<g>
		<path class="st15" d="M168.3,139.2l6.6,3.4c-2.5,3.9-7.8,6.9-15,6.9c-10,0-16.8-5.2-16.8-14.2c0-9,6.8-14.2,17.1-14.2
			c6.9,0,12.2,3.1,14.6,6.9l-6.7,3.4c-1.7-2.7-4.4-4-8-4c-5.5,0-9.1,2.8-9.1,7.9c0,5.1,3.6,7.9,9.1,7.9
			C163.7,143.2,166.5,142,168.3,139.2z"/>
		<path class="st15" d="M202.9,148.6l-7-8.4H188v8.4h-7.7v-26.6H199c6.8,0,12.1,3,12.1,9.1c0,4.4-2.8,7.3-7,8.5l7.8,9H202.9z
			 M198.4,134.6c2.8,0,4.8-0.8,4.8-3.3s-2-3.3-4.8-3.3H188v6.7H198.4z"/>
		<path class="st15" d="M245.9,142.7v5.9h-28.4v-26.6h27.9v5.9h-20.3v4.4h16.7v5.7h-16.7v4.7H245.9z"/>
		<path class="st15" d="M274,143.6h-14.6l-2.5,5.1h-8.1l13.7-26.6h8.5l13.7,26.6h-8.2L274,143.6z M271.3,138.1l-4.6-9.4l-4.6,9.4
			H271.3z"/>
		<path class="st15" d="M312.3,128.3h-11v20.4h-7.7v-20.4h-11v-6.2h29.8V128.3z"/>
		<path class="st15" d="M317.5,148.6v-26.6h7.7v26.6H317.5z"/>
		<path class="st15" d="M338.2,122.1l8.8,19.1l8.7-19.1h8.3l-13,26.6h-8.1l-13-26.6H338.2z"/>
		<path class="st15" d="M396.7,142.7v5.9h-28.4v-26.6h27.9v5.9H376v4.4h16.7v5.7H376v4.7H396.7z"/>
		<path class="st15" d="M414.3,148.6v-26.6h7.7v26.6H414.3z"/>
		<path class="st15" d="M457.1,128.3h-11v20.4h-7.7v-20.4h-11v-6.2h29.8V128.3z"/>
	</g>
	<g>
		<path class="st16" d="M155.3,178.7l-3-8.7l-3,8.7h-2.5l-4.5-13.4h3.1l2.8,9l3-9h2.5l3,9l2.8-9h3.1l-4.5,13.4H155.3z"/>
		<path class="st16" d="M164.5,165.3h10v2.6h-7.1v2.7h6.3v2.6h-6.3v2.8h7.2v2.6h-10.1V165.3z"/>
		<path class="st16" d="M187.2,177.7c-0.9,0.6-2.1,0.9-3.6,0.9h-6.3v-13.3h6.2c1.4,0,2.4,0.3,3.2,0.9c0.8,0.6,1.2,1.5,1.2,2.5v0
			c0,1.3-0.6,2.2-1.7,2.9c0.8,0.3,1.4,0.7,1.9,1.2c0.4,0.5,0.6,1.2,0.6,2v0C188.6,176.2,188.1,177.1,187.2,177.7z M184.4,168.3
			c-0.3-0.2-0.8-0.4-1.4-0.4h-2.9v2.8h2.7c0.7,0,1.2-0.1,1.6-0.3c0.4-0.2,0.6-0.6,0.6-1.1v0C184.9,168.8,184.8,168.5,184.4,168.3z
			 M185.1,173.5c-0.4-0.3-0.9-0.4-1.6-0.4h-3.4v2.9h3.5c0.7,0,1.2-0.1,1.5-0.4c0.4-0.2,0.5-0.6,0.5-1.1v0
			C185.7,174.1,185.5,173.8,185.1,173.5z"/>
		<path class="st16" d="M204.1,177.4c-1.2,1-2.5,1.5-3.9,1.5c-0.8,0-1.6-0.2-2.3-0.5s-1.2-0.8-1.6-1.3c-0.4-0.6-0.6-1.3-0.6-2
			c0-1.7,0.9-2.9,2.6-3.7c-0.3-0.5-0.6-0.9-0.7-1.3c-0.1-0.4-0.2-0.9-0.2-1.3c0-0.6,0.2-1.2,0.5-1.7c0.3-0.5,0.8-1,1.4-1.3
			s1.3-0.5,2.1-0.5c0.7,0,1.4,0.1,2,0.4c0.6,0.3,1,0.7,1.3,1.2s0.5,1.1,0.5,1.7c0,0.9-0.2,1.6-0.7,2.1s-1.2,1-2.1,1.4l1.8,1.8
			c0.4-0.7,0.8-1.4,1.3-2.3l2.1,1.2c-0.7,1.2-1.2,2.1-1.7,2.8l2,2l-2.1,1.5L204.1,177.4z M199,173.9c-0.2,0.3-0.3,0.6-0.3,1
			c0,0.5,0.2,0.8,0.5,1.1c0.3,0.3,0.8,0.4,1.3,0.4c0.6,0,1.3-0.3,1.9-0.8l-2.5-2.6C199.5,173.3,199.2,173.6,199,173.9z M202.3,167.7
			c-0.2-0.2-0.5-0.3-0.9-0.3c-0.4,0-0.7,0.1-0.9,0.4c-0.2,0.3-0.4,0.6-0.4,1c0,0.3,0.1,0.6,0.2,0.8c0.1,0.3,0.3,0.5,0.6,0.9
			c0.6-0.2,1.1-0.5,1.3-0.8s0.4-0.6,0.4-1C202.6,168.3,202.5,167.9,202.3,167.7z"/>
		<path class="st16" d="M223.9,177.7c-0.9,0.7-2.1,1.1-3.5,1.1c-1,0-2-0.2-3-0.5c-1-0.4-1.9-0.9-2.6-1.6l1.7-2.1
			c0.6,0.5,1.3,0.9,1.9,1.2c0.6,0.3,1.3,0.4,2.1,0.4c0.6,0,1.1-0.1,1.4-0.3s0.5-0.5,0.5-0.9v0c0-0.3-0.1-0.5-0.2-0.7
			c-0.1-0.2-0.4-0.3-0.8-0.5s-0.9-0.3-1.7-0.5c-1-0.3-1.8-0.5-2.4-0.8c-0.6-0.3-1.1-0.7-1.4-1.2c-0.3-0.5-0.5-1.2-0.5-2v0
			c0-0.8,0.2-1.5,0.6-2.1c0.4-0.6,0.9-1.1,1.7-1.4c0.7-0.3,1.5-0.5,2.4-0.5c1.9,0,3.5,0.6,4.9,1.7l-1.5,2.2
			c-1.3-0.9-2.4-1.3-3.5-1.3c-0.5,0-1,0.1-1.3,0.3c-0.3,0.2-0.4,0.5-0.4,0.8v0c0,0.3,0.1,0.5,0.2,0.7c0.2,0.2,0.4,0.4,0.8,0.5
			s1,0.3,1.8,0.5c1.4,0.4,2.5,0.9,3.2,1.5s1,1.4,1,2.5v0C225.2,176,224.8,177,223.9,177.7z"/>
		<path class="st16" d="M240.4,175.4c-0.6,1.1-1.5,1.9-2.5,2.5c-1.1,0.6-2.3,0.9-3.6,0.9c-1.3,0-2.5-0.3-3.6-0.9
			c-1.1-0.6-1.9-1.4-2.5-2.5c-0.6-1-0.9-2.2-0.9-3.4v0c0-1.3,0.3-2.4,0.9-3.5c0.6-1.1,1.5-1.9,2.5-2.5s2.3-0.9,3.6-0.9
			c1.3,0,2.5,0.3,3.6,0.9s1.9,1.4,2.5,2.5s0.9,2.2,0.9,3.4v0C241.3,173.2,241,174.4,240.4,175.4z M237.7,169.9
			c-0.3-0.6-0.8-1.1-1.4-1.5c-0.6-0.4-1.3-0.6-2.1-0.6c-0.8,0-1.5,0.2-2.1,0.6s-1.1,0.9-1.4,1.5c-0.3,0.6-0.5,1.3-0.5,2.1v0
			c0,0.8,0.2,1.5,0.5,2.1s0.8,1.1,1.4,1.5c0.6,0.4,1.3,0.6,2.1,0.6c0.8,0,1.5-0.2,2.1-0.6c0.6-0.4,1.1-0.9,1.4-1.5
			c0.3-0.6,0.5-1.3,0.5-2.1v0C238.2,171.2,238.1,170.5,237.7,169.9z"/>
		<path class="st16" d="M246.8,170.8h6.3v2.7h-6.3v5.1h-2.9v-13.3H254v2.7h-7.2V170.8z"/>
		<path class="st16" d="M262.4,178.6h-2.9V168h-4v-2.7h11v2.7h-4V178.6z"/>
		<path class="st16" d="M280.8,178.7l-3-8.7l-3,8.7h-2.5l-4.5-13.4h3.1l2.8,9l3-9h2.5l3,9l2.8-9h3.1l-4.5,13.4H280.8z"/>
		<path class="st16" d="M297,175.7h-5.6l-1.2,3h-3l5.7-13.4h2.7l5.7,13.4h-3.1L297,175.7z M292.4,173.1h3.5l-1.8-4.3L292.4,173.1z"
			/>
		<path class="st16" d="M308.5,174.4h-2.3v4.3h-2.9v-13.3h6.1c1.6,0,2.8,0.4,3.7,1.2c0.9,0.8,1.3,1.9,1.3,3.2v0c0,1-0.3,1.9-0.8,2.6
			c-0.5,0.7-1.2,1.2-2.1,1.5l3.2,4.8h-3.4L308.5,174.4z M310.8,168.5c-0.4-0.3-1-0.5-1.7-0.5h-2.9v3.8h3c0.7,0,1.2-0.2,1.6-0.5
			c0.4-0.3,0.6-0.8,0.6-1.4v0C311.4,169.3,311.2,168.8,310.8,168.5z"/>
		<path class="st16" d="M317,165.3h10v2.6h-7.1v2.7h6.3v2.6h-6.3v2.8h7.2v2.6H317V165.3z"/>
		<path class="st16" d="M343.7,177.7c-0.9,0.7-2.1,1.1-3.5,1.1c-1,0-2-0.2-3-0.5c-1-0.4-1.9-0.9-2.6-1.6l1.7-2.1
			c0.6,0.5,1.3,0.9,1.9,1.2c0.6,0.3,1.3,0.4,2.1,0.4c0.6,0,1.1-0.1,1.4-0.3s0.5-0.5,0.5-0.9v0c0-0.3-0.1-0.5-0.2-0.7
			c-0.1-0.2-0.4-0.3-0.8-0.5c-0.4-0.2-0.9-0.3-1.7-0.5c-1-0.3-1.8-0.5-2.4-0.8c-0.6-0.3-1.1-0.7-1.4-1.2c-0.3-0.5-0.5-1.2-0.5-2v0
			c0-0.8,0.2-1.5,0.6-2.1c0.4-0.6,1-1.1,1.7-1.4c0.7-0.3,1.5-0.5,2.4-0.5c1.9,0,3.5,0.6,4.9,1.7l-1.5,2.2c-1.3-0.9-2.4-1.3-3.5-1.3
			c-0.5,0-1,0.1-1.3,0.3c-0.3,0.2-0.4,0.5-0.4,0.8v0c0,0.3,0.1,0.5,0.2,0.7c0.2,0.2,0.4,0.4,0.8,0.5s1,0.3,1.8,0.5
			c1.4,0.4,2.5,0.9,3.2,1.5c0.7,0.6,1,1.4,1,2.5v0C345.1,176,344.6,177,343.7,177.7z"/>
		<path class="st16" d="M360.3,175.4c-0.6,1.1-1.5,1.9-2.5,2.5s-2.3,0.9-3.6,0.9c-1.3,0-2.5-0.3-3.6-0.9c-1.1-0.6-1.9-1.4-2.5-2.5
			c-0.6-1-0.9-2.2-0.9-3.4v0c0-1.3,0.3-2.4,0.9-3.5c0.6-1.1,1.5-1.9,2.5-2.5s2.3-0.9,3.6-0.9c1.3,0,2.5,0.3,3.6,0.9
			c1.1,0.6,1.9,1.4,2.5,2.5c0.6,1,0.9,2.2,0.9,3.4v0C361.2,173.2,360.9,174.4,360.3,175.4z M357.6,169.9c-0.3-0.6-0.8-1.1-1.4-1.5
			c-0.6-0.4-1.3-0.6-2.1-0.6c-0.8,0-1.5,0.2-2.1,0.6s-1.1,0.9-1.4,1.5c-0.3,0.6-0.5,1.3-0.5,2.1v0c0,0.8,0.2,1.5,0.5,2.1
			c0.3,0.6,0.8,1.1,1.4,1.5c0.6,0.4,1.3,0.6,2.1,0.6c0.8,0,1.5-0.2,2.1-0.6c0.6-0.4,1.1-0.9,1.4-1.5c0.3-0.6,0.5-1.3,0.5-2.1v0
			C358.1,171.2,357.9,170.5,357.6,169.9z"/>
		<path class="st16" d="M363.8,165.3h2.9V176h6.6v2.7h-9.6V165.3z"/>
		<path class="st16" d="M385,177.3c-1,1-2.5,1.5-4.3,1.5c-1.8,0-3.2-0.5-4.2-1.5c-1-1-1.5-2.5-1.5-4.4v-7.6h2.9v7.5
			c0,1.1,0.2,1.9,0.8,2.4c0.5,0.6,1.2,0.8,2.1,0.8s1.6-0.3,2.1-0.8c0.5-0.5,0.8-1.3,0.8-2.4v-7.6h2.9v7.5
			C386.5,174.8,386,176.3,385,177.3z"/>
		<path class="st16" d="M395.5,178.6h-2.9V168h-4v-2.7h11v2.7h-4V178.6z"/>
		<path class="st16" d="M402,165.3h2.9v13.3H402V165.3z"/>
		<path class="st16" d="M420.8,175.4c-0.6,1.1-1.5,1.9-2.5,2.5c-1.1,0.6-2.3,0.9-3.6,0.9c-1.3,0-2.5-0.3-3.6-0.9
			c-1.1-0.6-1.9-1.4-2.5-2.5c-0.6-1-0.9-2.2-0.9-3.4v0c0-1.3,0.3-2.4,0.9-3.5c0.6-1.1,1.5-1.9,2.5-2.5s2.3-0.9,3.6-0.9
			c1.3,0,2.5,0.3,3.6,0.9s1.9,1.4,2.5,2.5s0.9,2.2,0.9,3.4v0C421.8,173.2,421.5,174.4,420.8,175.4z M418.2,169.9
			c-0.3-0.6-0.8-1.1-1.4-1.5c-0.6-0.4-1.3-0.6-2.1-0.6c-0.8,0-1.5,0.2-2.1,0.6s-1.1,0.9-1.4,1.5c-0.3,0.6-0.5,1.3-0.5,2.1v0
			c0,0.8,0.2,1.5,0.5,2.1s0.8,1.1,1.4,1.5c0.6,0.4,1.3,0.6,2.1,0.6c0.8,0,1.5-0.2,2.1-0.6c0.6-0.4,1.1-0.9,1.4-1.5
			c0.3-0.6,0.5-1.3,0.5-2.1v0C418.7,171.2,418.5,170.5,418.2,169.9z"/>
		<path class="st16" d="M427.3,170.2v8.5h-2.9v-13.3h2.7l6.2,8.2v-8.2h2.9v13.3h-2.5L427.3,170.2z"/>
	</g>
	<rect x="587.9" y="-609.8" class="st17" width="120.7" height="120.7"/>
	<g>
		<g>
			
				<linearGradient id="SVGID_00000097500852745443740140000000211901876084190605_" gradientUnits="userSpaceOnUse" x1="877.1085" y1="244.5381" x2="973.484" y2="244.5381">
				<stop  offset="0.3003" style="stop-color:#4364F7"/>
				<stop  offset="0.7723" style="stop-color:#6FB1FC"/>
			</linearGradient>
			
				<polygon style="fill-rule:evenodd;clip-rule:evenodd;fill:url(#SVGID_00000097500852745443740140000000211901876084190605_);" points="
				934,300.6 934,164.8 906.9,143.6 906.9,345.5 			"/>
			
				<linearGradient id="SVGID_00000047757531624402430100000017979678507626965677_" gradientUnits="userSpaceOnUse" x1="909.1174" y1="237.6688" x2="1043.7449" y2="236.1785">
				<stop  offset="0.1397" style="stop-color:#4364F7"/>
				<stop  offset="1" style="stop-color:#6FB1FC"/>
			</linearGradient>
			
				<polygon style="fill-rule:evenodd;clip-rule:evenodd;fill:url(#SVGID_00000047757531624402430100000017979678507626965677_);" points="
				934,164.8 934,300.6 963.6,309.7 963.6,175.8 963.6,175.8 			"/>
			
				<linearGradient id="SVGID_00000133521961265404945200000008951179528024218009_" gradientUnits="userSpaceOnUse" x1="973.0737" y1="127.8987" x2="1036.165" y2="224.7711">
				<stop  offset="0.1397" style="stop-color:#4364F7"/>
				<stop  offset="1" style="stop-color:#6FB1FC"/>
			</linearGradient>
			
				<polygon style="fill-rule:evenodd;clip-rule:evenodd;fill:url(#SVGID_00000133521961265404945200000008951179528024218009_);" points="
				963.6,175.8 1025.6,140 1025.6,111.7 934,164.8 			"/>
			
				<linearGradient id="SVGID_00000143610634454019965670000013714660051346467757_" gradientUnits="userSpaceOnUse" x1="956.7384" y1="95.5128" x2="1013.3712" y2="177.4815">
				<stop  offset="0.1397" style="stop-color:#4364F7"/>
				<stop  offset="1" style="stop-color:#6FB1FC"/>
			</linearGradient>
			
				<polygon style="fill-rule:evenodd;clip-rule:evenodd;fill:url(#SVGID_00000143610634454019965670000013714660051346467757_);" points="
				934,164.8 1025.6,111.7 1025.6,74.9 906.9,143.4 906.9,143.6 			"/>
			
				<linearGradient id="SVGID_00000111186049923767356910000002106522940995140511_" gradientUnits="userSpaceOnUse" x1="1085.7429" y1="186.8045" x2="1083.0935" y2="3.3272">
				<stop  offset="0.1397" style="stop-color:#4364F7"/>
				<stop  offset="1" style="stop-color:#6FB1FC"/>
			</linearGradient>
			
				<polygon style="fill-rule:evenodd;clip-rule:evenodd;fill:url(#SVGID_00000111186049923767356910000002106522940995140511_);" points="
				1025.6,111.7 1117,164.2 1144.2,143.4 1025.6,74.9 			"/>
			
				<linearGradient id="SVGID_00000016790145894147111960000017098176871218503826_" gradientUnits="userSpaceOnUse" x1="1082.2323" y1="118.5487" x2="1000.2633" y2="263.609">
				<stop  offset="0.1397" style="stop-color:#4364F7"/>
				<stop  offset="1" style="stop-color:#6FB1FC"/>
			</linearGradient>
			
				<polygon style="fill-rule:evenodd;clip-rule:evenodd;fill:url(#SVGID_00000016790145894147111960000017098176871218503826_);" points="
				1117,164.2 1025.6,111.7 1025.6,140 1087.6,175.9 			"/>
			
				<linearGradient id="SVGID_00000108267923922542833440000014308224158665364145_" gradientUnits="userSpaceOnUse" x1="1139.6748" y1="180.1281" x2="1013.8238" y2="245.7031">
				<stop  offset="0.1397" style="stop-color:#4364F7"/>
				<stop  offset="1" style="stop-color:#6FB1FC"/>
			</linearGradient>
			
				<polygon style="fill-rule:evenodd;clip-rule:evenodd;fill:url(#SVGID_00000108267923922542833440000014308224158665364145_);" points="
				1117,164.2 1087.6,175.9 1087.6,238.7 1117,195.4 			"/>
			
				<linearGradient id="SVGID_00000158003624383637181130000001174800495399164086_" gradientUnits="userSpaceOnUse" x1="1196.0691" y1="171.7753" x2="1015.2408" y2="177.7367">
				<stop  offset="0.1397" style="stop-color:#4364F7"/>
				<stop  offset="1" style="stop-color:#6FB1FC"/>
			</linearGradient>
			
				<polygon style="fill-rule:evenodd;clip-rule:evenodd;fill:url(#SVGID_00000158003624383637181130000001174800495399164086_);" points="
				1117,164.2 1117,195.4 1144.2,203.5 1144.2,143.4 			"/>
			
				<linearGradient id="SVGID_00000173850189839256797850000015000943720882389151_" gradientUnits="userSpaceOnUse" x1="1115.9001" y1="253.8573" x2="1115.9001" y2="127.3437">
				<stop  offset="0.3298" style="stop-color:#4364F7"/>
				<stop  offset="0.6021" style="stop-color:#4364F7"/>
				<stop  offset="1" style="stop-color:#6FB1FC"/>
			</linearGradient>
			
				<polygon style="fill-rule:evenodd;clip-rule:evenodd;fill:url(#SVGID_00000173850189839256797850000015000943720882389151_);" points="
				1117,195.4 1087.6,238.7 1144.2,203.5 			"/>
			
				<linearGradient id="SVGID_00000071530629282667309570000000682418081754596254_" gradientUnits="userSpaceOnUse" x1="971.4843" y1="223.721" x2="1022.9933" y2="223.721">
				<stop  offset="0.1397" style="stop-color:#4364F7"/>
				<stop  offset="1" style="stop-color:#6FB1FC"/>
			</linearGradient>
			
				<polygon style="fill-rule:evenodd;clip-rule:evenodd;fill:url(#SVGID_00000071530629282667309570000000682418081754596254_);" points="
				1010.4,227.8 1023,206 1022.9,206 971.5,241.4 971.6,241.5 			"/>
			
				<linearGradient id="SVGID_00000116224895662451898130000010718141398944422039_" gradientUnits="userSpaceOnUse" x1="1051.7482" y1="302.554" x2="1084.0388" y2="243.4373">
				<stop  offset="0.1397" style="stop-color:#4364F7"/>
				<stop  offset="1" style="stop-color:#6FB1FC"/>
			</linearGradient>
			
				<polygon style="fill-rule:evenodd;clip-rule:evenodd;fill:url(#SVGID_00000116224895662451898130000010718141398944422039_);" points="
				1010.4,227.8 971.6,241.5 1144.2,341.1 1129,296.3 			"/>
			
				<linearGradient id="SVGID_00000090998614125626476770000014944767621112978077_" gradientUnits="userSpaceOnUse" x1="1089.0389" y1="227.8302" x2="1052.7739" y2="302.3476">
				<stop  offset="0.1397" style="stop-color:#4364F7"/>
				<stop  offset="1" style="stop-color:#6FB1FC"/>
			</linearGradient>
			
				<polygon style="fill-rule:evenodd;clip-rule:evenodd;fill:url(#SVGID_00000090998614125626476770000014944767621112978077_);" points="
				1010.4,227.8 1129,296.3 1144.2,276 1023,206 			"/>
			
				<linearGradient id="SVGID_00000005236939143042543210000012002200003201240224_" gradientUnits="userSpaceOnUse" x1="1166.5455" y1="307.0088" x2="1053.2794" y2="314.9573">
				<stop  offset="0.1397" style="stop-color:#4364F7"/>
				<stop  offset="1" style="stop-color:#6FB1FC"/>
			</linearGradient>
			
				<polygon style="fill-rule:evenodd;clip-rule:evenodd;fill:url(#SVGID_00000005236939143042543210000012002200003201240224_);" points="
				1144.2,276 1129,296.3 1144.2,341.1 			"/>
			
				<linearGradient id="SVGID_00000178913231579250541650000016711013766967946650_" gradientUnits="userSpaceOnUse" x1="932.925" y1="322.463" x2="910.7354" y2="273.7784">
				<stop  offset="6.625029e-02" style="stop-color:#4364F7"/>
				<stop  offset="0.9944" style="stop-color:#6FB1FC"/>
			</linearGradient>
			
				<polygon style="fill-rule:evenodd;clip-rule:evenodd;fill:url(#SVGID_00000178913231579250541650000016711013766967946650_);" points="
				963.6,309.6 934,300.5 906.9,345.4 906.9,345.5 963.6,309.6 			"/>
		</g>
	</g>
	<g>
		<g>
			
				<linearGradient id="SVGID_00000095304899679506528590000005294842153181383348_" gradientUnits="userSpaceOnUse" x1="1481.4226" y1="294.917" x2="1577.7982" y2="294.917">
				<stop  offset="0.3003" style="stop-color:#4364F7"/>
				<stop  offset="0.7723" style="stop-color:#6FB1FC"/>
			</linearGradient>
			
				<polygon style="fill-rule:evenodd;clip-rule:evenodd;fill:url(#SVGID_00000095304899679506528590000005294842153181383348_);" points="
				1538.4,351 1538.4,215.2 1511.2,194 1511.2,395.9 			"/>
			
				<linearGradient id="SVGID_00000116928497974982564620000013280644887350107530_" gradientUnits="userSpaceOnUse" x1="1513.4316" y1="288.0477" x2="1648.0591" y2="286.5574">
				<stop  offset="0.1397" style="stop-color:#4364F7"/>
				<stop  offset="1" style="stop-color:#6FB1FC"/>
			</linearGradient>
			
				<polygon style="fill-rule:evenodd;clip-rule:evenodd;fill:url(#SVGID_00000116928497974982564620000013280644887350107530_);" points="
				1538.4,215.2 1538.4,351 1567.9,360.1 1567.9,226.2 1567.9,226.2 			"/>
			
				<linearGradient id="SVGID_00000010992811338034431430000016421257970674217126_" gradientUnits="userSpaceOnUse" x1="1577.3879" y1="178.2776" x2="1640.4792" y2="275.15">
				<stop  offset="0.1397" style="stop-color:#4364F7"/>
				<stop  offset="1" style="stop-color:#6FB1FC"/>
			</linearGradient>
			
				<polygon style="fill-rule:evenodd;clip-rule:evenodd;fill:url(#SVGID_00000010992811338034431430000016421257970674217126_);" points="
				1567.9,226.2 1629.9,190.4 1629.9,162.1 1538.4,215.2 			"/>
			
				<linearGradient id="SVGID_00000090288261185224678500000005670605207169998499_" gradientUnits="userSpaceOnUse" x1="1561.0526" y1="145.8917" x2="1617.6854" y2="227.8604">
				<stop  offset="0.1397" style="stop-color:#4364F7"/>
				<stop  offset="1" style="stop-color:#6FB1FC"/>
			</linearGradient>
			
				<polygon style="fill-rule:evenodd;clip-rule:evenodd;fill:url(#SVGID_00000090288261185224678500000005670605207169998499_);" points="
				1538.4,215.2 1629.9,162.1 1629.9,125.3 1511.2,193.8 1511.2,194 			"/>
			
				<linearGradient id="SVGID_00000098189453432152145600000001778103945194768570_" gradientUnits="userSpaceOnUse" x1="1690.0571" y1="237.1834" x2="1687.4077" y2="53.706">
				<stop  offset="0.1397" style="stop-color:#4364F7"/>
				<stop  offset="1" style="stop-color:#6FB1FC"/>
			</linearGradient>
			
				<polygon style="fill-rule:evenodd;clip-rule:evenodd;fill:url(#SVGID_00000098189453432152145600000001778103945194768570_);" points="
				1629.9,162.1 1721.3,214.6 1748.5,193.8 1629.9,125.3 			"/>
			
				<linearGradient id="SVGID_00000015353507400724214760000017962205468799240593_" gradientUnits="userSpaceOnUse" x1="1686.5465" y1="168.9276" x2="1604.5775" y2="313.9879">
				<stop  offset="0.1397" style="stop-color:#4364F7"/>
				<stop  offset="1" style="stop-color:#6FB1FC"/>
			</linearGradient>
			
				<polygon style="fill-rule:evenodd;clip-rule:evenodd;fill:url(#SVGID_00000015353507400724214760000017962205468799240593_);" points="
				1721.3,214.6 1629.9,162.1 1629.9,190.4 1691.9,226.2 			"/>
			
				<linearGradient id="SVGID_00000126317892964144411610000000889420008523093907_" gradientUnits="userSpaceOnUse" x1="1743.989" y1="230.5069" x2="1618.1379" y2="296.082">
				<stop  offset="0.1397" style="stop-color:#4364F7"/>
				<stop  offset="1" style="stop-color:#6FB1FC"/>
			</linearGradient>
			
				<polygon style="fill-rule:evenodd;clip-rule:evenodd;fill:url(#SVGID_00000126317892964144411610000000889420008523093907_);" points="
				1721.3,214.6 1691.9,226.2 1691.9,289.1 1721.3,245.8 			"/>
			
				<linearGradient id="SVGID_00000067214256490792490730000007863847685863534727_" gradientUnits="userSpaceOnUse" x1="1800.3833" y1="222.1541" x2="1619.5551" y2="228.1156">
				<stop  offset="0.1397" style="stop-color:#4364F7"/>
				<stop  offset="1" style="stop-color:#6FB1FC"/>
			</linearGradient>
			
				<polygon style="fill-rule:evenodd;clip-rule:evenodd;fill:url(#SVGID_00000067214256490792490730000007863847685863534727_);" points="
				1721.3,214.6 1721.3,245.8 1748.5,253.9 1748.5,193.8 			"/>
			
				<linearGradient id="SVGID_00000132783995347539620600000008659474793351734158_" gradientUnits="userSpaceOnUse" x1="1720.2144" y1="304.2362" x2="1720.2144" y2="177.7226">
				<stop  offset="0.3298" style="stop-color:#4364F7"/>
				<stop  offset="0.6021" style="stop-color:#4364F7"/>
				<stop  offset="1" style="stop-color:#6FB1FC"/>
			</linearGradient>
			
				<polygon style="fill-rule:evenodd;clip-rule:evenodd;fill:url(#SVGID_00000132783995347539620600000008659474793351734158_);" points="
				1721.3,245.8 1691.9,289.1 1748.5,253.9 			"/>
			
				<linearGradient id="SVGID_00000139985632341906061760000016548706170969649085_" gradientUnits="userSpaceOnUse" x1="1575.7986" y1="274.0999" x2="1627.3075" y2="274.0999">
				<stop  offset="0.1397" style="stop-color:#4364F7"/>
				<stop  offset="1" style="stop-color:#6FB1FC"/>
			</linearGradient>
			
				<polygon style="fill-rule:evenodd;clip-rule:evenodd;fill:url(#SVGID_00000139985632341906061760000016548706170969649085_);" points="
				1614.7,278.2 1627.3,256.4 1627.2,256.4 1575.8,291.8 1575.9,291.8 			"/>
			
				<linearGradient id="SVGID_00000165204311762424516420000013201536935854217910_" gradientUnits="userSpaceOnUse" x1="1656.0624" y1="352.9329" x2="1688.353" y2="293.8162">
				<stop  offset="0.1397" style="stop-color:#4364F7"/>
				<stop  offset="1" style="stop-color:#6FB1FC"/>
			</linearGradient>
			
				<polygon style="fill-rule:evenodd;clip-rule:evenodd;fill:url(#SVGID_00000165204311762424516420000013201536935854217910_);" points="
				1614.7,278.2 1575.9,291.8 1748.5,391.5 1733.3,346.7 			"/>
			
				<linearGradient id="SVGID_00000023263936601412500490000004983213673886490772_" gradientUnits="userSpaceOnUse" x1="1693.3531" y1="278.2091" x2="1657.0881" y2="352.7265">
				<stop  offset="0.1397" style="stop-color:#4364F7"/>
				<stop  offset="1" style="stop-color:#6FB1FC"/>
			</linearGradient>
			
				<polygon style="fill-rule:evenodd;clip-rule:evenodd;fill:url(#SVGID_00000023263936601412500490000004983213673886490772_);" points="
				1614.7,278.2 1733.3,346.7 1748.5,326.4 1627.3,256.4 			"/>
			
				<linearGradient id="SVGID_00000044896603749925223900000008168273799404519307_" gradientUnits="userSpaceOnUse" x1="1770.8597" y1="357.3876" x2="1657.5936" y2="365.3362">
				<stop  offset="0.1397" style="stop-color:#4364F7"/>
				<stop  offset="1" style="stop-color:#6FB1FC"/>
			</linearGradient>
			
				<polygon style="fill-rule:evenodd;clip-rule:evenodd;fill:url(#SVGID_00000044896603749925223900000008168273799404519307_);" points="
				1748.5,326.4 1733.3,346.7 1748.5,391.5 			"/>
			
				<linearGradient id="SVGID_00000028302021968476137050000011647575908602697107_" gradientUnits="userSpaceOnUse" x1="1537.2391" y1="372.8419" x2="1515.0496" y2="324.1573">
				<stop  offset="6.625029e-02" style="stop-color:#4364F7"/>
				<stop  offset="0.9944" style="stop-color:#6FB1FC"/>
			</linearGradient>
			
				<polygon style="fill-rule:evenodd;clip-rule:evenodd;fill:url(#SVGID_00000028302021968476137050000011647575908602697107_);" points="
				1567.9,360 1538.4,350.9 1511.2,395.8 1511.2,395.9 1567.9,360 			"/>
		</g>
	</g>
	<g>
		<path class="st15" d="M881.8,396.3l7,3.6c-2.6,4.1-8.2,7.3-15.8,7.3c-10.6,0-17.7-5.5-17.7-14.9s7.1-14.9,18-14.9
			c7.2,0,12.8,3.3,15.4,7.3l-7,3.6c-1.8-2.9-4.7-4.2-8.4-4.2c-5.8,0-9.6,2.9-9.6,8.3c0,5.4,3.8,8.3,9.6,8.3
			C876.9,400.6,879.8,399.3,881.8,396.3z"/>
		<path class="st15" d="M918.2,406.3l-7.4-8.8h-8.2v8.8h-8.1v-28H914c7.2,0,12.7,3.2,12.7,9.6c0,4.7-3,7.6-7.4,8.9l8.2,9.5H918.2z
			 M913.4,391.5c2.9,0,5-0.8,5-3.5c0-2.7-2.1-3.5-5-3.5h-11v7H913.4z"/>
		<path class="st15" d="M963.5,400v6.2h-29.9v-28H963v6.2h-21.4v4.6h17.6v6h-17.6v5H963.5z"/>
		<path class="st15" d="M993.1,400.9h-15.4l-2.6,5.4h-8.6l14.5-28h8.9l14.5,28h-8.7L993.1,400.9z M990.3,395.1l-4.8-9.9l-4.9,9.9
			H990.3z"/>
		<path class="st15" d="M1033.5,384.8h-11.6v21.5h-8.2v-21.5h-11.6v-6.5h31.4V384.8z"/>
		<path class="st15" d="M1039,406.3v-28h8.2v28H1039z"/>
		<path class="st15" d="M1060.7,378.3l9.2,20.2l9.2-20.2h8.7l-13.7,28h-8.6l-13.7-28H1060.7z"/>
		<path class="st15" d="M1122.4,400v6.2h-29.9v-28h29.4v6.2h-21.4v4.6h17.6v6h-17.6v5H1122.4z"/>
		<path class="st15" d="M1141,406.3v-28h8.2v28H1141z"/>
		<path class="st15" d="M1186,384.8h-11.6v21.5h-8.2v-21.5h-11.6v-6.5h31.4V384.8z"/>
	</g>
	<g>
		<path class="st16" d="M878.9,436.4l-3.2-9.2l-3.2,9.2h-2.7l-4.8-14.1h3.3l2.9,9.5l3.1-9.5h2.6l3.1,9.5l2.9-9.5h3.2l-4.8,14.1
			H878.9z"/>
		<path class="st16" d="M888.6,422.3h10.6v2.7h-7.5v2.8h6.6v2.7h-6.6v2.9h7.6v2.7h-10.7V422.3z"/>
		<path class="st16" d="M912.5,435.3c-0.9,0.7-2.2,1-3.8,1H902v-14h6.5c1.4,0,2.6,0.3,3.4,1c0.8,0.7,1.2,1.5,1.2,2.6v0
			c0,1.3-0.6,2.3-1.8,3c0.9,0.3,1.5,0.8,2,1.3c0.4,0.5,0.7,1.2,0.7,2.1v0C913.9,433.7,913.4,434.6,912.5,435.3z M909.6,425.4
			c-0.3-0.2-0.8-0.4-1.5-0.4h-3v3h2.8c0.7,0,1.3-0.1,1.6-0.4c0.4-0.2,0.6-0.6,0.6-1.1v0C910.1,426,909.9,425.6,909.6,425.4z
			 M910.3,430.9c-0.4-0.3-0.9-0.4-1.7-0.4H905v3.1h3.7c0.7,0,1.2-0.1,1.6-0.4c0.4-0.3,0.6-0.6,0.6-1.1v0
			C910.9,431.5,910.7,431.2,910.3,430.9z"/>
		<path class="st16" d="M930.3,434.9c-1.3,1-2.6,1.6-4.1,1.6c-0.9,0-1.7-0.2-2.4-0.5c-0.7-0.3-1.3-0.8-1.7-1.4
			c-0.4-0.6-0.6-1.3-0.6-2.1c0-1.7,0.9-3,2.7-3.9c-0.3-0.5-0.6-1-0.8-1.4c-0.2-0.4-0.2-0.9-0.2-1.4c0-0.7,0.2-1.3,0.5-1.8
			c0.3-0.6,0.8-1,1.5-1.4c0.6-0.3,1.4-0.5,2.3-0.5c0.8,0,1.5,0.2,2.1,0.5c0.6,0.3,1.1,0.7,1.4,1.3c0.3,0.5,0.5,1.1,0.5,1.8
			c0,0.9-0.3,1.7-0.8,2.2c-0.5,0.6-1.2,1.1-2.2,1.4l1.9,1.9c0.4-0.7,0.9-1.5,1.4-2.4l2.3,1.2c-0.7,1.3-1.3,2.2-1.8,3l2.1,2.1
			l-2.3,1.6L930.3,434.9z M924.9,431.3c-0.2,0.3-0.3,0.7-0.3,1c0,0.5,0.2,0.9,0.5,1.2c0.4,0.3,0.8,0.5,1.4,0.5c0.7,0,1.3-0.3,2-0.8
			l-2.7-2.7C925.4,430.7,925.1,430.9,924.9,431.3z M928.3,424.8c-0.2-0.2-0.6-0.3-1-0.3c-0.4,0-0.7,0.1-1,0.4
			c-0.2,0.3-0.4,0.6-0.4,1c0,0.3,0.1,0.6,0.2,0.9c0.1,0.3,0.3,0.6,0.6,0.9c0.6-0.2,1.1-0.5,1.4-0.8s0.5-0.7,0.5-1.1
			C928.7,425.3,928.6,425,928.3,424.8z"/>
		<path class="st16" d="M951.1,435.3c-0.9,0.8-2.2,1.2-3.7,1.2c-1.1,0-2.1-0.2-3.2-0.6c-1-0.4-2-0.9-2.8-1.7l1.8-2.2
			c0.7,0.5,1.3,1,2,1.3c0.7,0.3,1.4,0.4,2.2,0.4c0.6,0,1.1-0.1,1.5-0.4c0.4-0.2,0.5-0.6,0.5-1v0c0-0.3-0.1-0.5-0.2-0.7
			c-0.1-0.2-0.4-0.4-0.8-0.5c-0.4-0.2-1-0.4-1.8-0.6c-1.1-0.3-1.9-0.6-2.6-0.9c-0.6-0.3-1.2-0.7-1.5-1.3c-0.4-0.5-0.5-1.3-0.5-2.1v0
			c0-0.8,0.2-1.6,0.6-2.2c0.4-0.6,1-1.1,1.7-1.5c0.7-0.4,1.6-0.5,2.5-0.5c2,0,3.7,0.6,5.2,1.8l-1.6,2.3c-1.3-0.9-2.5-1.4-3.6-1.4
			c-0.6,0-1,0.1-1.3,0.3s-0.5,0.5-0.5,0.9v0c0,0.3,0.1,0.6,0.2,0.8s0.5,0.4,0.9,0.5s1,0.3,1.9,0.6c1.5,0.4,2.6,0.9,3.4,1.5
			c0.7,0.6,1.1,1.5,1.1,2.7v0C952.5,433.5,952,434.6,951.1,435.3z"/>
		<path class="st16" d="M968.5,432.9c-0.6,1.1-1.5,2-2.7,2.6c-1.1,0.6-2.4,1-3.8,1c-1.4,0-2.7-0.3-3.8-1s-2-1.5-2.7-2.6
			c-0.6-1.1-1-2.3-1-3.6v0c0-1.3,0.3-2.5,1-3.6c0.6-1.1,1.5-2,2.7-2.6c1.1-0.6,2.4-1,3.8-1c1.4,0,2.7,0.3,3.8,1
			c1.1,0.6,2,1.5,2.7,2.6c0.6,1.1,1,2.3,1,3.6v0C969.4,430.6,969.1,431.8,968.5,432.9z M965.7,427.1c-0.4-0.7-0.9-1.2-1.5-1.6
			c-0.6-0.4-1.4-0.6-2.2-0.6c-0.8,0-1.5,0.2-2.2,0.6c-0.6,0.4-1.1,0.9-1.5,1.6c-0.4,0.7-0.5,1.4-0.5,2.2v0c0,0.8,0.2,1.5,0.5,2.2
			c0.4,0.7,0.9,1.2,1.5,1.6c0.6,0.4,1.4,0.6,2.2,0.6c0.8,0,1.5-0.2,2.2-0.6c0.6-0.4,1.1-0.9,1.5-1.6c0.4-0.7,0.5-1.4,0.5-2.2v0
			C966.2,428.5,966,427.7,965.7,427.1z"/>
		<path class="st16" d="M975.3,428.1h6.7v2.8h-6.7v5.4h-3.1v-14h10.7v2.8h-7.6V428.1z"/>
		<path class="st16" d="M991.6,436.3h-3.1v-11.2h-4.3v-2.8h11.6v2.8h-4.3V436.3z"/>
		<path class="st16" d="M1011,436.4l-3.2-9.2l-3.2,9.2h-2.7l-4.8-14.1h3.3l2.9,9.5l3.1-9.5h2.6l3.1,9.5l2.9-9.5h3.2l-4.8,14.1H1011z
			"/>
		<path class="st16" d="M1028,433.1h-5.9l-1.3,3.1h-3.1l6-14.1h2.8l6,14.1h-3.2L1028,433.1z M1023.2,430.4h3.7l-1.9-4.5
			L1023.2,430.4z"/>
		<path class="st16" d="M1040.2,431.8h-2.4v4.5h-3.1v-14h6.4c1.7,0,2.9,0.4,3.9,1.2c0.9,0.8,1.4,2,1.4,3.4v0c0,1.1-0.3,2-0.8,2.7
			s-1.3,1.3-2.2,1.6l3.4,5h-3.6L1040.2,431.8z M1042.6,425.6c-0.4-0.3-1-0.5-1.8-0.5h-3.1v4h3.1c0.7,0,1.3-0.2,1.7-0.5
			c0.4-0.4,0.6-0.8,0.6-1.4v0C1043.3,426.4,1043,425.9,1042.6,425.6z"/>
		<path class="st16" d="M1049.2,422.3h10.6v2.7h-7.5v2.8h6.6v2.7h-6.6v2.9h7.6v2.7h-10.7V422.3z"/>
		<path class="st16" d="M1077.3,435.3c-0.9,0.8-2.2,1.2-3.7,1.2c-1.1,0-2.1-0.2-3.2-0.6c-1-0.4-2-0.9-2.8-1.7l1.8-2.2
			c0.7,0.5,1.3,1,2,1.3c0.7,0.3,1.4,0.4,2.2,0.4c0.6,0,1.1-0.1,1.5-0.4c0.4-0.2,0.5-0.6,0.5-1v0c0-0.3-0.1-0.5-0.2-0.7
			c-0.1-0.2-0.4-0.4-0.8-0.5c-0.4-0.2-1-0.4-1.8-0.6c-1.1-0.3-1.9-0.6-2.6-0.9c-0.6-0.3-1.2-0.7-1.5-1.3c-0.4-0.5-0.5-1.3-0.5-2.1v0
			c0-0.8,0.2-1.6,0.6-2.2c0.4-0.6,1-1.1,1.7-1.5c0.7-0.4,1.6-0.5,2.5-0.5c2,0,3.7,0.6,5.2,1.8l-1.6,2.3c-1.3-0.9-2.5-1.4-3.6-1.4
			c-0.6,0-1,0.1-1.3,0.3s-0.5,0.5-0.5,0.9v0c0,0.3,0.1,0.6,0.2,0.8s0.5,0.4,0.9,0.5s1,0.3,1.9,0.6c1.5,0.4,2.6,0.9,3.4,1.5
			c0.7,0.6,1.1,1.5,1.1,2.7v0C1078.7,433.5,1078.2,434.6,1077.3,435.3z"/>
		<path class="st16" d="M1094.6,432.9c-0.6,1.1-1.5,2-2.7,2.6c-1.1,0.6-2.4,1-3.8,1c-1.4,0-2.7-0.3-3.8-1s-2-1.5-2.7-2.6
			c-0.6-1.1-1-2.3-1-3.6v0c0-1.3,0.3-2.5,1-3.6c0.6-1.1,1.5-2,2.7-2.6c1.1-0.6,2.4-1,3.8-1c1.4,0,2.7,0.3,3.8,1
			c1.1,0.6,2,1.5,2.7,2.6c0.6,1.1,1,2.3,1,3.6v0C1095.6,430.6,1095.3,431.8,1094.6,432.9z M1091.8,427.1c-0.4-0.7-0.9-1.2-1.5-1.6
			c-0.6-0.4-1.4-0.6-2.2-0.6c-0.8,0-1.5,0.2-2.2,0.6c-0.6,0.4-1.1,0.9-1.5,1.6c-0.4,0.7-0.5,1.4-0.5,2.2v0c0,0.8,0.2,1.5,0.5,2.2
			c0.4,0.7,0.9,1.2,1.5,1.6c0.6,0.4,1.4,0.6,2.2,0.6c0.8,0,1.5-0.2,2.2-0.6c0.6-0.4,1.1-0.9,1.5-1.6c0.4-0.7,0.5-1.4,0.5-2.2v0
			C1092.4,428.5,1092.2,427.7,1091.8,427.1z"/>
		<path class="st16" d="M1098.3,422.3h3.1v11.2h7v2.8h-10.1V422.3z"/>
		<path class="st16" d="M1120.7,434.9c-1.1,1.1-2.6,1.6-4.5,1.6c-1.9,0-3.4-0.5-4.5-1.6c-1.1-1.1-1.6-2.6-1.6-4.6v-8h3.1v7.9
			c0,1.1,0.3,2,0.8,2.6c0.5,0.6,1.3,0.9,2.2,0.9s1.7-0.3,2.2-0.9c0.5-0.6,0.8-1.4,0.8-2.5v-8h3.1v7.9
			C1122.3,432.3,1121.8,433.8,1120.7,434.9z"/>
		<path class="st16" d="M1131.8,436.3h-3.1v-11.2h-4.3v-2.8h11.6v2.8h-4.3V436.3z"/>
		<path class="st16" d="M1138.5,422.3h3.1v14h-3.1V422.3z"/>
		<path class="st16" d="M1158.4,432.9c-0.6,1.1-1.5,2-2.7,2.6c-1.1,0.6-2.4,1-3.8,1c-1.4,0-2.7-0.3-3.8-1s-2-1.5-2.7-2.6
			c-0.6-1.1-1-2.3-1-3.6v0c0-1.3,0.3-2.5,1-3.6c0.6-1.1,1.5-2,2.7-2.6c1.1-0.6,2.4-1,3.8-1c1.4,0,2.7,0.3,3.8,1
			c1.1,0.6,2,1.5,2.7,2.6c0.6,1.1,1,2.3,1,3.6v0C1159.4,430.6,1159.1,431.8,1158.4,432.9z M1155.6,427.1c-0.4-0.7-0.9-1.2-1.5-1.6
			c-0.6-0.4-1.4-0.6-2.2-0.6c-0.8,0-1.5,0.2-2.2,0.6c-0.6,0.4-1.1,0.9-1.5,1.6c-0.4,0.7-0.5,1.4-0.5,2.2v0c0,0.8,0.2,1.5,0.5,2.2
			c0.4,0.7,0.9,1.2,1.5,1.6c0.6,0.4,1.4,0.6,2.2,0.6c0.8,0,1.5-0.2,2.2-0.6c0.6-0.4,1.1-0.9,1.5-1.6c0.4-0.7,0.5-1.4,0.5-2.2v0
			C1156.2,428.5,1156,427.7,1155.6,427.1z"/>
		<path class="st16" d="M1165.2,427.4v8.9h-3v-14h2.8l6.6,8.6v-8.6h3v14h-2.6L1165.2,427.4z"/>
	</g>
	<g>
	</g>
	<g>
	</g>
	<g>
	</g>
	<g>
	</g>
	<g>
	</g>
	<g>
	</g>
	<g>
	</g>
	<g>
	</g>
	<g>
	</g>
	<g>
	</g>
	<g>
	</g>
	<g>
	</g>
	<g>
	</g>
	<g>
	</g>
	<g>
	</g>
</g>
</svg>
