<?xml version="1.0" encoding="utf-8"?>
<!-- Generator: Adobe Illustrator 27.3.1, SVG Export Plug-In . SVG Version: 6.00 Build 0)  -->
<svg version="1.1" xmlns="http://www.w3.org/2000/svg" xmlns:xlink="http://www.w3.org/1999/xlink" x="0px" y="0px"
	 viewBox="0 0 150 37.5" style="enable-background:new 0 0 150 37.5;" xml:space="preserve">
<style type="text/css">
	.st0{fill-rule:evenodd;clip-rule:evenodd;fill:#4364F7;}
	.st1{fill-rule:evenodd;clip-rule:evenodd;fill:url(#SVGID_1_);}
	.st2{fill-rule:evenodd;clip-rule:evenodd;fill:url(#SVGID_00000078023673757911075200000008415997982855916978_);}
	.st3{fill-rule:evenodd;clip-rule:evenodd;fill:url(#SVGID_00000142144601240242510750000018083028008522129543_);}
	.st4{fill-rule:evenodd;clip-rule:evenodd;fill:url(#SVGID_00000012461355017019042140000006704682993959873665_);}
	.st5{fill-rule:evenodd;clip-rule:evenodd;fill:url(#SVGID_00000176006414756130198190000000356875182997954197_);}
	.st6{fill-rule:evenodd;clip-rule:evenodd;fill:url(#SVGID_00000022519915508605903300000011410105807626174141_);}
	.st7{fill-rule:evenodd;clip-rule:evenodd;fill:url(#SVGID_00000023245128543024222830000014074100925584877446_);}
	.st8{fill-rule:evenodd;clip-rule:evenodd;fill:url(#SVGID_00000160182104824850894800000004458078070827146117_);}
	.st9{fill-rule:evenodd;clip-rule:evenodd;fill:url(#SVGID_00000061442234929832568430000014447456972149142427_);}
	.st10{fill-rule:evenodd;clip-rule:evenodd;fill:url(#SVGID_00000101788743984483452560000001863052339203132558_);}
	.st11{fill-rule:evenodd;clip-rule:evenodd;fill:url(#SVGID_00000139999586211698954420000002280329683923717777_);}
	.st12{fill-rule:evenodd;clip-rule:evenodd;fill:url(#SVGID_00000096770113347918728070000002967820124147840660_);}
	.st13{fill-rule:evenodd;clip-rule:evenodd;fill:url(#SVGID_00000123399452961197749300000017066889933936070587_);}
	.st14{fill-rule:evenodd;clip-rule:evenodd;fill:url(#SVGID_00000044149840727124313490000004613076662467670699_);}
	.st15{fill:#4364F7;}
	.st16{fill:#636466;}
	.st17{fill-rule:evenodd;clip-rule:evenodd;fill:#6FB1FC;}
</style>
<g id="BACKGROUND">
</g>
<g id="OBJECTS">
	<rect x="162.9" y="-880.1" class="st0" width="120.7" height="120.7"/>
	<g>
		<g>
			<linearGradient id="SVGID_1_" gradientUnits="userSpaceOnUse" x1="8.4495" y1="22.3067" x2="18.3933" y2="22.3067">
				<stop  offset="0.3003" style="stop-color:#4364F7"/>
				<stop  offset="0.7723" style="stop-color:#6FB1FC"/>
			</linearGradient>
			<polygon class="st1" points="14.3,28.1 14.3,14.1 11.5,11.9 11.5,32.7 			"/>
			
				<linearGradient id="SVGID_00000183971142666315363110000005935068934794284729_" gradientUnits="userSpaceOnUse" x1="11.7521" y1="21.5979" x2="25.6427" y2="21.4442">
				<stop  offset="0.1397" style="stop-color:#4364F7"/>
				<stop  offset="1" style="stop-color:#6FB1FC"/>
			</linearGradient>
			
				<polygon style="fill-rule:evenodd;clip-rule:evenodd;fill:url(#SVGID_00000183971142666315363110000005935068934794284729_);" points="
				14.3,14.1 14.3,28.1 17.4,29 17.4,15.2 17.4,15.2 			"/>
			
				<linearGradient id="SVGID_00000013168829878593526290000016355775835744655515_" gradientUnits="userSpaceOnUse" x1="18.351" y1="10.2721" x2="24.8606" y2="20.2672">
				<stop  offset="0.1397" style="stop-color:#4364F7"/>
				<stop  offset="1" style="stop-color:#6FB1FC"/>
			</linearGradient>
			
				<polygon style="fill-rule:evenodd;clip-rule:evenodd;fill:url(#SVGID_00000013168829878593526290000016355775835744655515_);" points="
				17.4,15.2 23.8,11.5 23.8,8.6 14.3,14.1 			"/>
			
				<linearGradient id="SVGID_00000120556846461123689790000004849858409653727115_" gradientUnits="userSpaceOnUse" x1="16.6655" y1="6.9305" x2="22.5088" y2="15.3879">
				<stop  offset="0.1397" style="stop-color:#4364F7"/>
				<stop  offset="1" style="stop-color:#6FB1FC"/>
			</linearGradient>
			
				<polygon style="fill-rule:evenodd;clip-rule:evenodd;fill:url(#SVGID_00000120556846461123689790000004849858409653727115_);" points="
				14.3,14.1 23.8,8.6 23.8,4.8 11.5,11.9 11.5,11.9 			"/>
			
				<linearGradient id="SVGID_00000177462063472944670790000005738843601746868881_" gradientUnits="userSpaceOnUse" x1="29.976" y1="16.3498" x2="29.7026" y2="-2.581">
				<stop  offset="0.1397" style="stop-color:#4364F7"/>
				<stop  offset="1" style="stop-color:#6FB1FC"/>
			</linearGradient>
			
				<polygon style="fill-rule:evenodd;clip-rule:evenodd;fill:url(#SVGID_00000177462063472944670790000005738843601746868881_);" points="
				23.8,8.6 33.2,14 36,11.9 23.8,4.8 			"/>
			
				<linearGradient id="SVGID_00000178187278695670840110000008207122094949253510_" gradientUnits="userSpaceOnUse" x1="29.6137" y1="9.3073" x2="21.1563" y2="24.2744">
				<stop  offset="0.1397" style="stop-color:#4364F7"/>
				<stop  offset="1" style="stop-color:#6FB1FC"/>
			</linearGradient>
			
				<polygon style="fill-rule:evenodd;clip-rule:evenodd;fill:url(#SVGID_00000178187278695670840110000008207122094949253510_);" points="
				33.2,14 23.8,8.6 23.8,11.5 30.2,15.2 			"/>
			
				<linearGradient id="SVGID_00000003090968866015129600000014431719139250609048_" gradientUnits="userSpaceOnUse" x1="35.5405" y1="15.661" x2="22.5555" y2="22.4269">
				<stop  offset="0.1397" style="stop-color:#4364F7"/>
				<stop  offset="1" style="stop-color:#6FB1FC"/>
			</linearGradient>
			
				<polygon style="fill-rule:evenodd;clip-rule:evenodd;fill:url(#SVGID_00000003090968866015129600000014431719139250609048_);" points="
				33.2,14 30.2,15.2 30.2,21.7 33.2,17.2 			"/>
			
				<linearGradient id="SVGID_00000093884244595830650880000003760862881048599190_" gradientUnits="userSpaceOnUse" x1="41.3592" y1="14.7992" x2="22.7017" y2="15.4142">
				<stop  offset="0.1397" style="stop-color:#4364F7"/>
				<stop  offset="1" style="stop-color:#6FB1FC"/>
			</linearGradient>
			
				<polygon style="fill-rule:evenodd;clip-rule:evenodd;fill:url(#SVGID_00000093884244595830650880000003760862881048599190_);" points="
				33.2,14 33.2,17.2 36,18.1 36,11.9 			"/>
			
				<linearGradient id="SVGID_00000057135940713300642600000000635315596545403810_" gradientUnits="userSpaceOnUse" x1="33.0875" y1="23.2682" x2="33.0875" y2="10.2148">
				<stop  offset="0.3298" style="stop-color:#4364F7"/>
				<stop  offset="0.6021" style="stop-color:#4364F7"/>
				<stop  offset="1" style="stop-color:#6FB1FC"/>
			</linearGradient>
			
				<polygon style="fill-rule:evenodd;clip-rule:evenodd;fill:url(#SVGID_00000057135940713300642600000000635315596545403810_);" points="
				33.2,17.2 30.2,21.7 36,18.1 			"/>
			
				<linearGradient id="SVGID_00000042007297357407555360000002123125632539299748_" gradientUnits="userSpaceOnUse" x1="18.187" y1="20.1588" x2="23.5016" y2="20.1588">
				<stop  offset="0.1397" style="stop-color:#4364F7"/>
				<stop  offset="1" style="stop-color:#6FB1FC"/>
			</linearGradient>
			
				<polygon style="fill-rule:evenodd;clip-rule:evenodd;fill:url(#SVGID_00000042007297357407555360000002123125632539299748_);" points="
				22.2,20.6 23.5,18.3 23.5,18.3 18.2,22 18.2,22 			"/>
			
				<linearGradient id="SVGID_00000144331411527710124270000010578504991604430248_" gradientUnits="userSpaceOnUse" x1="26.4684" y1="28.2926" x2="29.8001" y2="22.1931">
				<stop  offset="0.1397" style="stop-color:#4364F7"/>
				<stop  offset="1" style="stop-color:#6FB1FC"/>
			</linearGradient>
			
				<polygon style="fill-rule:evenodd;clip-rule:evenodd;fill:url(#SVGID_00000144331411527710124270000010578504991604430248_);" points="
				22.2,20.6 18.2,22 36,32.3 34.4,27.6 			"/>
			
				<linearGradient id="SVGID_00000098933813341728576450000012648833548981447808_" gradientUnits="userSpaceOnUse" x1="30.316" y1="20.5828" x2="26.5743" y2="28.2714">
				<stop  offset="0.1397" style="stop-color:#4364F7"/>
				<stop  offset="1" style="stop-color:#6FB1FC"/>
			</linearGradient>
			
				<polygon style="fill-rule:evenodd;clip-rule:evenodd;fill:url(#SVGID_00000098933813341728576450000012648833548981447808_);" points="
				22.2,20.6 34.4,27.6 36,25.6 23.5,18.3 			"/>
			
				<linearGradient id="SVGID_00000063605218480982184290000016642145969825377194_" gradientUnits="userSpaceOnUse" x1="38.313" y1="28.7523" x2="26.6264" y2="29.5724">
				<stop  offset="0.1397" style="stop-color:#4364F7"/>
				<stop  offset="1" style="stop-color:#6FB1FC"/>
			</linearGradient>
			
				<polygon style="fill-rule:evenodd;clip-rule:evenodd;fill:url(#SVGID_00000063605218480982184290000016642145969825377194_);" points="
				36,25.6 34.4,27.6 36,32.3 			"/>
			
				<linearGradient id="SVGID_00000009553081669291619880000014053918680237793689_" gradientUnits="userSpaceOnUse" x1="14.2085" y1="30.3468" x2="11.919" y2="25.3236">
				<stop  offset="6.625029e-02" style="stop-color:#4364F7"/>
				<stop  offset="0.9944" style="stop-color:#6FB1FC"/>
			</linearGradient>
			
				<polygon style="fill-rule:evenodd;clip-rule:evenodd;fill:url(#SVGID_00000009553081669291619880000014053918680237793689_);" points="
				17.4,29 14.3,28.1 11.5,32.7 11.5,32.7 17.4,29 			"/>
		</g>
		<g>
			<path class="st15" d="M50.3,16.7l2,1c-0.8,1.2-2.4,2.1-4.6,2.1c-3.1,0-5.1-1.6-5.1-4.3c0-2.7,2.1-4.3,5.2-4.3
				c2.1,0,3.7,1,4.5,2.1l-2,1c-0.5-0.8-1.4-1.2-2.5-1.2c-1.7,0-2.8,0.8-2.8,2.4s1.1,2.4,2.8,2.4C48.9,17.9,49.7,17.5,50.3,16.7z"/>
			<path class="st15" d="M60.9,19.6L58.7,17h-2.4v2.6H54v-8.1h5.7c2.1,0,3.7,0.9,3.7,2.8c0,1.4-0.9,2.2-2.1,2.6l2.4,2.8H60.9z
				 M59.5,15.3c0.8,0,1.5-0.2,1.5-1c0-0.8-0.6-1-1.5-1h-3.2v2H59.5z"/>
			<path class="st15" d="M74,17.7v1.8h-8.7v-8.1h8.6v1.8h-6.2v1.3h5.1v1.7h-5.1v1.4H74z"/>
			<path class="st15" d="M82.7,18h-4.5l-0.8,1.6h-2.5l4.2-8.1h2.6l4.2,8.1h-2.5L82.7,18z M81.8,16.3l-1.4-2.9L79,16.3H81.8z"/>
			<path class="st15" d="M94.4,13.3H91v6.2h-2.4v-6.2h-3.4v-1.9h9.1V13.3z"/>
			<path class="st15" d="M96,19.6v-8.1h2.4v8.1H96z"/>
			<path class="st15" d="M102.3,11.4l2.7,5.9l2.7-5.9h2.5l-4,8.1h-2.5l-4-8.1H102.3z"/>
			<path class="st15" d="M120.2,17.7v1.8h-8.7v-8.1h8.6v1.8h-6.2v1.3h5.1v1.7h-5.1v1.4H120.2z"/>
			<path class="st15" d="M125.6,19.6v-8.1h2.4v8.1H125.6z"/>
			<path class="st15" d="M138.7,13.3h-3.4v6.2H133v-6.2h-3.4v-1.9h9.1V13.3z"/>
		</g>
		<g>
			<path class="st16" d="M46.5,28.8l-1-2.8l-1,2.8h-0.8l-1.5-4.3h1l0.9,2.9l1-2.9h0.8l1,2.9l0.9-2.9h1l-1.5,4.3H46.5z"/>
			<path class="st16" d="M49.5,24.5h3.2v0.8h-2.3v0.9h2V27h-2v0.9h2.3v0.8h-3.3V24.5z"/>
			<path class="st16" d="M56.8,28.4c-0.3,0.2-0.7,0.3-1.2,0.3h-2v-4.3h2c0.4,0,0.8,0.1,1,0.3c0.3,0.2,0.4,0.5,0.4,0.8v0
				c0,0.4-0.2,0.7-0.6,0.9c0.3,0.1,0.5,0.2,0.6,0.4c0.1,0.2,0.2,0.4,0.2,0.7v0C57.2,28,57.1,28.2,56.8,28.4z M55.9,25.4
				c-0.1-0.1-0.3-0.1-0.5-0.1h-0.9v0.9h0.9c0.2,0,0.4,0,0.5-0.1c0.1-0.1,0.2-0.2,0.2-0.3v0C56.1,25.6,56,25.5,55.9,25.4z M56.1,27.1
				C56,27,55.8,27,55.6,27h-1.1v0.9h1.1c0.2,0,0.4,0,0.5-0.1c0.1-0.1,0.2-0.2,0.2-0.3v0C56.3,27.3,56.2,27.2,56.1,27.1z"/>
			<path class="st16" d="M62.2,28.3c-0.4,0.3-0.8,0.5-1.3,0.5c-0.3,0-0.5-0.1-0.7-0.2c-0.2-0.1-0.4-0.2-0.5-0.4
				c-0.1-0.2-0.2-0.4-0.2-0.7c0-0.5,0.3-0.9,0.8-1.2c-0.1-0.2-0.2-0.3-0.2-0.4s-0.1-0.3-0.1-0.4c0-0.2,0.1-0.4,0.2-0.6
				c0.1-0.2,0.3-0.3,0.5-0.4c0.2-0.1,0.4-0.2,0.7-0.2c0.2,0,0.4,0,0.6,0.1c0.2,0.1,0.3,0.2,0.4,0.4c0.1,0.2,0.1,0.3,0.1,0.6
				c0,0.3-0.1,0.5-0.2,0.7s-0.4,0.3-0.7,0.4l0.6,0.6c0.1-0.2,0.3-0.5,0.4-0.7l0.7,0.4c-0.2,0.4-0.4,0.7-0.6,0.9l0.6,0.6l-0.7,0.5
				L62.2,28.3z M60.6,27.2c-0.1,0.1-0.1,0.2-0.1,0.3c0,0.2,0.1,0.3,0.2,0.4s0.3,0.1,0.4,0.1c0.2,0,0.4-0.1,0.6-0.2L60.9,27
				C60.8,27,60.7,27.1,60.6,27.2z M61.6,25.2c-0.1-0.1-0.2-0.1-0.3-0.1c-0.1,0-0.2,0-0.3,0.1c-0.1,0.1-0.1,0.2-0.1,0.3
				c0,0.1,0,0.2,0.1,0.3c0,0.1,0.1,0.2,0.2,0.3c0.2-0.1,0.3-0.2,0.4-0.2s0.1-0.2,0.1-0.3C61.8,25.4,61.7,25.3,61.6,25.2z"/>
			<path class="st16" d="M68.6,28.5c-0.3,0.2-0.7,0.4-1.1,0.4c-0.3,0-0.7-0.1-1-0.2s-0.6-0.3-0.9-0.5l0.6-0.7
				c0.2,0.2,0.4,0.3,0.6,0.4c0.2,0.1,0.4,0.1,0.7,0.1c0.2,0,0.3,0,0.5-0.1s0.2-0.2,0.2-0.3v0c0-0.1,0-0.2-0.1-0.2
				c0-0.1-0.1-0.1-0.3-0.2c-0.1-0.1-0.3-0.1-0.5-0.2c-0.3-0.1-0.6-0.2-0.8-0.3c-0.2-0.1-0.4-0.2-0.5-0.4c-0.1-0.2-0.2-0.4-0.2-0.7v0
				c0-0.3,0.1-0.5,0.2-0.7s0.3-0.3,0.5-0.5s0.5-0.2,0.8-0.2c0.6,0,1.1,0.2,1.6,0.5l-0.5,0.7c-0.4-0.3-0.8-0.4-1.1-0.4
				c-0.2,0-0.3,0-0.4,0.1c-0.1,0.1-0.1,0.2-0.1,0.3v0c0,0.1,0,0.2,0.1,0.2c0.1,0.1,0.1,0.1,0.3,0.2c0.1,0,0.3,0.1,0.6,0.2
				c0.5,0.1,0.8,0.3,1,0.5c0.2,0.2,0.3,0.5,0.3,0.8v0C69,27.9,68.9,28.2,68.6,28.5z"/>
			<path class="st16" d="M73.9,27.7c-0.2,0.3-0.5,0.6-0.8,0.8c-0.3,0.2-0.7,0.3-1.2,0.3s-0.8-0.1-1.2-0.3c-0.3-0.2-0.6-0.5-0.8-0.8
				c-0.2-0.3-0.3-0.7-0.3-1.1v0c0-0.4,0.1-0.8,0.3-1.1s0.5-0.6,0.8-0.8c0.3-0.2,0.7-0.3,1.2-0.3c0.4,0,0.8,0.1,1.2,0.3
				c0.3,0.2,0.6,0.5,0.8,0.8s0.3,0.7,0.3,1.1v0C74.2,27,74.1,27.4,73.9,27.7z M73.1,25.9c-0.1-0.2-0.3-0.4-0.5-0.5s-0.4-0.2-0.7-0.2
				s-0.5,0.1-0.7,0.2c-0.2,0.1-0.3,0.3-0.5,0.5c-0.1,0.2-0.2,0.4-0.2,0.7v0c0,0.2,0.1,0.5,0.2,0.7c0.1,0.2,0.3,0.4,0.5,0.5
				c0.2,0.1,0.4,0.2,0.7,0.2s0.5-0.1,0.7-0.2c0.2-0.1,0.3-0.3,0.5-0.5s0.2-0.4,0.2-0.7v0C73.2,26.4,73.2,26.1,73.1,25.9z"/>
			<path class="st16" d="M76,26.2h2v0.9h-2v1.7h-0.9v-4.3h3.3v0.9H76V26.2z"/>
			<path class="st16" d="M81,28.7h-0.9v-3.4h-1.3v-0.9h3.6v0.9H81V28.7z"/>
			<path class="st16" d="M87,28.8L86,26l-1,2.8h-0.8l-1.5-4.3h1l0.9,2.9l1-2.9h0.8l1,2.9l0.9-2.9h1l-1.5,4.3H87z"/>
			<path class="st16" d="M92.2,27.8h-1.8l-0.4,1h-1l1.8-4.3h0.9l1.8,4.3h-1L92.2,27.8z M90.7,27h1.1l-0.6-1.4L90.7,27z"/>
			<path class="st16" d="M95.9,27.4h-0.7v1.4h-0.9v-4.3h2c0.5,0,0.9,0.1,1.2,0.4s0.4,0.6,0.4,1v0c0,0.3-0.1,0.6-0.2,0.8
				c-0.2,0.2-0.4,0.4-0.7,0.5l1,1.5h-1.1L95.9,27.4z M96.7,25.5c-0.1-0.1-0.3-0.2-0.5-0.2h-0.9v1.2h1c0.2,0,0.4-0.1,0.5-0.2
				c0.1-0.1,0.2-0.3,0.2-0.4v0C96.9,25.7,96.8,25.6,96.7,25.5z"/>
			<path class="st16" d="M98.7,24.5h3.2v0.8h-2.3v0.9h2V27h-2v0.9h2.3v0.8h-3.3V24.5z"/>
			<path class="st16" d="M107.3,28.5c-0.3,0.2-0.7,0.4-1.1,0.4c-0.3,0-0.7-0.1-1-0.2s-0.6-0.3-0.9-0.5l0.6-0.7
				c0.2,0.2,0.4,0.3,0.6,0.4c0.2,0.1,0.4,0.1,0.7,0.1c0.2,0,0.3,0,0.5-0.1s0.2-0.2,0.2-0.3v0c0-0.1,0-0.2-0.1-0.2
				c0-0.1-0.1-0.1-0.3-0.2c-0.1-0.1-0.3-0.1-0.5-0.2c-0.3-0.1-0.6-0.2-0.8-0.3c-0.2-0.1-0.4-0.2-0.5-0.4c-0.1-0.2-0.2-0.4-0.2-0.7v0
				c0-0.3,0.1-0.5,0.2-0.7s0.3-0.3,0.5-0.5s0.5-0.2,0.8-0.2c0.6,0,1.1,0.2,1.6,0.5l-0.5,0.7c-0.4-0.3-0.8-0.4-1.1-0.4
				c-0.2,0-0.3,0-0.4,0.1c-0.1,0.1-0.1,0.2-0.1,0.3v0c0,0.1,0,0.2,0.1,0.2c0.1,0.1,0.1,0.1,0.3,0.2c0.1,0,0.3,0.1,0.6,0.2
				c0.5,0.1,0.8,0.3,1,0.5c0.2,0.2,0.3,0.5,0.3,0.8v0C107.7,27.9,107.6,28.2,107.3,28.5z"/>
			<path class="st16" d="M112.6,27.7c-0.2,0.3-0.5,0.6-0.8,0.8c-0.3,0.2-0.7,0.3-1.2,0.3s-0.8-0.1-1.2-0.3c-0.3-0.2-0.6-0.5-0.8-0.8
				c-0.2-0.3-0.3-0.7-0.3-1.1v0c0-0.4,0.1-0.8,0.3-1.1s0.5-0.6,0.8-0.8c0.3-0.2,0.7-0.3,1.2-0.3c0.4,0,0.8,0.1,1.2,0.3
				c0.3,0.2,0.6,0.5,0.8,0.8s0.3,0.7,0.3,1.1v0C112.9,27,112.8,27.4,112.6,27.7z M111.7,25.9c-0.1-0.2-0.3-0.4-0.5-0.5
				s-0.4-0.2-0.7-0.2s-0.5,0.1-0.7,0.2c-0.2,0.1-0.3,0.3-0.5,0.5c-0.1,0.2-0.2,0.4-0.2,0.7v0c0,0.2,0.1,0.5,0.2,0.7
				c0.1,0.2,0.3,0.4,0.5,0.5c0.2,0.1,0.4,0.2,0.7,0.2s0.5-0.1,0.7-0.2c0.2-0.1,0.3-0.3,0.5-0.5s0.2-0.4,0.2-0.7v0
				C111.9,26.4,111.8,26.1,111.7,25.9z"/>
			<path class="st16" d="M113.7,24.5h0.9v3.4h2.1v0.9h-3.1V24.5z"/>
			<path class="st16" d="M120.6,28.3c-0.3,0.3-0.8,0.5-1.4,0.5c-0.6,0-1-0.2-1.4-0.5c-0.3-0.3-0.5-0.8-0.5-1.4v-2.5h0.9v2.4
				c0,0.3,0.1,0.6,0.2,0.8s0.4,0.3,0.7,0.3c0.3,0,0.5-0.1,0.7-0.3c0.2-0.2,0.2-0.4,0.2-0.8v-2.5h0.9v2.4
				C121.1,27.5,120.9,28,120.6,28.3z"/>
			<path class="st16" d="M124,28.7H123v-3.4h-1.3v-0.9h3.6v0.9H124V28.7z"/>
			<path class="st16" d="M126,24.5h0.9v4.3H126V24.5z"/>
			<path class="st16" d="M132.1,27.7c-0.2,0.3-0.5,0.6-0.8,0.8c-0.3,0.2-0.7,0.3-1.2,0.3s-0.8-0.1-1.2-0.3c-0.3-0.2-0.6-0.5-0.8-0.8
				c-0.2-0.3-0.3-0.7-0.3-1.1v0c0-0.4,0.1-0.8,0.3-1.1s0.5-0.6,0.8-0.8c0.3-0.2,0.7-0.3,1.2-0.3c0.4,0,0.8,0.1,1.2,0.3
				c0.3,0.2,0.6,0.5,0.8,0.8s0.3,0.7,0.3,1.1v0C132.4,27,132.3,27.4,132.1,27.7z M131.3,25.9c-0.1-0.2-0.3-0.4-0.5-0.5
				s-0.4-0.2-0.7-0.2s-0.5,0.1-0.7,0.2c-0.2,0.1-0.3,0.3-0.5,0.5c-0.1,0.2-0.2,0.4-0.2,0.7v0c0,0.2,0.1,0.5,0.2,0.7
				c0.1,0.2,0.3,0.4,0.5,0.5c0.2,0.1,0.4,0.2,0.7,0.2s0.5-0.1,0.7-0.2c0.2-0.1,0.3-0.3,0.5-0.5s0.2-0.4,0.2-0.7v0
				C131.4,26.4,131.4,26.1,131.3,25.9z"/>
			<path class="st16" d="M134.2,26v2.7h-0.9v-4.3h0.9l2,2.6v-2.6h0.9v4.3h-0.8L134.2,26z"/>
		</g>
	</g>
	<rect x="162.9" y="-747.7" class="st17" width="120.7" height="120.7"/>
	<g>
	</g>
	<g>
	</g>
	<g>
	</g>
	<g>
	</g>
	<g>
	</g>
	<g>
	</g>
	<g>
	</g>
	<g>
	</g>
	<g>
	</g>
	<g>
	</g>
	<g>
	</g>
	<g>
	</g>
	<g>
	</g>
	<g>
	</g>
	<g>
	</g>
</g>
</svg>
