<?xml version="1.0" encoding="utf-8"?>
<!-- Generator: Adobe Illustrator 27.3.1, SVG Export Plug-In . SVG Version: 6.00 Build 0)  -->
<svg version="1.1" id="Layer_1" xmlns="http://www.w3.org/2000/svg" xmlns:xlink="http://www.w3.org/1999/xlink" x="0px" y="0px"
	 viewBox="0 0 1800 800" style="enable-background:new 0 0 1800 800;" xml:space="preserve">
<style type="text/css">
	.st0{fill:#4364F7;}
	.st1{fill:url(#SVGID_1_);}
	.st2{fill:url(#SVGID_00000075134298051293676250000015633326928561215619_);}
	.st3{fill:url(#SVGID_00000153692586830076316430000016700854018773574797_);}
	.st4{fill:url(#SVGID_00000034085257760792167000000008405840427457930114_);}
	.st5{fill:url(#SVGID_00000112611371872206721540000003378095298827480462_);}
	.st6{fill:url(#SVGID_00000066475631137658946240000005576472370714749579_);}
	.st7{fill:url(#SVGID_00000091016793285165664800000010041469510937970322_);}
	.st8{fill:url(#SVGID_00000022546187302814877670000016660160221933833366_);}
	.st9{fill:url(#SVGID_00000107588597898401636460000014501369940634729638_);}
	.st10{fill:url(#SVGID_00000077320421125265015030000017967887202970146976_);}
	.st11{fill:url(#SVGID_00000174582410014178585140000004781293337459488135_);}
	.st12{fill:url(#SVGID_00000166638712561468070910000004009009180148685488_);}
	.st13{fill:#3F54FB;}
	.st14{fill:#6DADFC;}
	.st15{fill-rule:evenodd;clip-rule:evenodd;fill:url(#SVGID_00000135676354151842682750000000876570881042430883_);}
	.st16{fill-rule:evenodd;clip-rule:evenodd;fill:url(#SVGID_00000061442283284303035280000017243119764180093616_);}
	.st17{fill:#58595B;}
	.st18{fill:url(#SVGID_00000085957522909744600950000013033429998094806920_);}
	.st19{fill:url(#SVGID_00000022541634764107311920000016023175168751818429_);}
	.st20{fill:url(#SVGID_00000157279997134044349100000011827580554411187364_);}
	.st21{fill:url(#SVGID_00000170974183437524310870000002672218619004502972_);}
	.st22{fill:url(#SVGID_00000181074205835502041050000004589006119075523253_);}
	.st23{fill:url(#SVGID_00000034071967188156207520000018052018608971080607_);}
	.st24{fill:url(#SVGID_00000077315706311279540150000001324292507184713405_);}
	.st25{fill:url(#SVGID_00000032621235582001949550000005160934081923085477_);}
	.st26{fill:url(#SVGID_00000092436254185261802850000004936029552646869660_);}
	.st27{fill:url(#SVGID_00000054259795990684491500000000950444502252085931_);}
	.st28{fill:url(#SVGID_00000153694375199159734550000006020045743494402959_);}
	.st29{fill:url(#SVGID_00000137125084938382367070000012657671133177090967_);}
	.st30{fill-rule:evenodd;clip-rule:evenodd;fill:url(#SVGID_00000105417025215750538170000002333164330079370424_);}
	.st31{fill-rule:evenodd;clip-rule:evenodd;fill:url(#SVGID_00000013889304034098433200000002967464036903326080_);}
</style>
<rect x="-1297.2" y="-342.6" class="st0" width="288.4" height="144.6"/>
<g>
	<g>
		
			<linearGradient id="SVGID_1_" gradientUnits="userSpaceOnUse" x1="-4561.4053" y1="-807.1307" x2="-4462.5752" y2="-803.2026" gradientTransform="matrix(-1 0 0 -1 -4123.2397 -388.3423)">
			<stop  offset="0" style="stop-color:#4364F7"/>
			<stop  offset="0.2068" style="stop-color:#486DF8"/>
			<stop  offset="0.5487" style="stop-color:#5786F9"/>
			<stop  offset="0.9814" style="stop-color:#6EAFFC"/>
			<stop  offset="1" style="stop-color:#6FB1FC"/>
		</linearGradient>
		<polygon class="st1" points="388.4,479 388.4,356.9 419.8,340.1 419.9,496.1 		"/>
		
			<linearGradient id="SVGID_00000076588207345567353450000014802856115160938369_" gradientUnits="userSpaceOnUse" x1="-4503.3364" y1="-946.0665" x2="-4465.9648" y2="-892.6942" gradientTransform="matrix(-1 0 0 -1 -4123.2397 -388.3423)">
			<stop  offset="3.018417e-02" style="stop-color:#4364F7"/>
			<stop  offset="0.318" style="stop-color:#4E77F8"/>
			<stop  offset="0.8987" style="stop-color:#6AA8FB"/>
			<stop  offset="1" style="stop-color:#6FB1FC"/>
		</linearGradient>
		<polygon style="fill:url(#SVGID_00000076588207345567353450000014802856115160938369_);" points="306.1,598.4 306.1,557.8 
			419.9,496.1 451.4,513.1 		"/>
		
			<linearGradient id="SVGID_00000138543693657264409000000004254194445940243380_" gradientUnits="userSpaceOnUse" x1="-4489.8135" y1="-920.5689" x2="-4455.1177" y2="-869.1301" gradientTransform="matrix(-1 0 0 -1 -4123.2397 -388.3423)">
			<stop  offset="0" style="stop-color:#4364F7"/>
			<stop  offset="0.1988" style="stop-color:#466AF7"/>
			<stop  offset="0.4652" style="stop-color:#507BF8"/>
			<stop  offset="0.7684" style="stop-color:#6097FA"/>
			<stop  offset="1" style="stop-color:#6FB1FC"/>
		</linearGradient>
		<polygon style="fill:url(#SVGID_00000138543693657264409000000004254194445940243380_);" points="306.1,557.8 306.1,520.8 
			388.4,479 419.9,496.1 		"/>
		
			<linearGradient id="SVGID_00000085968551692122642330000014177455665960076976_" gradientUnits="userSpaceOnUse" x1="-4496.7183" y1="-660.8837" x2="-4412.7178" y2="-768.2319" gradientTransform="matrix(-1 0 0 -1 -4123.2397 -388.3423)">
			<stop  offset="0.1977" style="stop-color:#4364F7"/>
			<stop  offset="0.6858" style="stop-color:#6FB1FC"/>
		</linearGradient>
		<polygon style="fill:url(#SVGID_00000085968551692122642330000014177455665960076976_);" points="283.5,297.8 283.5,260.7 
			419.8,340.1 388.4,356.9 388.4,356.6 		"/>
		
			<linearGradient id="SVGID_00000048477167217168832460000007389196220330632351_" gradientUnits="userSpaceOnUse" x1="-4526.2324" y1="-619.525" x2="-4400.063" y2="-774.6694" gradientTransform="matrix(-1 0 0 -1 -4123.2397 -388.3423)">
			<stop  offset="0.1681" style="stop-color:#4364F7"/>
			<stop  offset="0.2501" style="stop-color:#4669F7"/>
			<stop  offset="0.3501" style="stop-color:#4E78F8"/>
			<stop  offset="0.4592" style="stop-color:#5D91FA"/>
			<stop  offset="0.5687" style="stop-color:#6FB1FC"/>
		</linearGradient>
		<polygon style="fill:url(#SVGID_00000048477167217168832460000007389196220330632351_);" points="283.5,260.7 283.5,226.6 
			449.5,322.1 451.4,323.1 419.8,340.1 		"/>
		
			<linearGradient id="SVGID_00000006685742789618600000000004996457918326621622_" gradientUnits="userSpaceOnUse" x1="-4571.6924" y1="-806.0267" x2="-4533.7407" y2="-800.3248" gradientTransform="matrix(-1 0 0 -1 -4123.2397 -388.3423)">
			<stop  offset="3.018417e-02" style="stop-color:#4364F7"/>
			<stop  offset="1" style="stop-color:#6FB1FC"/>
		</linearGradient>
		<polygon style="fill:url(#SVGID_00000006685742789618600000000004996457918326621622_);" points="419.8,340.1 451.4,323.1 
			451.4,513.1 419.9,496.1 		"/>
	</g>
	<g>
		
			<linearGradient id="SVGID_00000003083581800116282570000015744806794098515846_" gradientUnits="userSpaceOnUse" x1="128.8979" y1="423.0439" x2="227.7283" y2="426.972">
			<stop  offset="0" style="stop-color:#4364F7"/>
			<stop  offset="0.2068" style="stop-color:#486DF8"/>
			<stop  offset="0.5487" style="stop-color:#5786F9"/>
			<stop  offset="0.9814" style="stop-color:#6EAFFC"/>
			<stop  offset="1" style="stop-color:#6FB1FC"/>
		</linearGradient>
		<polygon style="fill:url(#SVGID_00000003083581800116282570000015744806794098515846_);" points="178.6,362.8 178.6,484.9 
			147.2,501.8 147.2,345.8 		"/>
		
			<linearGradient id="SVGID_00000093897911501422812890000007461273725578228887_" gradientUnits="userSpaceOnUse" x1="186.967" y1="284.1081" x2="224.3386" y2="337.4803">
			<stop  offset="3.018417e-02" style="stop-color:#4364F7"/>
			<stop  offset="0.318" style="stop-color:#4E77F8"/>
			<stop  offset="0.8987" style="stop-color:#6AA8FB"/>
			<stop  offset="1" style="stop-color:#6FB1FC"/>
		</linearGradient>
		<polygon style="fill:url(#SVGID_00000093897911501422812890000007461273725578228887_);" points="261,243.4 261,284 147.2,345.8 
			115.7,328.7 		"/>
		
			<linearGradient id="SVGID_00000182510385592896214980000003508852892560948385_" gradientUnits="userSpaceOnUse" x1="200.4897" y1="309.6057" x2="235.1855" y2="361.0444">
			<stop  offset="0" style="stop-color:#4364F7"/>
			<stop  offset="0.1988" style="stop-color:#466AF7"/>
			<stop  offset="0.4652" style="stop-color:#507BF8"/>
			<stop  offset="0.7684" style="stop-color:#6097FA"/>
			<stop  offset="1" style="stop-color:#6FB1FC"/>
		</linearGradient>
		<polygon style="fill:url(#SVGID_00000182510385592896214980000003508852892560948385_);" points="261,284 261,321.1 178.6,362.8 
			147.2,345.8 		"/>
		
			<linearGradient id="SVGID_00000159472129967034492610000017865176093766006180_" gradientUnits="userSpaceOnUse" x1="193.585" y1="569.2908" x2="277.5855" y2="461.9427">
			<stop  offset="0.1977" style="stop-color:#4364F7"/>
			<stop  offset="0.6858" style="stop-color:#6FB1FC"/>
		</linearGradient>
		<polygon style="fill:url(#SVGID_00000159472129967034492610000017865176093766006180_);" points="283.5,544 283.5,581.1 
			147.2,501.8 178.6,484.9 178.6,485.2 		"/>
		
			<linearGradient id="SVGID_00000013880511183337411130000013368610134042306965_" gradientUnits="userSpaceOnUse" x1="164.0708" y1="610.6496" x2="290.2403" y2="455.5052">
			<stop  offset="0.1681" style="stop-color:#4364F7"/>
			<stop  offset="0.2501" style="stop-color:#4669F7"/>
			<stop  offset="0.3501" style="stop-color:#4E78F8"/>
			<stop  offset="0.4592" style="stop-color:#5D91FA"/>
			<stop  offset="0.5687" style="stop-color:#6FB1FC"/>
		</linearGradient>
		<polygon style="fill:url(#SVGID_00000013880511183337411130000013368610134042306965_);" points="283.5,581.1 283.5,615.2 
			117.5,519.8 115.7,518.7 147.2,501.8 		"/>
		
			<linearGradient id="SVGID_00000159447567597560945820000008671129857179716228_" gradientUnits="userSpaceOnUse" x1="118.6109" y1="424.1479" x2="156.5625" y2="429.8498">
			<stop  offset="3.018417e-02" style="stop-color:#4364F7"/>
			<stop  offset="1" style="stop-color:#6FB1FC"/>
		</linearGradient>
		<polygon style="fill:url(#SVGID_00000159447567597560945820000008671129857179716228_);" points="147.2,501.8 115.7,518.7 
			115.7,328.7 147.2,345.8 		"/>
	</g>
	<polygon class="st13" points="281.4,362.4 281.4,426.3 178.6,484.9 115.7,518.7 115.7,458.5 178.6,422 	"/>
	<polygon class="st14" points="451.4,323.1 451.4,383 388.4,419.5 285.7,479.2 285.7,415.3 388.4,356.7 388.4,356.6 	"/>
	
		<linearGradient id="SVGID_00000013178017949586275460000004228825365074218628_" gradientUnits="userSpaceOnUse" x1="243.7" y1="348.3049" x2="243.7" y2="121.1911">
		<stop  offset="0.136" style="stop-color:#4364F7"/>
		<stop  offset="0.4956" style="stop-color:#4364F7"/>
		<stop  offset="1" style="stop-color:#6FB1FC"/>
	</linearGradient>
	
		<polygon style="fill-rule:evenodd;clip-rule:evenodd;fill:url(#SVGID_00000013178017949586275460000004228825365074218628_);" points="
		261,321.1 226.4,302.8 261,243.4 	"/>
	
		<linearGradient id="SVGID_00000155838822685374727770000014779329457671225268_" gradientUnits="userSpaceOnUse" x1="-4510.6411" y1="-431.1599" x2="-4510.6411" y2="-658.2737" gradientTransform="matrix(-1 0 0 -1 -4187.2778 62.3676)">
		<stop  offset="0.136" style="stop-color:#4364F7"/>
		<stop  offset="0.4956" style="stop-color:#4364F7"/>
		<stop  offset="1" style="stop-color:#6FB1FC"/>
	</linearGradient>
	
		<polygon style="fill-rule:evenodd;clip-rule:evenodd;fill:url(#SVGID_00000155838822685374727770000014779329457671225268_);" points="
		306.1,520.8 340.6,539 306.1,598.4 	"/>
</g>
<g>
	<g>
		<path class="st0" d="M642.9,366l24.6,12.6c-9.1,14.5-29,25.7-55.5,25.7c-37.1,0-62.1-19.3-62.1-52.4c0-33.2,25-52.4,63.2-52.4
			c25.4,0,45.1,11.5,54,25.6l-24.7,12.6c-6.5-10.1-16.4-14.9-29.7-14.9c-20.2,0-33.7,10.3-33.7,29.1c0,18.8,13.5,29.1,33.7,29.1
			C625.9,381,636.1,376.6,642.9,366z"/>
		<path class="st0" d="M770.8,401.1l-26-31.1h-29v31.1h-28.5v-98.4h69c25.2,0,44.7,11.1,44.7,33.6c0,16.4-10.4,26.8-25.9,31.3
			l28.9,33.4H770.8z M754.2,349.3c10.3,0,17.7-2.8,17.7-12.4c0-9.6-7.4-12.4-17.7-12.4h-38.5v24.7H754.2z"/>
		<path class="st0" d="M930.1,379.2v21.9h-105v-98.4h103.4v21.9h-75.2v16.2h62v20.9h-62v17.4H930.1z"/>
		<path class="st0" d="M1034.2,382.3h-54l-9.3,18.8h-30.1l50.9-98.4h31.3l50.9,98.4h-30.5L1034.2,382.3z M1024.2,361.9l-17-34.9
			l-17.1,34.9H1024.2z"/>
		<path class="st0" d="M1176,325.7h-40.9v75.5h-28.7v-75.5h-40.6v-22.9H1176V325.7z"/>
		<path class="st0" d="M1195.3,401.1v-98.4h28.7v98.4H1195.3z"/>
		<path class="st0" d="M1271.6,302.8l32.5,70.8l32.3-70.8h30.6l-48.2,98.4h-30.1l-48.1-98.4H1271.6z"/>
		<path class="st0" d="M1488.4,379.2v21.9h-105v-98.4h103.4v21.9h-75.2v16.2h62v20.9h-62v17.4H1488.4z"/>
		<path class="st0" d="M1553.6,401.1v-98.4h28.7v98.4H1553.6z"/>
		<path class="st0" d="M1712,325.7h-40.9v75.5h-28.7v-75.5h-40.6v-22.9H1712V325.7z"/>
	</g>
	<g>
		<path class="st17" d="M597.9,512.5L586,478.6l-11.8,33.9h-10l-17.9-52.2h12.4l10.9,35.1l11.8-35.2h9.9l11.8,35.2l10.9-35.1h12.1
			l-17.9,52.2H597.9z"/>
		<path class="st17" d="M634.3,460.4h39.5v10.1h-28.1V481h24.7v10.1h-24.7V502h28.5v10.1h-39.9V460.4z"/>
		<path class="st17" d="M723.8,508.6c-3.5,2.4-8.3,3.6-14.4,3.6h-24.9v-51.8h24.3c5.3,0,9.6,1.2,12.7,3.6c3.1,2.4,4.6,5.7,4.6,9.8
			v0.1c0,4.9-2.3,8.6-6.9,11.2c3.2,1.2,5.7,2.8,7.3,4.8c1.6,2,2.5,4.6,2.5,7.9v0.1C729.1,502.6,727.3,506.1,723.8,508.6z
			 M712.8,471.7c-1.3-0.9-3.2-1.4-5.6-1.4h-11.4v11h10.6c2.6,0,4.7-0.4,6.1-1.3s2.2-2.3,2.2-4.1v-0.1
			C714.7,474,714.1,472.6,712.8,471.7z M715.5,492.3c-1.4-1-3.5-1.5-6.4-1.5h-13.3v11.4h13.7c2.6,0,4.6-0.5,6-1.4
			c1.4-0.9,2.1-2.3,2.1-4.2v-0.1C717.6,494.6,716.9,493.3,715.5,492.3z"/>
		<path class="st17" d="M790.3,507.1c-4.7,3.9-9.9,5.8-15.4,5.8c-3.3,0-6.4-0.6-9-1.9c-2.7-1.2-4.8-3-6.3-5.3
			c-1.5-2.3-2.3-4.9-2.3-7.9c0-6.5,3.4-11.2,10.2-14.3c-1.3-1.8-2.2-3.6-2.8-5.2c-0.6-1.7-0.9-3.4-0.9-5.2c0-2.4,0.6-4.7,1.9-6.8
			c1.3-2.1,3.1-3.8,5.5-5s5.2-1.9,8.5-1.9c2.9,0,5.5,0.6,7.7,1.7c2.2,1.1,4,2.7,5.2,4.7c1.2,2,1.8,4.2,1.8,6.7c0,3.4-1,6.1-2.9,8.3
			c-1.9,2.2-4.6,4-8.1,5.3l7,6.9c1.6-2.6,3.3-5.5,5.1-8.9l8.5,4.6c-2.6,4.6-4.9,8.3-6.9,11l7.7,7.6l-8.5,5.8L790.3,507.1z
			 M770.1,493.6c-0.8,1.2-1.2,2.5-1.2,3.8c0,1.8,0.7,3.3,2.1,4.4c1.4,1.1,3.1,1.7,5.3,1.7c2.5,0,5-1,7.6-3l-10-10.1
			C772.2,491.4,770.9,492.4,770.1,493.6z M783.1,469.6c-0.9-0.9-2.1-1.3-3.6-1.3c-1.5,0-2.8,0.5-3.7,1.5c-0.9,1-1.4,2.3-1.4,3.8
			c0,1.1,0.2,2.2,0.7,3.2c0.5,1,1.3,2.1,2.4,3.3c2.4-0.9,4.2-1.9,5.3-2.9c1.1-1.1,1.7-2.4,1.7-4C784.4,471.7,784,470.5,783.1,469.6z
			"/>
		<path class="st17" d="M868.3,508.7c-3.5,2.8-8.2,4.3-14,4.3c-4,0-8-0.7-11.8-2.1c-3.8-1.4-7.3-3.5-10.4-6.2l6.8-8.1
			c2.5,2,5,3.6,7.6,4.7c2.5,1.1,5.2,1.6,8.1,1.6c2.3,0,4.2-0.4,5.5-1.3c1.3-0.9,2-2.1,2-3.6v-0.1c0-1-0.3-1.9-0.8-2.6
			c-0.5-0.7-1.6-1.3-3.1-2c-1.5-0.6-3.7-1.3-6.6-2c-4-1-7.2-2.1-9.6-3.2c-2.4-1.1-4.3-2.7-5.7-4.7c-1.4-2-2.1-4.7-2.1-8v-0.1
			c0-3.1,0.8-5.8,2.4-8.2c1.6-2.3,3.7-4.2,6.5-5.5c2.8-1.3,5.9-2,9.5-2c7.4,0,13.9,2.2,19.5,6.6l-6,8.6c-4.9-3.4-9.5-5.1-13.6-5.1
			c-2.1,0-3.8,0.4-5,1.3c-1.2,0.8-1.8,1.9-1.8,3.3v0.1c0,1.1,0.3,2.1,0.9,2.8c0.6,0.7,1.7,1.4,3.3,2c1.5,0.6,3.9,1.3,7.1,2.1
			c5.7,1.5,9.9,3.4,12.6,5.7s4,5.6,4,9.9v0.1C873.6,501.9,871.8,505.8,868.3,508.7z"/>
		<path class="st17" d="M933.4,499.7c-2.4,4.1-5.8,7.3-10,9.7c-4.2,2.4-9,3.6-14.3,3.6c-5.3,0-10-1.2-14.3-3.6
			c-4.2-2.4-7.5-5.6-9.9-9.7c-2.4-4.1-3.6-8.6-3.6-13.4v-0.1c0-4.9,1.2-9.4,3.6-13.5c2.4-4.1,5.8-7.3,10-9.7c4.2-2.4,9-3.6,14.3-3.6
			c5.3,0,10,1.2,14.3,3.6s7.5,5.6,9.9,9.7s3.6,8.6,3.6,13.4v0.1C937,491.2,935.8,495.6,933.4,499.7z M922.9,478.1
			c-1.4-2.5-3.3-4.5-5.7-5.9c-2.4-1.5-5.1-2.2-8.2-2.2c-3,0-5.8,0.7-8.1,2.1c-2.4,1.4-4.2,3.4-5.6,5.8c-1.3,2.5-2,5.2-2,8.1v0.1
			c0,3,0.7,5.7,2.1,8.2c1.4,2.5,3.3,4.5,5.7,5.9c2.4,1.5,5.1,2.2,8.2,2.2c3,0,5.8-0.7,8.1-2.1c2.4-1.4,4.2-3.4,5.6-5.8
			c1.3-2.5,2-5.2,2-8.1v-0.1C925,483.3,924.3,480.6,922.9,478.1z"/>
		<path class="st17" d="M958.8,481.7h25v10.4h-25v20.1h-11.5v-51.8h39.9v10.4h-28.4V481.7z"/>
		<path class="st17" d="M1020.2,512.2h-11.5v-41.3h-16v-10.5h43.4v10.5h-16V512.2z"/>
		<path class="st17" d="M1092.5,512.5l-11.8-33.9l-11.8,33.9h-10l-17.9-52.2h12.4l10.9,35.1l11.8-35.2h9.9l11.8,35.2l10.9-35.1h12.1
			l-17.9,52.2H1092.5z"/>
		<path class="st17" d="M1156.5,500.6h-22.2l-4.8,11.6h-11.8l22.5-52.2h10.6l22.5,52.2h-12.1L1156.5,500.6z M1138.4,490.5h13.9
			l-7-16.8L1138.4,490.5z"/>
		<path class="st17" d="M1202,495.6h-9.1v16.6h-11.5v-51.8h24c6.2,0,11,1.5,14.5,4.6c3.5,3,5.2,7.2,5.2,12.5v0.1c0,4-1,7.4-3,10.1
			c-2,2.7-4.7,4.7-8.2,6l12.8,18.5h-13.5L1202,495.6z M1211.1,472.5c-1.6-1.3-3.8-1.9-6.7-1.9h-11.5v14.9h11.7c2.7,0,4.9-0.7,6.5-2
			s2.4-3.1,2.4-5.3V478C1213.5,475.6,1212.7,473.8,1211.1,472.5z"/>
		<path class="st17" d="M1235.6,460.4h39.5v10.1H1247V481h24.7v10.1H1247V502h28.5v10.1h-39.9V460.4z"/>
		<path class="st17" d="M1340.8,508.7c-3.5,2.8-8.2,4.3-14,4.3c-4,0-8-0.7-11.8-2.1c-3.8-1.4-7.3-3.5-10.4-6.2l6.8-8.1
			c2.5,2,5,3.6,7.6,4.7c2.5,1.1,5.2,1.6,8.1,1.6c2.3,0,4.2-0.4,5.5-1.3c1.3-0.9,2-2.1,2-3.6v-0.1c0-1-0.3-1.9-0.8-2.6
			c-0.5-0.7-1.6-1.3-3.1-2c-1.5-0.6-3.7-1.3-6.6-2c-4-1-7.2-2.1-9.6-3.2c-2.4-1.1-4.3-2.7-5.7-4.7c-1.4-2-2.1-4.7-2.1-8v-0.1
			c0-3.1,0.8-5.8,2.4-8.2c1.6-2.3,3.7-4.2,6.5-5.5c2.8-1.3,5.9-2,9.5-2c7.4,0,13.9,2.2,19.5,6.6l-6,8.6c-4.9-3.4-9.5-5.1-13.6-5.1
			c-2.1,0-3.8,0.4-5,1.3c-1.2,0.8-1.8,1.9-1.8,3.3v0.1c0,1.1,0.3,2.1,0.9,2.8c0.6,0.7,1.7,1.4,3.3,2c1.5,0.6,3.9,1.3,7.1,2.1
			c5.7,1.5,9.9,3.4,12.6,5.7s4,5.6,4,9.9v0.1C1346.1,501.9,1344.4,505.8,1340.8,508.7z"/>
		<path class="st17" d="M1405.9,499.7c-2.4,4.1-5.8,7.3-10,9.7c-4.2,2.4-9,3.6-14.3,3.6c-5.3,0-10-1.2-14.3-3.6
			c-4.2-2.4-7.5-5.6-9.9-9.7c-2.4-4.1-3.6-8.6-3.6-13.4v-0.1c0-4.9,1.2-9.4,3.6-13.5c2.4-4.1,5.8-7.3,10-9.7c4.2-2.4,9-3.6,14.3-3.6
			c5.3,0,10,1.2,14.3,3.6s7.5,5.6,9.9,9.7s3.6,8.6,3.6,13.4v0.1C1409.6,491.2,1408.4,495.6,1405.9,499.7z M1395.4,478.1
			c-1.4-2.5-3.3-4.5-5.7-5.9c-2.4-1.5-5.1-2.2-8.2-2.2c-3,0-5.8,0.7-8.1,2.1c-2.4,1.4-4.2,3.4-5.6,5.8c-1.3,2.5-2,5.2-2,8.1v0.1
			c0,3,0.7,5.7,2.1,8.2c1.4,2.5,3.3,4.5,5.7,5.9c2.4,1.5,5.1,2.2,8.2,2.2c3,0,5.8-0.7,8.1-2.1c2.4-1.4,4.2-3.4,5.6-5.8
			c1.3-2.5,2-5.2,2-8.1v-0.1C1397.5,483.3,1396.8,480.6,1395.4,478.1z"/>
		<path class="st17" d="M1419.8,460.4h11.5v41.5h26.1v10.4h-37.7V460.4z"/>
		<path class="st17" d="M1503.5,507.1c-4.1,3.9-9.7,5.9-16.9,5.9c-7.1,0-12.7-2-16.7-5.9c-4-3.9-6-9.6-6-17.1v-29.6h11.5v29.3
			c0,4.1,1,7.3,3,9.5c2,2.2,4.8,3.3,8.4,3.3c3.6,0,6.4-1.1,8.4-3.2c2-2.1,3-5.2,3-9.3v-29.7h11.5v29.2
			C1509.6,497.3,1507.5,503.1,1503.5,507.1z"/>
		<path class="st17" d="M1545.1,512.2h-11.5v-41.3h-16v-10.5h43.4v10.5h-16V512.2z"/>
		<path class="st17" d="M1570.4,460.4h11.5v51.8h-11.5V460.4z"/>
		<path class="st17" d="M1644.8,499.7c-2.4,4.1-5.8,7.3-10,9.7c-4.2,2.4-9,3.6-14.3,3.6c-5.3,0-10-1.2-14.3-3.6
			c-4.2-2.4-7.5-5.6-9.9-9.7c-2.4-4.1-3.6-8.6-3.6-13.4v-0.1c0-4.9,1.2-9.4,3.6-13.5c2.4-4.1,5.8-7.3,10-9.7c4.2-2.4,9-3.6,14.3-3.6
			c5.3,0,10,1.2,14.3,3.6s7.5,5.6,9.9,9.7s3.6,8.6,3.6,13.4v0.1C1648.4,491.2,1647.2,495.6,1644.8,499.7z M1634.3,478.1
			c-1.4-2.5-3.3-4.5-5.7-5.9c-2.4-1.5-5.1-2.2-8.2-2.2c-3,0-5.8,0.7-8.1,2.1c-2.4,1.4-4.2,3.4-5.6,5.8c-1.3,2.5-2,5.2-2,8.1v0.1
			c0,3,0.7,5.7,2.1,8.2c1.4,2.5,3.3,4.5,5.7,5.9c2.4,1.5,5.1,2.2,8.2,2.2c3,0,5.8-0.7,8.1-2.1c2.4-1.4,4.2-3.4,5.6-5.8
			c1.3-2.5,2-5.2,2-8.1v-0.1C1636.4,483.3,1635.7,480.6,1634.3,478.1z"/>
		<path class="st17" d="M1670.1,479.2v32.9h-11.4v-51.8h10.6l24.6,31.9v-31.9h11.4v51.8h-9.8L1670.1,479.2z"/>
	</g>
</g>
<rect x="-939.8" y="-342.6" class="st14" width="306.7" height="144.6"/>
<g>
	
		<linearGradient id="SVGID_00000129205659919205214180000007883240085664184212_" gradientUnits="userSpaceOnUse" x1="-3564.5845" y1="-720.0719" x2="-3418.6333" y2="-714.271" gradientTransform="matrix(-1 0 0 -1 -4123.2397 -388.3423)">
		<stop  offset="0" style="stop-color:#4364F7"/>
		<stop  offset="0.2068" style="stop-color:#486DF8"/>
		<stop  offset="0.5487" style="stop-color:#5786F9"/>
		<stop  offset="0.9814" style="stop-color:#6EAFFC"/>
		<stop  offset="1" style="stop-color:#6FB1FC"/>
	</linearGradient>
	<polygon style="fill:url(#SVGID_00000129205659919205214180000007883240085664184212_);" points="-632.1,420.7 -632.1,240.4 
		-585.7,215.5 -585.6,445.8 	"/>
	
		<linearGradient id="SVGID_00000056416469927771075900000014170578398383715256_" gradientUnits="userSpaceOnUse" x1="-3478.8291" y1="-925.2501" x2="-3423.6392" y2="-846.4308" gradientTransform="matrix(-1 0 0 -1 -4123.2397 -388.3423)">
		<stop  offset="3.018417e-02" style="stop-color:#4364F7"/>
		<stop  offset="0.318" style="stop-color:#4E77F8"/>
		<stop  offset="0.8987" style="stop-color:#6AA8FB"/>
		<stop  offset="1" style="stop-color:#6FB1FC"/>
	</linearGradient>
	<polygon style="fill:url(#SVGID_00000056416469927771075900000014170578398383715256_);" points="-753.7,597 -753.7,537 
		-585.6,445.8 -539.1,471 	"/>
	
		<linearGradient id="SVGID_00000020372156043203212460000015263448843815888261_" gradientUnits="userSpaceOnUse" x1="-3458.8589" y1="-887.5956" x2="-3407.6206" y2="-811.6317" gradientTransform="matrix(-1 0 0 -1 -4123.2397 -388.3423)">
		<stop  offset="0" style="stop-color:#4364F7"/>
		<stop  offset="0.1988" style="stop-color:#466AF7"/>
		<stop  offset="0.4652" style="stop-color:#507BF8"/>
		<stop  offset="0.7684" style="stop-color:#6097FA"/>
		<stop  offset="1" style="stop-color:#6FB1FC"/>
	</linearGradient>
	<polygon style="fill:url(#SVGID_00000020372156043203212460000015263448843815888261_);" points="-753.7,537 -753.7,482.3 
		-632.1,420.7 -585.6,445.8 	"/>
	
		<linearGradient id="SVGID_00000031183374535476169240000013527163552004430753_" gradientUnits="userSpaceOnUse" x1="-3469.0557" y1="-504.0966" x2="-3345.0051" y2="-662.6268" gradientTransform="matrix(-1 0 0 -1 -4123.2397 -388.3423)">
		<stop  offset="0.1977" style="stop-color:#4364F7"/>
		<stop  offset="0.6858" style="stop-color:#6FB1FC"/>
	</linearGradient>
	<polygon style="fill:url(#SVGID_00000031183374535476169240000013527163552004430753_);" points="-787,153.1 -787,98.3 
		-585.7,215.5 -632.1,240.4 -632.1,240 	"/>
	
		<linearGradient id="SVGID_00000049220944368267179320000002369763807719465365_" gradientUnits="userSpaceOnUse" x1="-3512.6418" y1="-443.0187" x2="-3326.3167" y2="-672.1335" gradientTransform="matrix(-1 0 0 -1 -4123.2397 -388.3423)">
		<stop  offset="0.1681" style="stop-color:#4364F7"/>
		<stop  offset="0.2501" style="stop-color:#4669F7"/>
		<stop  offset="0.3501" style="stop-color:#4E78F8"/>
		<stop  offset="0.4592" style="stop-color:#5D91FA"/>
		<stop  offset="0.5687" style="stop-color:#6FB1FC"/>
	</linearGradient>
	<polygon style="fill:url(#SVGID_00000049220944368267179320000002369763807719465365_);" points="-787,98.3 -787,48 -541.8,188.9 
		-539.1,190.4 -585.7,215.5 	"/>
	
		<linearGradient id="SVGID_00000121257734720010051190000002803889788823353744_" gradientUnits="userSpaceOnUse" x1="-3579.7761" y1="-718.4415" x2="-3523.73" y2="-710.0211" gradientTransform="matrix(-1 0 0 -1 -4123.2397 -388.3423)">
		<stop  offset="3.018417e-02" style="stop-color:#4364F7"/>
		<stop  offset="1" style="stop-color:#6FB1FC"/>
	</linearGradient>
	<polygon style="fill:url(#SVGID_00000121257734720010051190000002803889788823353744_);" points="-585.7,215.5 -539.1,190.4 
		-539.1,471 -585.6,445.8 	"/>
</g>
<g>
	
		<linearGradient id="SVGID_00000049925976240425310240000001163709842167755185_" gradientUnits="userSpaceOnUse" x1="-1015.3768" y1="338.014" x2="-869.4256" y2="343.8149">
		<stop  offset="0" style="stop-color:#4364F7"/>
		<stop  offset="0.2068" style="stop-color:#486DF8"/>
		<stop  offset="0.5487" style="stop-color:#5786F9"/>
		<stop  offset="0.9814" style="stop-color:#6EAFFC"/>
		<stop  offset="1" style="stop-color:#6FB1FC"/>
	</linearGradient>
	<polygon style="fill:url(#SVGID_00000049925976240425310240000001163709842167755185_);" points="-941.9,249.1 -941.9,429.4 
		-988.3,454.3 -988.4,223.9 	"/>
	
		<linearGradient id="SVGID_00000011750104437786654610000006678918753085795226_" gradientUnits="userSpaceOnUse" x1="-929.6213" y1="132.8358" x2="-874.4314" y2="211.6551">
		<stop  offset="3.018417e-02" style="stop-color:#4364F7"/>
		<stop  offset="0.318" style="stop-color:#4E77F8"/>
		<stop  offset="0.8987" style="stop-color:#6AA8FB"/>
		<stop  offset="1" style="stop-color:#6FB1FC"/>
	</linearGradient>
	<polygon style="fill:url(#SVGID_00000011750104437786654610000006678918753085795226_);" points="-820.3,72.7 -820.3,132.7 
		-988.4,223.9 -1034.9,198.7 	"/>
	
		<linearGradient id="SVGID_00000033367470258384856640000006353749453732227213_" gradientUnits="userSpaceOnUse" x1="-909.6512" y1="170.4903" x2="-858.4128" y2="246.4542">
		<stop  offset="0" style="stop-color:#4364F7"/>
		<stop  offset="0.1988" style="stop-color:#466AF7"/>
		<stop  offset="0.4652" style="stop-color:#507BF8"/>
		<stop  offset="0.7684" style="stop-color:#6097FA"/>
		<stop  offset="1" style="stop-color:#6FB1FC"/>
	</linearGradient>
	<polygon style="fill:url(#SVGID_00000033367470258384856640000006353749453732227213_);" points="-820.3,132.7 -820.3,187.4 
		-941.9,249.1 -988.4,223.9 	"/>
	
		<linearGradient id="SVGID_00000161602763841906299490000002868565063852952991_" gradientUnits="userSpaceOnUse" x1="-919.8479" y1="553.9893" x2="-795.7973" y2="395.4592">
		<stop  offset="0.1977" style="stop-color:#4364F7"/>
		<stop  offset="0.6858" style="stop-color:#6FB1FC"/>
	</linearGradient>
	<polygon style="fill:url(#SVGID_00000161602763841906299490000002868565063852952991_);" points="-787,516.7 -787,571.5 
		-988.3,454.3 -941.9,429.4 -941.9,429.8 	"/>
	
		<linearGradient id="SVGID_00000079472584334995083490000005379534431594766227_" gradientUnits="userSpaceOnUse" x1="-963.434" y1="615.0672" x2="-777.1089" y2="385.9523">
		<stop  offset="0.1681" style="stop-color:#4364F7"/>
		<stop  offset="0.2501" style="stop-color:#4669F7"/>
		<stop  offset="0.3501" style="stop-color:#4E78F8"/>
		<stop  offset="0.4592" style="stop-color:#5D91FA"/>
		<stop  offset="0.5687" style="stop-color:#6FB1FC"/>
	</linearGradient>
	<polygon style="fill:url(#SVGID_00000079472584334995083490000005379534431594766227_);" points="-787,571.5 -787,621.8 
		-1032.2,480.8 -1034.9,479.3 -988.3,454.3 	"/>
	
		<linearGradient id="SVGID_00000030474757984969638420000010192850909667427496_" gradientUnits="userSpaceOnUse" x1="-1030.5685" y1="339.6444" x2="-974.5221" y2="348.0648">
		<stop  offset="3.018417e-02" style="stop-color:#4364F7"/>
		<stop  offset="1" style="stop-color:#6FB1FC"/>
	</linearGradient>
	<polygon style="fill:url(#SVGID_00000030474757984969638420000010192850909667427496_);" points="-988.3,454.3 -1034.9,479.3 
		-1034.9,198.7 -988.4,223.9 	"/>
</g>
<polygon class="st13" points="-790.2,248.4 -790.2,342.8 -941.9,429.4 -1034.9,479.3 -1034.9,390.4 -941.9,336.5 "/>
<polygon class="st14" points="-539.1,190.4 -539.1,278.9 -632.1,332.9 -783.8,420.9 -783.8,326.5 -632.1,240 -632.1,240 "/>
<linearGradient id="SVGID_00000116215328439322941030000015403164485909364372_" gradientUnits="userSpaceOnUse" x1="-845.8389" y1="227.6406" x2="-845.8389" y2="-107.7574">
	<stop  offset="0.136" style="stop-color:#4364F7"/>
	<stop  offset="0.4956" style="stop-color:#4364F7"/>
	<stop  offset="1" style="stop-color:#6FB1FC"/>
</linearGradient>
<polygon style="fill-rule:evenodd;clip-rule:evenodd;fill:url(#SVGID_00000116215328439322941030000015403164485909364372_);" points="
	-820.3,187.4 -871.4,160.4 -820.3,72.7 "/>
<linearGradient id="SVGID_00000072971883681955162100000006385715270031283872_" gradientUnits="userSpaceOnUse" x1="-3459.0845" y1="-379.7355" x2="-3459.0845" y2="-715.1335" gradientTransform="matrix(-1 0 0 -1 -4187.2778 62.3676)">
	<stop  offset="0.136" style="stop-color:#4364F7"/>
	<stop  offset="0.4956" style="stop-color:#4364F7"/>
	<stop  offset="1" style="stop-color:#6FB1FC"/>
</linearGradient>
<polygon style="fill-rule:evenodd;clip-rule:evenodd;fill:url(#SVGID_00000072971883681955162100000006385715270031283872_);" points="
	-753.7,482.3 -702.7,509.3 -753.7,597 "/>
<g>
	<path class="st0" d="M-1071.6,707.6l14.4,7.4c-5.4,8.5-17,15.1-32.6,15.1c-21.8,0-36.4-11.3-36.4-30.7s14.7-30.7,37.1-30.7
		c14.9,0,26.5,6.8,31.6,15l-14.5,7.4c-3.8-5.9-9.6-8.7-17.4-8.7c-11.9,0-19.8,6-19.8,17.1c0,11,7.9,17.1,19.8,17.1
		C-1081.6,716.5-1075.6,713.8-1071.6,707.6z"/>
	<path class="st0" d="M-996.6,728.3l-15.2-18.2h-17v18.2h-16.7v-57.7h40.5c14.8,0,26.2,6.5,26.2,19.7c0,9.6-6.1,15.7-15.2,18.4
		l17,19.6H-996.6z M-1006.3,697.8c6,0,10.4-1.6,10.4-7.3c0-5.6-4.4-7.3-10.4-7.3h-22.6v14.5H-1006.3z"/>
	<path class="st0" d="M-903.2,715.4v12.9h-61.6v-57.7h60.7v12.9h-44.1v9.5h36.3v12.3h-36.3v10.2H-903.2z"/>
	<path class="st0" d="M-842.2,717.2h-31.6l-5.4,11h-17.6l29.8-57.7h18.4l29.8,57.7h-17.9L-842.2,717.2z M-848,705.3l-10-20.4
		l-10.1,20.4H-848z"/>
	<path class="st0" d="M-759,684h-24v44.3h-16.8V684h-23.8v-13.4h64.6V684z"/>
	<path class="st0" d="M-747.7,728.3v-57.7h16.8v57.7H-747.7z"/>
	<path class="st0" d="M-703,670.6l19,41.5l19-41.5h18l-28.3,57.7h-17.6l-28.2-57.7H-703z"/>
	<path class="st0" d="M-575.8,715.4v12.9h-61.6v-57.7h60.7v12.9h-44.1v9.5h36.3v12.3h-36.3v10.2H-575.8z"/>
	<path class="st0" d="M-537.6,728.3v-57.7h16.8v57.7H-537.6z"/>
	<path class="st0" d="M-444.7,684h-24v44.3h-16.8V684h-23.8v-13.4h64.6V684z"/>
</g>
<g>
	<path class="st17" d="M-1098,793.6l-6.9-19.9l-6.9,19.9h-5.9l-10.5-30.6h7.2l6.4,20.6l6.9-20.7h5.8l6.9,20.7l6.4-20.6h7.1
		l-10.5,30.6H-1098z"/>
	<path class="st17" d="M-1076.6,763h23.2v5.9h-16.5v6.2h14.5v5.9h-14.5v6.4h16.7v5.9h-23.4V763z"/>
	<path class="st17" d="M-1024.2,791.2c-2.1,1.4-4.9,2.1-8.4,2.1h-14.6V763h14.3c3.1,0,5.6,0.7,7.4,2.1c1.8,1.4,2.7,3.3,2.7,5.7v0.1
		c0,2.9-1.3,5.1-4,6.6c1.9,0.7,3.3,1.7,4.3,2.8c1,1.2,1.4,2.7,1.4,4.6v0.1C-1021.1,787.7-1022.1,789.8-1024.2,791.2z M-1030.7,769.6
		c-0.8-0.5-1.9-0.8-3.3-0.8h-6.7v6.4h6.2c1.6,0,2.8-0.3,3.6-0.8c0.8-0.5,1.3-1.3,1.3-2.4V772
		C-1029.5,770.9-1029.9,770.2-1030.7,769.6z M-1029,781.7c-0.8-0.6-2.1-0.9-3.8-0.9h-7.8v6.7h8c1.5,0,2.7-0.3,3.5-0.8
		c0.8-0.5,1.3-1.4,1.3-2.5v-0.1C-1027.8,783.1-1028.2,782.3-1029,781.7z"/>
	<path class="st17" d="M-985.2,790.4c-2.8,2.3-5.8,3.4-9,3.4c-2,0-3.7-0.4-5.3-1.1c-1.6-0.7-2.8-1.8-3.7-3.1
		c-0.9-1.3-1.3-2.9-1.3-4.6c0-3.8,2-6.6,6-8.4c-0.8-1.1-1.3-2.1-1.6-3.1c-0.3-1-0.5-2-0.5-3.1c0-1.4,0.4-2.7,1.1-4
		c0.7-1.2,1.8-2.2,3.2-3c1.4-0.7,3.1-1.1,5-1.1c1.7,0,3.2,0.3,4.5,1c1.3,0.7,2.3,1.6,3.1,2.8c0.7,1.2,1.1,2.5,1.1,3.9
		c0,2-0.6,3.6-1.7,4.9c-1.1,1.3-2.7,2.3-4.8,3.1l4.1,4c1-1.5,2-3.2,3-5.2l5,2.7c-1.5,2.7-2.9,4.9-4,6.4l4.5,4.5l-5,3.4L-985.2,790.4
		z M-997,782.5c-0.5,0.7-0.7,1.4-0.7,2.3c0,1.1,0.4,1.9,1.2,2.6c0.8,0.7,1.8,1,3.1,1c1.5,0,2.9-0.6,4.4-1.7l-5.9-5.9
		C-995.8,781.2-996.5,781.8-997,782.5z M-989.4,768.4c-0.5-0.5-1.2-0.8-2.1-0.8c-0.9,0-1.6,0.3-2.2,0.9c-0.5,0.6-0.8,1.3-0.8,2.3
		c0,0.7,0.1,1.3,0.4,1.9s0.7,1.2,1.4,2c1.4-0.5,2.4-1.1,3.1-1.7c0.7-0.6,1-1.4,1-2.4C-988.6,769.6-988.9,768.9-989.4,768.4z"/>
	<path class="st17" d="M-939.4,791.3c-2.1,1.7-4.8,2.5-8.2,2.5c-2.4,0-4.7-0.4-6.9-1.2c-2.3-0.8-4.3-2-6.1-3.6l4-4.7
		c1.5,1.2,2.9,2.1,4.4,2.7c1.5,0.6,3.1,1,4.7,1c1.4,0,2.5-0.3,3.3-0.8c0.8-0.5,1.2-1.2,1.2-2.1v-0.1c0-0.6-0.2-1.1-0.5-1.5
		c-0.3-0.4-0.9-0.8-1.8-1.2c-0.9-0.4-2.2-0.8-3.9-1.2c-2.3-0.6-4.2-1.2-5.6-1.9c-1.4-0.7-2.5-1.6-3.3-2.7c-0.8-1.2-1.2-2.7-1.2-4.7
		v-0.1c0-1.8,0.5-3.4,1.4-4.8c0.9-1.4,2.2-2.4,3.8-3.2c1.6-0.8,3.5-1.2,5.6-1.2c4.4,0,8.2,1.3,11.4,3.9l-3.5,5c-2.9-2-5.6-3-8-3
		c-1.3,0-2.2,0.2-2.9,0.7c-0.7,0.5-1,1.1-1,1.9v0.1c0,0.7,0.2,1.2,0.5,1.6c0.4,0.4,1,0.8,1.9,1.2c0.9,0.3,2.3,0.8,4.2,1.2
		c3.3,0.9,5.8,2,7.4,3.3s2.4,3.3,2.4,5.8v0.1C-936.4,787.3-937.4,789.6-939.4,791.3z"/>
	<path class="st17" d="M-901.3,786.1c-1.4,2.4-3.4,4.3-5.9,5.7c-2.5,1.4-5.3,2.1-8.4,2.1c-3.1,0-5.9-0.7-8.4-2.1
		c-2.5-1.4-4.4-3.3-5.8-5.7c-1.4-2.4-2.1-5-2.1-7.9v-0.1c0-2.9,0.7-5.5,2.1-7.9c1.4-2.4,3.4-4.3,5.9-5.7c2.5-1.4,5.3-2.1,8.4-2.1
		c3.1,0,5.9,0.7,8.4,2.1c2.5,1.4,4.4,3.3,5.8,5.7c1.4,2.4,2.1,5,2.1,7.9v0.1C-899.1,781-899.9,783.7-901.3,786.1z M-907.4,773.4
		c-0.8-1.5-1.9-2.6-3.3-3.5c-1.4-0.9-3-1.3-4.8-1.3c-1.8,0-3.4,0.4-4.8,1.3c-1.4,0.8-2.5,2-3.3,3.4s-1.2,3-1.2,4.8v0.1
		c0,1.7,0.4,3.3,1.2,4.8c0.8,1.5,1.9,2.6,3.3,3.5c1.4,0.9,3,1.3,4.8,1.3c1.8,0,3.4-0.4,4.8-1.3c1.4-0.8,2.5-2,3.3-3.4
		c0.8-1.4,1.2-3,1.2-4.8v-0.1C-906.2,776.4-906.6,774.8-907.4,773.4z"/>
	<path class="st17" d="M-886.4,775.5h14.7v6.1h-14.7v11.8h-6.8V763h23.4v6.1h-16.6V775.5z"/>
	<path class="st17" d="M-850.4,793.4h-6.8v-24.2h-9.4V763h25.5v6.2h-9.4V793.4z"/>
	<path class="st17" d="M-808,793.6l-6.9-19.9l-6.9,19.9h-5.9l-10.5-30.6h7.2l6.4,20.6l6.9-20.7h5.8l6.9,20.7l6.4-20.6h7.1
		l-10.5,30.6H-808z"/>
	<path class="st17" d="M-770.5,786.5h-13l-2.8,6.8h-6.9l13.2-30.6h6.2l13.2,30.6h-7.1L-770.5,786.5z M-781,780.6h8.2l-4.1-9.9
		L-781,780.6z"/>
	<path class="st17" d="M-743.8,783.6h-5.3v9.7h-6.8V763h14.1c3.6,0,6.5,0.9,8.5,2.7c2,1.8,3.1,4.2,3.1,7.4v0.1
		c0,2.4-0.6,4.3-1.8,5.9c-1.2,1.6-2.8,2.7-4.8,3.5l7.5,10.9h-7.9L-743.8,783.6z M-738.4,770.1c-0.9-0.7-2.2-1.1-3.9-1.1h-6.7v8.7
		h6.9c1.6,0,2.9-0.4,3.8-1.2c0.9-0.8,1.4-1.8,1.4-3.1v-0.1C-737,771.9-737.5,770.9-738.4,770.1z"/>
	<path class="st17" d="M-724.1,763h23.2v5.9h-16.5v6.2h14.5v5.9h-14.5v6.4h16.7v5.9h-23.4V763z"/>
	<path class="st17" d="M-662.3,791.3c-2.1,1.7-4.8,2.5-8.2,2.5c-2.4,0-4.7-0.4-6.9-1.2c-2.3-0.8-4.3-2-6.1-3.6l4-4.7
		c1.5,1.2,2.9,2.1,4.4,2.7c1.5,0.6,3.1,1,4.7,1c1.4,0,2.5-0.3,3.2-0.8c0.8-0.5,1.2-1.2,1.2-2.1v-0.1c0-0.6-0.2-1.1-0.5-1.5
		s-0.9-0.8-1.8-1.2c-0.9-0.4-2.2-0.8-3.9-1.2c-2.3-0.6-4.2-1.2-5.6-1.9c-1.4-0.7-2.5-1.6-3.3-2.7c-0.8-1.2-1.2-2.7-1.2-4.7v-0.1
		c0-1.8,0.5-3.4,1.4-4.8c0.9-1.4,2.2-2.4,3.8-3.2c1.6-0.8,3.5-1.2,5.6-1.2c4.4,0,8.2,1.3,11.4,3.9l-3.5,5c-2.9-2-5.6-3-8-3
		c-1.3,0-2.2,0.2-2.9,0.7c-0.7,0.5-1,1.1-1,1.9v0.1c0,0.7,0.2,1.2,0.5,1.6s1,0.8,1.9,1.2c0.9,0.3,2.3,0.8,4.2,1.2
		c3.3,0.9,5.8,2,7.4,3.3c1.6,1.3,2.4,3.3,2.4,5.8v0.1C-659.2,787.3-660.3,789.6-662.3,791.3z"/>
	<path class="st17" d="M-624.2,786.1c-1.4,2.4-3.4,4.3-5.9,5.7c-2.5,1.4-5.3,2.1-8.4,2.1s-5.9-0.7-8.4-2.1c-2.5-1.4-4.4-3.3-5.8-5.7
		c-1.4-2.4-2.1-5-2.1-7.9v-0.1c0-2.9,0.7-5.5,2.1-7.9c1.4-2.4,3.4-4.3,5.9-5.7c2.5-1.4,5.3-2.1,8.4-2.1c3.1,0,5.9,0.7,8.4,2.1
		s4.4,3.3,5.8,5.7c1.4,2.4,2.1,5,2.1,7.9v0.1C-622,781-622.8,783.7-624.2,786.1z M-630.3,773.4c-0.8-1.5-1.9-2.6-3.3-3.5
		c-1.4-0.9-3-1.3-4.8-1.3s-3.4,0.4-4.8,1.3s-2.5,2-3.3,3.4c-0.8,1.4-1.2,3-1.2,4.8v0.1c0,1.7,0.4,3.3,1.2,4.8
		c0.8,1.5,1.9,2.6,3.3,3.5c1.4,0.9,3,1.3,4.8,1.3s3.4-0.4,4.8-1.3c1.4-0.8,2.5-2,3.3-3.4c0.8-1.4,1.2-3,1.2-4.8v-0.1
		C-629.1,776.4-629.5,774.8-630.3,773.4z"/>
	<path class="st17" d="M-616,763h6.8v24.3h15.3v6.1H-616V763z"/>
	<path class="st17" d="M-567,790.4c-2.4,2.3-5.7,3.5-9.9,3.5c-4.2,0-7.5-1.2-9.8-3.5c-2.3-2.3-3.5-5.7-3.5-10.1V763h6.8v17.2
		c0,2.4,0.6,4.3,1.7,5.6c1.2,1.3,2.8,1.9,4.9,1.9s3.7-0.6,4.9-1.9c1.2-1.2,1.7-3.1,1.7-5.4V763h6.8v17.1
		C-563.4,784.6-564.6,788.1-567,790.4z"/>
	<path class="st17" d="M-542.6,793.4h-6.8v-24.2h-9.4V763h25.5v6.2h-9.4V793.4z"/>
	<path class="st17" d="M-527.7,763h6.8v30.4h-6.8V763z"/>
	<path class="st17" d="M-484.1,786.1c-1.4,2.4-3.4,4.3-5.9,5.7c-2.5,1.4-5.3,2.1-8.4,2.1s-5.9-0.7-8.4-2.1c-2.5-1.4-4.4-3.3-5.8-5.7
		c-1.4-2.4-2.1-5-2.1-7.9v-0.1c0-2.9,0.7-5.5,2.1-7.9c1.4-2.4,3.4-4.3,5.9-5.7c2.5-1.4,5.3-2.1,8.4-2.1c3.1,0,5.9,0.7,8.4,2.1
		s4.4,3.3,5.8,5.7c1.4,2.4,2.1,5,2.1,7.9v0.1C-482,781-482.7,783.7-484.1,786.1z M-490.3,773.4c-0.8-1.5-1.9-2.6-3.3-3.5
		c-1.4-0.9-3-1.3-4.8-1.3s-3.4,0.4-4.8,1.3s-2.5,2-3.3,3.4c-0.8,1.4-1.2,3-1.2,4.8v0.1c0,1.7,0.4,3.3,1.2,4.8
		c0.8,1.5,1.9,2.6,3.3,3.5c1.4,0.9,3,1.3,4.8,1.3s3.4-0.4,4.8-1.3c1.4-0.8,2.5-2,3.3-3.4c0.8-1.4,1.2-3,1.2-4.8v-0.1
		C-489,776.4-489.5,774.8-490.3,773.4z"/>
	<path class="st17" d="M-469.3,774v19.3h-6.7V763h6.2l14.4,18.7V763h6.7v30.4h-5.8L-469.3,774z"/>
</g>
<g>
</g>
<g>
</g>
<g>
</g>
<g>
</g>
<g>
</g>
<g>
</g>
</svg>
