<?xml version="1.0" encoding="utf-8"?>
<!-- Generator: Adobe Illustrator 27.3.1, SVG Export Plug-In . SVG Version: 6.00 Build 0)  -->
<svg version="1.1" id="Layer_1" xmlns="http://www.w3.org/2000/svg" xmlns:xlink="http://www.w3.org/1999/xlink" x="0px" y="0px"
	 viewBox="0 0 1000 1133.9" style="enable-background:new 0 0 1000 1133.9;" xml:space="preserve">
<style type="text/css">
	.st0{fill:#4364F7;}
	.st1{fill:url(#SVGID_1_);}
	.st2{fill:url(#SVGID_00000111896324155133406940000008262206728259344788_);}
	.st3{fill:url(#SVGID_00000175297552366372294970000009395580988289680829_);}
	.st4{fill:url(#SVGID_00000130627069608665472670000014542045290294465449_);}
	.st5{fill:url(#SVGID_00000005970093492894158600000013893159655391507121_);}
	.st6{fill:url(#SVGID_00000139991806320887605780000007358610160134586800_);}
	.st7{fill:url(#SVGID_00000034805314314208581040000006748964995228378555_);}
	.st8{fill:url(#SVGID_00000013193429438282330900000017710889989821397632_);}
	.st9{fill:url(#SVGID_00000102542902256915641850000012572651540627324576_);}
	.st10{fill:url(#SVGID_00000028301961271100763730000011407545726410320276_);}
	.st11{fill:url(#SVGID_00000080926926897217013580000000525925921835594415_);}
	.st12{fill:url(#SVGID_00000072977943606426271010000007370012080167403191_);}
	.st13{fill:#3F54FB;}
	.st14{fill:#6DADFC;}
	.st15{fill-rule:evenodd;clip-rule:evenodd;fill:url(#SVGID_00000013888369332320786590000017303251442397394058_);}
	.st16{fill-rule:evenodd;clip-rule:evenodd;fill:url(#SVGID_00000046317543741589298310000002916169403111312310_);}
	.st17{fill:#58595B;}
	.st18{fill:url(#SVGID_00000160174590726852808880000017272789249511271849_);}
	.st19{fill:url(#SVGID_00000108279290987926628140000014818466971468676263_);}
	.st20{fill:url(#SVGID_00000104666716683851630980000014906347832327529401_);}
	.st21{fill:url(#SVGID_00000110465310879949987200000003811231535242789542_);}
	.st22{fill:url(#SVGID_00000167397448326547916960000005414968424254711967_);}
	.st23{fill:url(#SVGID_00000121998751918481983890000016535757257818158229_);}
	.st24{fill:url(#SVGID_00000060718992161892121940000001980912388559402932_);}
	.st25{fill:url(#SVGID_00000046339465033430409850000012644223676371838602_);}
	.st26{fill:url(#SVGID_00000138569230439327508010000015017539852988058511_);}
	.st27{fill:url(#SVGID_00000134209208268819015240000009849476275076763028_);}
	.st28{fill:url(#SVGID_00000003800072981062413550000005230454012146440353_);}
	.st29{fill:url(#SVGID_00000119814661663456921970000002692913948281302169_);}
	.st30{fill-rule:evenodd;clip-rule:evenodd;fill:url(#SVGID_00000098189492165434356900000002802363379616225182_);}
	.st31{fill-rule:evenodd;clip-rule:evenodd;fill:url(#SVGID_00000158709477827359437820000007527523825315985796_);}
</style>
<rect x="-26.7" y="-224.5" class="st0" width="288.4" height="144.6"/>
<g>
	<g>
		
			<linearGradient id="SVGID_1_" gradientUnits="userSpaceOnUse" x1="-3411.5422" y1="-670.7132" x2="-3334.9595" y2="-667.6694" gradientTransform="matrix(-1 0 0 -1 -1582.24 -151.9573)">
			<stop  offset="0" style="stop-color:#4364F7"/>
			<stop  offset="0.2068" style="stop-color:#486DF8"/>
			<stop  offset="0.5487" style="stop-color:#5786F9"/>
			<stop  offset="0.9814" style="stop-color:#6EAFFC"/>
			<stop  offset="1" style="stop-color:#6FB1FC"/>
		</linearGradient>
		<polygon class="st1" points="1790.8,565.4 1790.8,470.8 1815.1,457.8 1815.2,578.6 		"/>
		
			<linearGradient id="SVGID_00000114765829156131979210000017115385290442959245_" gradientUnits="userSpaceOnUse" x1="-3366.5449" y1="-778.3733" x2="-3337.5859" y2="-737.0156" gradientTransform="matrix(-1 0 0 -1 -1582.24 -151.9573)">
			<stop  offset="3.018417e-02" style="stop-color:#4364F7"/>
			<stop  offset="0.318" style="stop-color:#4E77F8"/>
			<stop  offset="0.8987" style="stop-color:#6AA8FB"/>
			<stop  offset="1" style="stop-color:#6FB1FC"/>
		</linearGradient>
		<polygon style="fill:url(#SVGID_00000114765829156131979210000017115385290442959245_);" points="1727,658 1727,626.5 
			1815.2,578.6 1839.5,591.9 		"/>
		
			<linearGradient id="SVGID_00000067204865548548995790000014569069147344708756_" gradientUnits="userSpaceOnUse" x1="-3356.0664" y1="-758.6154" x2="-3329.1809" y2="-718.756" gradientTransform="matrix(-1 0 0 -1 -1582.24 -151.9573)">
			<stop  offset="0" style="stop-color:#4364F7"/>
			<stop  offset="0.1988" style="stop-color:#466AF7"/>
			<stop  offset="0.4652" style="stop-color:#507BF8"/>
			<stop  offset="0.7684" style="stop-color:#6097FA"/>
			<stop  offset="1" style="stop-color:#6FB1FC"/>
		</linearGradient>
		<polygon style="fill:url(#SVGID_00000067204865548548995790000014569069147344708756_);" points="1727,626.5 1727,597.8 
			1790.8,565.4 1815.2,578.6 		"/>
		
			<linearGradient id="SVGID_00000013174873508462185830000004795127026766070964_" gradientUnits="userSpaceOnUse" x1="-3361.4167" y1="-557.3877" x2="-3296.3254" y2="-640.5709" gradientTransform="matrix(-1 0 0 -1 -1582.24 -151.9573)">
			<stop  offset="0.1977" style="stop-color:#4364F7"/>
			<stop  offset="0.6858" style="stop-color:#6FB1FC"/>
		</linearGradient>
		<polygon style="fill:url(#SVGID_00000013174873508462185830000004795127026766070964_);" points="1709.5,425 1709.5,396.3 
			1815.1,457.8 1790.8,470.8 1790.8,470.6 		"/>
		
			<linearGradient id="SVGID_00000006679787368828712970000004143445785940666006_" gradientUnits="userSpaceOnUse" x1="-3384.2871" y1="-525.3392" x2="-3286.5195" y2="-645.5592" gradientTransform="matrix(-1 0 0 -1 -1582.24 -151.9573)">
			<stop  offset="0.1681" style="stop-color:#4364F7"/>
			<stop  offset="0.2501" style="stop-color:#4669F7"/>
			<stop  offset="0.3501" style="stop-color:#4E78F8"/>
			<stop  offset="0.4592" style="stop-color:#5D91FA"/>
			<stop  offset="0.5687" style="stop-color:#6FB1FC"/>
		</linearGradient>
		<polygon style="fill:url(#SVGID_00000006679787368828712970000004143445785940666006_);" points="1709.5,396.3 1709.5,369.9 
			1838.1,443.8 1839.5,444.6 1815.1,457.8 		"/>
		
			<linearGradient id="SVGID_00000092443864653549363690000000144754050862510260_" gradientUnits="userSpaceOnUse" x1="-3419.5134" y1="-669.8577" x2="-3390.1052" y2="-665.4393" gradientTransform="matrix(-1 0 0 -1 -1582.24 -151.9573)">
			<stop  offset="3.018417e-02" style="stop-color:#4364F7"/>
			<stop  offset="1" style="stop-color:#6FB1FC"/>
		</linearGradient>
		<polygon style="fill:url(#SVGID_00000092443864653549363690000000144754050862510260_);" points="1815.1,457.8 1839.5,444.6 
			1839.5,591.9 1815.2,578.6 		"/>
	</g>
	<g>
		
			<linearGradient id="SVGID_00000003078665484218895980000003202241857378509717_" gradientUnits="userSpaceOnUse" x1="1589.6536" y1="522.0534" x2="1666.2363" y2="525.0972">
			<stop  offset="0" style="stop-color:#4364F7"/>
			<stop  offset="0.2068" style="stop-color:#486DF8"/>
			<stop  offset="0.5487" style="stop-color:#5786F9"/>
			<stop  offset="0.9814" style="stop-color:#6EAFFC"/>
			<stop  offset="1" style="stop-color:#6FB1FC"/>
		</linearGradient>
		<polygon style="fill:url(#SVGID_00000003078665484218895980000003202241857378509717_);" points="1628.2,475.4 1628.2,570 
			1603.9,583.1 1603.8,462.2 		"/>
		
			<linearGradient id="SVGID_00000150792384038960609050000008835026120943979965_" gradientUnits="userSpaceOnUse" x1="1634.6508" y1="414.3933" x2="1663.6097" y2="455.751">
			<stop  offset="3.018417e-02" style="stop-color:#4364F7"/>
			<stop  offset="0.318" style="stop-color:#4E77F8"/>
			<stop  offset="0.8987" style="stop-color:#6AA8FB"/>
			<stop  offset="1" style="stop-color:#6FB1FC"/>
		</linearGradient>
		<polygon style="fill:url(#SVGID_00000150792384038960609050000008835026120943979965_);" points="1692,382.9 1692,414.3 
			1603.8,462.2 1579.4,449 		"/>
		
			<linearGradient id="SVGID_00000127727803177868347910000000820961494959112064_" gradientUnits="userSpaceOnUse" x1="1645.1294" y1="434.1512" x2="1672.0149" y2="474.0106">
			<stop  offset="0" style="stop-color:#4364F7"/>
			<stop  offset="0.1988" style="stop-color:#466AF7"/>
			<stop  offset="0.4652" style="stop-color:#507BF8"/>
			<stop  offset="0.7684" style="stop-color:#6097FA"/>
			<stop  offset="1" style="stop-color:#6FB1FC"/>
		</linearGradient>
		<polygon style="fill:url(#SVGID_00000127727803177868347910000000820961494959112064_);" points="1692,414.3 1692,443 
			1628.2,475.4 1603.8,462.2 		"/>
		
			<linearGradient id="SVGID_00000048492076262046357410000007918927802453815734_" gradientUnits="userSpaceOnUse" x1="1639.7791" y1="635.3789" x2="1704.8702" y2="552.1957">
			<stop  offset="0.1977" style="stop-color:#4364F7"/>
			<stop  offset="0.6858" style="stop-color:#6FB1FC"/>
		</linearGradient>
		<polygon style="fill:url(#SVGID_00000048492076262046357410000007918927802453815734_);" points="1709.5,615.8 1709.5,644.5 
			1603.9,583.1 1628.2,570 1628.2,570.2 		"/>
		
			<linearGradient id="SVGID_00000096764906300510351590000003335945520325320842_" gradientUnits="userSpaceOnUse" x1="1616.9088" y1="667.4274" x2="1714.6764" y2="547.2074">
			<stop  offset="0.1681" style="stop-color:#4364F7"/>
			<stop  offset="0.2501" style="stop-color:#4669F7"/>
			<stop  offset="0.3501" style="stop-color:#4E78F8"/>
			<stop  offset="0.4592" style="stop-color:#5D91FA"/>
			<stop  offset="0.5687" style="stop-color:#6FB1FC"/>
		</linearGradient>
		<polygon style="fill:url(#SVGID_00000096764906300510351590000003335945520325320842_);" points="1709.5,644.5 1709.5,670.9 
			1580.8,597 1579.4,596.2 1603.9,583.1 		"/>
		
			<linearGradient id="SVGID_00000011735447177995768390000008033583167904077468_" gradientUnits="userSpaceOnUse" x1="1581.6823" y1="522.9089" x2="1611.0907" y2="527.3273">
			<stop  offset="3.018417e-02" style="stop-color:#4364F7"/>
			<stop  offset="1" style="stop-color:#6FB1FC"/>
		</linearGradient>
		<polygon style="fill:url(#SVGID_00000011735447177995768390000008033583167904077468_);" points="1603.9,583.1 1579.4,596.2 
			1579.4,449 1603.8,462.2 		"/>
	</g>
	<polygon class="st13" points="1707.8,475 1707.8,524.6 1628.2,570 1579.4,596.2 1579.4,549.6 1628.2,521.3 	"/>
	<polygon class="st14" points="1839.5,444.6 1839.5,491 1790.8,519.3 1711.2,565.6 1711.2,516 1790.8,470.6 1790.8,470.6 	"/>
	
		<linearGradient id="SVGID_00000162333997453835779180000009964062323169723324_" gradientUnits="userSpaceOnUse" x1="1678.6127" y1="464.1388" x2="1678.6127" y2="288.1504">
		<stop  offset="0.136" style="stop-color:#4364F7"/>
		<stop  offset="0.4956" style="stop-color:#4364F7"/>
		<stop  offset="1" style="stop-color:#6FB1FC"/>
	</linearGradient>
	
		<polygon style="fill-rule:evenodd;clip-rule:evenodd;fill:url(#SVGID_00000162333997453835779180000009964062323169723324_);" points="
		1692,443 1665.2,428.9 1692,382.9 	"/>
	
		<linearGradient id="SVGID_00000167392345330654955420000010442649277264540597_" gradientUnits="userSpaceOnUse" x1="-3386.6208" y1="-277.918" x2="-3386.6208" y2="-453.9064" gradientTransform="matrix(-1 0 0 -1 -1646.2778 298.7526)">
		<stop  offset="0.136" style="stop-color:#4364F7"/>
		<stop  offset="0.4956" style="stop-color:#4364F7"/>
		<stop  offset="1" style="stop-color:#6FB1FC"/>
	</linearGradient>
	
		<polygon style="fill-rule:evenodd;clip-rule:evenodd;fill:url(#SVGID_00000167392345330654955420000010442649277264540597_);" points="
		1727,597.8 1753.7,611.9 1727,658 	"/>
</g>
<g>
	<g>
		<path class="st0" d="M1988,477.9l19.1,9.8c-7.1,11.2-22.4,19.9-43,19.9c-28.8,0-48.1-14.9-48.1-40.6s19.4-40.6,49-40.6
			c19.7,0,35,8.9,41.8,19.8l-19.2,9.8c-5-7.8-12.7-11.5-23-11.5c-15.7,0-26.1,7.9-26.1,22.5s10.5,22.5,26.1,22.5
			C1974.8,489.5,1982.6,486,1988,477.9z"/>
		<path class="st0" d="M2087.1,505.1l-20.1-24.1h-22.4v24.1h-22.1v-76.2h53.5c19.5,0,34.6,8.6,34.6,26c0,12.7-8.1,20.8-20,24.3
			l22.4,25.9H2087.1z M2074.2,464.9c7.9,0,13.7-2.2,13.7-9.6s-5.8-9.6-13.7-9.6h-29.8v19.2H2074.2z"/>
		<path class="st0" d="M2210.5,488.1v17h-81.3v-76.2h80.2v17H2151v12.5h48v16.2h-48v13.5H2210.5z"/>
		<path class="st0" d="M2291.2,490.5h-41.8l-7.2,14.6h-23.3l39.4-76.2h24.3l39.4,76.2h-23.6L2291.2,490.5z M2283.4,474.7l-13.2-27
			l-13.3,27H2283.4z"/>
		<path class="st0" d="M2401.1,446.6h-31.7v58.5h-22.2v-58.5h-31.5v-17.8h85.4V446.6z"/>
		<path class="st0" d="M2416,505.1v-76.2h22.2v76.2H2416z"/>
		<path class="st0" d="M2475.1,428.9l25.2,54.9l25-54.9h23.7l-37.4,76.2h-23.3l-37.2-76.2H2475.1z"/>
		<path class="st0" d="M2643.1,488.1v17h-81.3v-76.2h80.2v17h-58.3v12.5h48v16.2h-48v13.5H2643.1z"/>
		<path class="st0" d="M2693.7,505.1v-76.2h22.2v76.2H2693.7z"/>
		<path class="st0" d="M2816.4,446.6h-31.7v58.5h-22.2v-58.5H2731v-17.8h85.4V446.6z"/>
	</g>
	<g>
		<path class="st17" d="M1953,591.4l-9.2-26.3l-9.2,26.3h-7.8l-13.9-40.4h9.6l8.4,27.2l9.1-27.3h7.7l9.1,27.3l8.4-27.2h9.3
			l-13.9,40.4H1953z"/>
		<path class="st17" d="M1981.3,551h30.6v7.9h-21.8v8.1h19.2v7.9h-19.2v8.4h22.1v7.9h-30.9V551z"/>
		<path class="st17" d="M2050.7,588.3c-2.7,1.9-6.4,2.8-11.1,2.8h-19.3V551h18.9c4.1,0,7.4,0.9,9.8,2.8c2.4,1.9,3.6,4.4,3.6,7.6v0.1
			c0,3.8-1.8,6.7-5.3,8.7c2.5,1,4.4,2.2,5.7,3.7c1.3,1.5,1.9,3.6,1.9,6.1v0.1C2054.7,583.7,2053.4,586.4,2050.7,588.3z
			 M2042.1,559.8c-1-0.7-2.5-1.1-4.4-1.1h-8.8v8.5h8.2c2.1,0,3.6-0.3,4.8-1c1.1-0.7,1.7-1.8,1.7-3.2v-0.1
			C2043.6,561.5,2043.1,560.5,2042.1,559.8z M2044.2,575.7c-1.1-0.8-2.7-1.1-5-1.1h-10.3v8.8h10.6c2,0,3.6-0.4,4.7-1.1
			c1.1-0.7,1.7-1.8,1.7-3.3v-0.1C2045.9,577.5,2045.3,576.5,2044.2,575.7z"/>
		<path class="st17" d="M2102.2,587.2c-3.7,3-7.6,4.5-11.9,4.5c-2.6,0-4.9-0.5-7-1.4c-2.1-1-3.7-2.3-4.9-4.1
			c-1.2-1.8-1.8-3.8-1.8-6.1c0-5,2.6-8.7,7.9-11.1c-1-1.4-1.7-2.8-2.2-4c-0.4-1.3-0.7-2.6-0.7-4c0-1.9,0.5-3.6,1.5-5.2
			c1-1.6,2.4-2.9,4.3-3.9c1.9-1,4-1.5,6.6-1.5c2.2,0,4.2,0.4,6,1.3c1.7,0.9,3.1,2.1,4,3.6c0.9,1.5,1.4,3.3,1.4,5.2
			c0,2.6-0.7,4.8-2.2,6.5c-1.5,1.7-3.6,3.1-6.3,4.1l5.4,5.3c1.3-2,2.6-4.3,3.9-6.9l6.6,3.6c-2,3.6-3.8,6.4-5.3,8.5l6,5.9l-6.6,4.5
			L2102.2,587.2z M2086.5,576.7c-0.6,0.9-0.9,1.9-0.9,3c0,1.4,0.5,2.6,1.6,3.4s2.4,1.3,4.1,1.3c1.9,0,3.9-0.8,5.9-2.3l-7.8-7.8
			C2088.1,575,2087.2,575.8,2086.5,576.7z M2096.6,558.2c-0.7-0.7-1.6-1-2.8-1c-1.2,0-2.2,0.4-2.9,1.1c-0.7,0.8-1.1,1.8-1.1,3
			c0,0.9,0.2,1.7,0.6,2.5c0.4,0.8,1,1.6,1.8,2.6c1.9-0.7,3.2-1.4,4.1-2.3c0.9-0.8,1.3-1.9,1.3-3.1
			C2097.6,559.8,2097.3,558.8,2096.6,558.2z"/>
		<path class="st17" d="M2162.6,588.4c-2.7,2.2-6.3,3.3-10.8,3.3c-3.1,0-6.2-0.5-9.2-1.6c-3-1.1-5.7-2.7-8.1-4.8l5.3-6.3
			c1.9,1.6,3.9,2.8,5.9,3.6c2,0.8,4.1,1.3,6.3,1.3c1.8,0,3.2-0.3,4.3-1c1-0.7,1.6-1.6,1.6-2.8V580c0-0.8-0.2-1.5-0.6-2
			c-0.4-0.5-1.2-1-2.4-1.5c-1.2-0.5-2.9-1-5.1-1.6c-3.1-0.8-5.6-1.6-7.5-2.5s-3.3-2.1-4.4-3.6c-1.1-1.5-1.6-3.6-1.6-6.2v-0.1
			c0-2.4,0.6-4.5,1.8-6.3c1.2-1.8,2.9-3.2,5-4.2c2.1-1,4.6-1.5,7.3-1.5c5.8,0,10.8,1.7,15.1,5.1l-4.6,6.7c-3.8-2.6-7.4-4-10.6-4
			c-1.7,0-3,0.3-3.9,1c-0.9,0.7-1.4,1.5-1.4,2.5v0.1c0,0.9,0.2,1.6,0.7,2.2c0.5,0.6,1.3,1.1,2.5,1.5s3,1,5.5,1.6
			c4.4,1.1,7.7,2.6,9.8,4.4c2.1,1.8,3.1,4.3,3.1,7.7v0.1C2166.7,583.1,2165.3,586.2,2162.6,588.4z"/>
		<path class="st17" d="M2213,581.5c-1.9,3.2-4.5,5.7-7.7,7.5c-3.3,1.9-7,2.8-11.1,2.8c-4.1,0-7.8-0.9-11.1-2.8
			c-3.3-1.8-5.8-4.3-7.7-7.5s-2.8-6.6-2.8-10.4V571c0-3.8,0.9-7.3,2.8-10.4c1.9-3.2,4.5-5.7,7.7-7.5c3.3-1.9,7-2.8,11.1-2.8
			c4.1,0,7.8,0.9,11.1,2.8c3.3,1.8,5.8,4.3,7.7,7.5c1.9,3.2,2.8,6.6,2.8,10.4v0.1C2215.9,574.8,2214.9,578.3,2213,581.5z
			 M2204.9,564.7c-1.1-1.9-2.5-3.5-4.4-4.6c-1.9-1.1-4-1.7-6.3-1.7c-2.4,0-4.5,0.6-6.3,1.7c-1.8,1.1-3.3,2.6-4.3,4.5
			c-1,1.9-1.6,4-1.6,6.3v0.1c0,2.3,0.5,4.4,1.6,6.3c1.1,1.9,2.5,3.5,4.4,4.6c1.9,1.1,4,1.7,6.3,1.7c2.4,0,4.5-0.6,6.3-1.7
			s3.3-2.6,4.3-4.5c1-1.9,1.6-4,1.6-6.3V571C2206.5,568.7,2206,566.6,2204.9,564.7z"/>
		<path class="st17" d="M2232.7,567.5h19.4v8h-19.4v15.5h-8.9V551h30.9v8h-22V567.5z"/>
		<path class="st17" d="M2280.3,591.1h-8.9v-32H2259V551h33.7v8.1h-12.4V591.1z"/>
		<path class="st17" d="M2336.3,591.4l-9.2-26.3l-9.2,26.3h-7.8l-13.9-40.4h9.6l8.4,27.2l9.1-27.3h7.7l9.1,27.3l8.4-27.2h9.3
			l-13.9,40.4H2336.3z"/>
		<path class="st17" d="M2385.9,582.1h-17.2l-3.7,9h-9.1l17.4-40.4h8.2l17.4,40.4h-9.3L2385.9,582.1z M2371.9,574.3h10.8l-5.4-13
			L2371.9,574.3z"/>
		<path class="st17" d="M2421.2,578.3h-7v12.9h-8.9V551h18.6c4.8,0,8.6,1.2,11.3,3.5c2.7,2.4,4.1,5.6,4.1,9.7v0.1
			c0,3.1-0.8,5.7-2.3,7.8c-1.5,2.1-3.7,3.6-6.4,4.6l9.9,14.3h-10.4L2421.2,578.3z M2428.2,560.4c-1.2-1-3-1.5-5.2-1.5h-8.9v11.5h9.1
			c2.1,0,3.8-0.5,5-1.5c1.2-1,1.8-2.4,1.8-4.1v-0.1C2430.1,562.8,2429.5,561.4,2428.2,560.4z"/>
		<path class="st17" d="M2447.2,551h30.6v7.9h-21.8v8.1h19.2v7.9h-19.2v8.4h22.1v7.9h-30.9V551z"/>
		<path class="st17" d="M2528.8,588.4c-2.7,2.2-6.3,3.3-10.8,3.3c-3.1,0-6.2-0.5-9.2-1.6c-3-1.1-5.7-2.7-8.1-4.8l5.3-6.3
			c1.9,1.6,3.9,2.8,5.9,3.6c2,0.8,4.1,1.3,6.3,1.3c1.8,0,3.2-0.3,4.3-1c1-0.7,1.6-1.6,1.6-2.8V580c0-0.8-0.2-1.5-0.6-2
			c-0.4-0.5-1.2-1-2.4-1.5c-1.2-0.5-2.9-1-5.1-1.6c-3.1-0.8-5.6-1.6-7.5-2.5s-3.3-2.1-4.4-3.6c-1.1-1.5-1.6-3.6-1.6-6.2v-0.1
			c0-2.4,0.6-4.5,1.8-6.3c1.2-1.8,2.9-3.2,5-4.2c2.1-1,4.6-1.5,7.3-1.5c5.8,0,10.8,1.7,15.1,5.1l-4.6,6.7c-3.8-2.6-7.4-4-10.6-4
			c-1.7,0-3,0.3-3.9,1c-0.9,0.7-1.4,1.5-1.4,2.5v0.1c0,0.9,0.2,1.6,0.7,2.2c0.5,0.6,1.3,1.1,2.5,1.5s3,1,5.5,1.6
			c4.4,1.1,7.7,2.6,9.8,4.4c2.1,1.8,3.1,4.3,3.1,7.7v0.1C2532.9,583.1,2531.5,586.2,2528.8,588.4z"/>
		<path class="st17" d="M2579.2,581.5c-1.9,3.2-4.5,5.7-7.7,7.5c-3.3,1.9-7,2.8-11.1,2.8c-4.1,0-7.8-0.9-11.1-2.8
			c-3.3-1.8-5.8-4.3-7.7-7.5s-2.8-6.6-2.8-10.4V571c0-3.8,0.9-7.3,2.8-10.4c1.9-3.2,4.5-5.7,7.7-7.5c3.3-1.9,7-2.8,11.1-2.8
			c4.1,0,7.8,0.9,11.1,2.8c3.3,1.8,5.8,4.3,7.7,7.5c1.9,3.2,2.8,6.6,2.8,10.4v0.1C2582,574.8,2581.1,578.3,2579.2,581.5z
			 M2571.1,564.7c-1.1-1.9-2.5-3.5-4.4-4.6c-1.9-1.1-4-1.7-6.3-1.7c-2.4,0-4.5,0.6-6.3,1.7c-1.8,1.1-3.3,2.6-4.3,4.5
			c-1,1.9-1.6,4-1.6,6.3v0.1c0,2.3,0.5,4.4,1.6,6.3c1.1,1.9,2.5,3.5,4.4,4.6c1.9,1.1,4,1.7,6.3,1.7c2.4,0,4.5-0.6,6.3-1.7
			s3.3-2.6,4.3-4.5c1-1.9,1.6-4,1.6-6.3V571C2572.7,568.7,2572.2,566.6,2571.1,564.7z"/>
		<path class="st17" d="M2590,551h8.9v32.1h20.3v8H2590V551z"/>
		<path class="st17" d="M2654.8,587.2c-3.2,3.1-7.5,4.6-13.1,4.6c-5.5,0-9.8-1.5-12.9-4.6c-3.1-3-4.6-7.5-4.6-13.3V551h8.9v22.7
			c0,3.2,0.8,5.7,2.3,7.4c1.5,1.7,3.7,2.6,6.5,2.6s4.9-0.8,6.5-2.5c1.5-1.6,2.3-4,2.3-7.2v-23h8.9v22.7
			C2659.5,579.6,2657.9,584.1,2654.8,587.2z"/>
		<path class="st17" d="M2687,591.1h-8.9v-32h-12.4V551h33.7v8.1H2687V591.1z"/>
		<path class="st17" d="M2706.6,551h8.9v40.2h-8.9V551z"/>
		<path class="st17" d="M2764.3,581.5c-1.9,3.2-4.5,5.7-7.7,7.5c-3.3,1.9-7,2.8-11.1,2.8c-4.1,0-7.8-0.9-11.1-2.8
			c-3.3-1.8-5.8-4.3-7.7-7.5s-2.8-6.6-2.8-10.4V571c0-3.8,0.9-7.3,2.8-10.4c1.9-3.2,4.5-5.7,7.7-7.5c3.3-1.9,7-2.8,11.1-2.8
			c4.1,0,7.8,0.9,11.1,2.8c3.3,1.8,5.8,4.3,7.7,7.5c1.9,3.2,2.8,6.6,2.8,10.4v0.1C2767.1,574.8,2766.2,578.3,2764.3,581.5z
			 M2756.2,564.7c-1.1-1.9-2.5-3.5-4.4-4.6c-1.9-1.1-4-1.7-6.3-1.7c-2.4,0-4.5,0.6-6.3,1.7c-1.8,1.1-3.3,2.6-4.3,4.5
			c-1,1.9-1.6,4-1.6,6.3v0.1c0,2.3,0.5,4.4,1.6,6.3c1.1,1.9,2.5,3.5,4.4,4.6c1.9,1.1,4,1.7,6.3,1.7c2.4,0,4.5-0.6,6.3-1.7
			s3.3-2.6,4.3-4.5c1-1.9,1.6-4,1.6-6.3V571C2757.8,568.7,2757.2,566.6,2756.2,564.7z"/>
		<path class="st17" d="M2783.9,565.6v25.5h-8.8V551h8.2l19,24.7V551h8.8v40.2h-7.6L2783.9,565.6z"/>
	</g>
</g>
<rect x="330.7" y="-224.5" class="st14" width="306.7" height="144.6"/>
<g>
	
		<linearGradient id="SVGID_00000179640598545287061620000000040909851417314953_" gradientUnits="userSpaceOnUse" x1="-2476.1833" y1="-711.9211" x2="-2222.8247" y2="-701.8512" gradientTransform="matrix(-1 0 0 -1 -1582.24 -151.9573)">
		<stop  offset="0" style="stop-color:#4364F7"/>
		<stop  offset="0.2068" style="stop-color:#486DF8"/>
		<stop  offset="0.5487" style="stop-color:#5786F9"/>
		<stop  offset="0.9814" style="stop-color:#6EAFFC"/>
		<stop  offset="1" style="stop-color:#6FB1FC"/>
	</linearGradient>
	<polygon style="fill:url(#SVGID_00000179640598545287061620000000040909851417314953_);" points="766.5,714.3 766.5,401.4 
		847,358.1 847.1,758.1 	"/>
	
		<linearGradient id="SVGID_00000072959788552841581010000009968895726677026949_" gradientUnits="userSpaceOnUse" x1="-2327.3193" y1="-1068.0925" x2="-2231.5144" y2="-931.269" gradientTransform="matrix(-1 0 0 -1 -1582.24 -151.9573)">
		<stop  offset="3.018417e-02" style="stop-color:#4364F7"/>
		<stop  offset="0.318" style="stop-color:#4E77F8"/>
		<stop  offset="0.8987" style="stop-color:#6AA8FB"/>
		<stop  offset="1" style="stop-color:#6FB1FC"/>
	</linearGradient>
	<polygon style="fill:url(#SVGID_00000072959788552841581010000009968895726677026949_);" points="555.4,1020.5 555.4,916.3 
		847.1,758.1 927.8,801.8 	"/>
	
		<linearGradient id="SVGID_00000168113613199991290690000011366669047076359049_" gradientUnits="userSpaceOnUse" x1="-2292.6528" y1="-1002.7277" x2="-2203.7075" y2="-870.8609" gradientTransform="matrix(-1 0 0 -1 -1582.24 -151.9573)">
		<stop  offset="0" style="stop-color:#4364F7"/>
		<stop  offset="0.1988" style="stop-color:#466AF7"/>
		<stop  offset="0.4652" style="stop-color:#507BF8"/>
		<stop  offset="0.7684" style="stop-color:#6097FA"/>
		<stop  offset="1" style="stop-color:#6FB1FC"/>
	</linearGradient>
	<polygon style="fill:url(#SVGID_00000168113613199991290690000011366669047076359049_);" points="555.4,916.3 555.4,821.4 
		766.5,714.3 847.1,758.1 	"/>
	
		<linearGradient id="SVGID_00000058579880926871068100000014959271530750207399_" gradientUnits="userSpaceOnUse" x1="-2310.3535" y1="-337.0069" x2="-2095.0125" y2="-612.2014" gradientTransform="matrix(-1 0 0 -1 -1582.24 -151.9573)">
		<stop  offset="0.1977" style="stop-color:#4364F7"/>
		<stop  offset="0.6858" style="stop-color:#6FB1FC"/>
	</linearGradient>
	<polygon style="fill:url(#SVGID_00000058579880926871068100000014959271530750207399_);" points="497.5,249.9 497.5,154.7 
		847,358.1 766.5,401.4 766.5,400.7 	"/>
	
		<linearGradient id="SVGID_00000105404243678948916440000013373732642016330925_" gradientUnits="userSpaceOnUse" x1="-2386.0151" y1="-230.981" x2="-2062.571" y2="-628.7043" gradientTransform="matrix(-1 0 0 -1 -1582.24 -151.9573)">
		<stop  offset="0.1681" style="stop-color:#4364F7"/>
		<stop  offset="0.2501" style="stop-color:#4669F7"/>
		<stop  offset="0.3501" style="stop-color:#4E78F8"/>
		<stop  offset="0.4592" style="stop-color:#5D91FA"/>
		<stop  offset="0.5687" style="stop-color:#6FB1FC"/>
	</linearGradient>
	<polygon style="fill:url(#SVGID_00000105404243678948916440000013373732642016330925_);" points="497.5,154.7 497.5,67.4 
		923.1,312 927.8,314.7 847,358.1 	"/>
	
		<linearGradient id="SVGID_00000146498094098661699310000014261284565629998260_" gradientUnits="userSpaceOnUse" x1="-2502.5547" y1="-709.0909" x2="-2405.2632" y2="-694.4737" gradientTransform="matrix(-1 0 0 -1 -1582.24 -151.9573)">
		<stop  offset="3.018417e-02" style="stop-color:#4364F7"/>
		<stop  offset="1" style="stop-color:#6FB1FC"/>
	</linearGradient>
	<polygon style="fill:url(#SVGID_00000146498094098661699310000014261284565629998260_);" points="847,358.1 927.8,314.7 
		927.8,801.8 847.1,758.1 	"/>
</g>
<g>
	
		<linearGradient id="SVGID_00000007420413200805242440000001924283975774800813_" gradientUnits="userSpaceOnUse" x1="101.1149" y1="570.873" x2="354.4734" y2="580.9429">
		<stop  offset="0" style="stop-color:#4364F7"/>
		<stop  offset="0.2068" style="stop-color:#486DF8"/>
		<stop  offset="0.5487" style="stop-color:#5786F9"/>
		<stop  offset="0.9814" style="stop-color:#6EAFFC"/>
		<stop  offset="1" style="stop-color:#6FB1FC"/>
	</linearGradient>
	<polygon style="fill:url(#SVGID_00000007420413200805242440000001924283975774800813_);" points="228.6,416.5 228.6,729.5 
		148.1,772.7 147.9,372.8 	"/>
	
		<linearGradient id="SVGID_00000035522864696335906700000003184509072526391729_" gradientUnits="userSpaceOnUse" x1="249.979" y1="214.7016" x2="345.7838" y2="351.5251">
		<stop  offset="3.018417e-02" style="stop-color:#4364F7"/>
		<stop  offset="0.318" style="stop-color:#4E77F8"/>
		<stop  offset="0.8987" style="stop-color:#6AA8FB"/>
		<stop  offset="1" style="stop-color:#6FB1FC"/>
	</linearGradient>
	<polygon style="fill:url(#SVGID_00000035522864696335906700000003184509072526391729_);" points="439.7,110.4 439.7,214.6 
		147.9,372.8 67.3,329 	"/>
	
		<linearGradient id="SVGID_00000036941967653244613540000016357943480289763240_" gradientUnits="userSpaceOnUse" x1="284.6453" y1="280.0665" x2="373.5905" y2="411.9332">
		<stop  offset="0" style="stop-color:#4364F7"/>
		<stop  offset="0.1988" style="stop-color:#466AF7"/>
		<stop  offset="0.4652" style="stop-color:#507BF8"/>
		<stop  offset="0.7684" style="stop-color:#6097FA"/>
		<stop  offset="1" style="stop-color:#6FB1FC"/>
	</linearGradient>
	<polygon style="fill:url(#SVGID_00000036941967653244613540000016357943480289763240_);" points="439.7,214.6 439.7,309.5 
		228.6,416.5 147.9,372.8 	"/>
	
		<linearGradient id="SVGID_00000110451085076495828970000006671909553371975603_" gradientUnits="userSpaceOnUse" x1="266.9446" y1="945.7872" x2="482.2857" y2="670.5928">
		<stop  offset="0.1977" style="stop-color:#4364F7"/>
		<stop  offset="0.6858" style="stop-color:#6FB1FC"/>
	</linearGradient>
	<polygon style="fill:url(#SVGID_00000110451085076495828970000006671909553371975603_);" points="497.5,881 497.5,976.1 
		148.1,772.7 228.6,729.5 228.6,730.2 	"/>
	
		<linearGradient id="SVGID_00000019670062674715627710000004353487415612792963_" gradientUnits="userSpaceOnUse" x1="191.2831" y1="1051.8131" x2="514.7272" y2="654.0898">
		<stop  offset="0.1681" style="stop-color:#4364F7"/>
		<stop  offset="0.2501" style="stop-color:#4669F7"/>
		<stop  offset="0.3501" style="stop-color:#4E78F8"/>
		<stop  offset="0.4592" style="stop-color:#5D91FA"/>
		<stop  offset="0.5687" style="stop-color:#6FB1FC"/>
	</linearGradient>
	<polygon style="fill:url(#SVGID_00000019670062674715627710000004353487415612792963_);" points="497.5,976.1 497.5,1063.5 
		71.9,818.8 67.3,816.1 148.1,772.7 	"/>
	
		<linearGradient id="SVGID_00000127026239847674660910000013472810062421060752_" gradientUnits="userSpaceOnUse" x1="74.7435" y1="573.7032" x2="172.035" y2="588.3204">
		<stop  offset="3.018417e-02" style="stop-color:#4364F7"/>
		<stop  offset="1" style="stop-color:#6FB1FC"/>
	</linearGradient>
	<polygon style="fill:url(#SVGID_00000127026239847674660910000013472810062421060752_);" points="148.1,772.7 67.3,816.1 67.3,329 
		147.9,372.8 	"/>
</g>
<polygon class="st13" points="492,415.3 492,579.2 228.6,729.5 67.3,816.1 67.3,661.9 228.6,568.2 "/>
<polygon class="st14" points="927.8,314.7 927.8,468.2 766.5,561.9 503.1,714.8 503.1,550.9 766.5,400.7 766.5,400.7 "/>
<linearGradient id="SVGID_00000018218756640317500630000003051260464891544246_" gradientUnits="userSpaceOnUse" x1="395.4178" y1="379.2745" x2="395.4178" y2="-202.9472">
	<stop  offset="0.136" style="stop-color:#4364F7"/>
	<stop  offset="0.4956" style="stop-color:#4364F7"/>
	<stop  offset="1" style="stop-color:#6FB1FC"/>
</linearGradient>
<polygon style="fill-rule:evenodd;clip-rule:evenodd;fill:url(#SVGID_00000018218756640317500630000003051260464891544246_);" points="
	439.7,309.5 351.1,262.6 439.7,110.4 "/>
<linearGradient id="SVGID_00000096026479844780153310000002051689461804213889_" gradientUnits="userSpaceOnUse" x1="-2245.9182" y1="-452.81" x2="-2245.9182" y2="-1035.0317" gradientTransform="matrix(-1 0 0 -1 -1646.2778 298.7526)">
	<stop  offset="0.136" style="stop-color:#4364F7"/>
	<stop  offset="0.4956" style="stop-color:#4364F7"/>
	<stop  offset="1" style="stop-color:#6FB1FC"/>
</linearGradient>
<polygon style="fill-rule:evenodd;clip-rule:evenodd;fill:url(#SVGID_00000096026479844780153310000002051689461804213889_);" points="
	555.4,821.4 643.9,868.3 555.4,1020.5 "/>
<g>
	<path class="st0" d="M1564,859.7l14.4,7.4c-5.4,8.5-17,15.1-32.6,15.1c-21.8,0-36.4-11.3-36.4-30.7s14.7-30.7,37.1-30.7
		c14.9,0,26.5,6.8,31.6,15l-14.5,7.4c-3.8-5.9-9.6-8.7-17.4-8.7c-11.9,0-19.8,6-19.8,17.1c0,11,7.9,17.1,19.8,17.1
		C1554,868.5,1559.9,865.9,1564,859.7z"/>
	<path class="st0" d="M1639,880.3l-15.2-18.2h-17v18.2H1590v-57.7h40.5c14.8,0,26.2,6.5,26.2,19.7c0,9.6-6.1,15.7-15.2,18.4l17,19.6
		H1639z M1629.2,849.9c6,0,10.4-1.6,10.4-7.3c0-5.6-4.4-7.3-10.4-7.3h-22.6v14.5H1629.2z"/>
	<path class="st0" d="M1732.3,867.4v12.9h-61.6v-57.7h60.7v12.9h-44.1v9.5h36.3v12.3h-36.3v10.2H1732.3z"/>
	<path class="st0" d="M1793.4,869.3h-31.6l-5.4,11h-17.6l29.8-57.7h18.4l29.8,57.7h-17.9L1793.4,869.3z M1787.5,857.3l-10-20.4
		l-10.1,20.4H1787.5z"/>
	<path class="st0" d="M1876.6,836h-24v44.3h-16.8V836h-23.8v-13.4h64.6V836z"/>
	<path class="st0" d="M1887.8,880.3v-57.7h16.8v57.7H1887.8z"/>
	<path class="st0" d="M1932.6,822.6l19,41.5l19-41.5h18l-28.3,57.7h-17.6l-28.2-57.7H1932.6z"/>
	<path class="st0" d="M2059.8,867.4v12.9h-61.6v-57.7h60.7v12.9h-44.1v9.5h36.3v12.3h-36.3v10.2H2059.8z"/>
	<path class="st0" d="M2098,880.3v-57.7h16.8v57.7H2098z"/>
	<path class="st0" d="M2190.9,836h-24v44.3h-16.8V836h-23.8v-13.4h64.6V836z"/>
</g>
<g>
	<path class="st17" d="M1537.5,945.6l-6.9-19.9l-6.9,19.9h-5.9l-10.5-30.6h7.2l6.4,20.6l6.9-20.7h5.8l6.9,20.7l6.4-20.6h7.1
		l-10.5,30.6H1537.5z"/>
	<path class="st17" d="M1558.9,915h23.2v5.9h-16.5v6.2h14.5v5.9h-14.5v6.4h16.7v5.9h-23.4V915z"/>
	<path class="st17" d="M1611.4,943.3c-2,1.4-4.9,2.1-8.4,2.1h-14.6V915h14.3c3.1,0,5.6,0.7,7.4,2.1c1.8,1.4,2.7,3.3,2.7,5.7v0.1
		c0,2.9-1.3,5.1-4,6.6c1.9,0.7,3.3,1.7,4.3,2.8c1,1.2,1.4,2.7,1.4,4.6v0.1C1614.5,939.8,1613.4,941.9,1611.4,943.3z M1604.9,921.7
		c-0.8-0.5-1.9-0.8-3.3-0.8h-6.7v6.4h6.2c1.6,0,2.8-0.3,3.6-0.8c0.8-0.5,1.3-1.3,1.3-2.4V924C1606,923,1605.7,922.2,1604.9,921.7z
		 M1606.5,933.7c-0.8-0.6-2.1-0.9-3.8-0.9h-7.8v6.7h8c1.5,0,2.7-0.3,3.5-0.8c0.8-0.5,1.3-1.4,1.3-2.5v-0.1
		C1607.8,935.1,1607.3,934.3,1606.5,933.7z"/>
	<path class="st17" d="M1650.4,942.5c-2.8,2.3-5.8,3.4-9,3.4c-2,0-3.7-0.4-5.3-1.1c-1.6-0.7-2.8-1.8-3.7-3.1
		c-0.9-1.3-1.3-2.9-1.3-4.6c0-3.8,2-6.6,6-8.4c-0.8-1.1-1.3-2.1-1.6-3.1c-0.3-1-0.5-2-0.5-3.1c0-1.4,0.4-2.7,1.1-4
		c0.7-1.2,1.8-2.2,3.2-3c1.4-0.7,3.1-1.1,5-1.1c1.7,0,3.2,0.3,4.5,1c1.3,0.7,2.3,1.6,3.1,2.8c0.7,1.2,1.1,2.5,1.1,3.9
		c0,2-0.6,3.6-1.7,4.9c-1.1,1.3-2.7,2.3-4.8,3.1l4.1,4c1-1.5,2-3.2,3-5.2l5,2.7c-1.5,2.7-2.9,4.9-4,6.4l4.5,4.5l-5,3.4L1650.4,942.5
		z M1638.5,934.5c-0.5,0.7-0.7,1.4-0.7,2.3c0,1.1,0.4,1.9,1.2,2.6c0.8,0.7,1.8,1,3.1,1c1.5,0,2.9-0.6,4.4-1.7l-5.9-5.9
		C1639.7,933.2,1639,933.8,1638.5,934.5z M1646.1,920.5c-0.5-0.5-1.2-0.8-2.1-0.8c-0.9,0-1.6,0.3-2.2,0.9c-0.5,0.6-0.8,1.3-0.8,2.3
		c0,0.7,0.1,1.3,0.4,1.9c0.3,0.6,0.7,1.2,1.4,2c1.4-0.5,2.4-1.1,3.1-1.7c0.7-0.6,1-1.4,1-2.4C1646.9,921.7,1646.7,921,1646.1,920.5z
		"/>
	<path class="st17" d="M1696.1,943.3c-2.1,1.7-4.8,2.5-8.2,2.5c-2.4,0-4.7-0.4-6.9-1.2c-2.3-0.8-4.3-2-6.1-3.6l4-4.7
		c1.5,1.2,2.9,2.1,4.4,2.7c1.5,0.6,3.1,1,4.7,1c1.4,0,2.5-0.3,3.3-0.8c0.8-0.5,1.2-1.2,1.2-2.1V937c0-0.6-0.2-1.1-0.5-1.5
		c-0.3-0.4-0.9-0.8-1.8-1.2c-0.9-0.4-2.2-0.8-3.9-1.2c-2.3-0.6-4.2-1.2-5.6-1.9s-2.5-1.6-3.3-2.7c-0.8-1.2-1.2-2.7-1.2-4.7v-0.1
		c0-1.8,0.5-3.4,1.4-4.8c0.9-1.4,2.2-2.4,3.8-3.2c1.6-0.8,3.5-1.2,5.6-1.2c4.4,0,8.2,1.3,11.4,3.9l-3.5,5c-2.9-2-5.6-3-8-3
		c-1.3,0-2.2,0.2-2.9,0.7c-0.7,0.5-1,1.1-1,1.9v0.1c0,0.7,0.2,1.2,0.5,1.6s1,0.8,1.9,1.2c0.9,0.3,2.3,0.8,4.2,1.2
		c3.3,0.9,5.8,2,7.4,3.3c1.6,1.3,2.4,3.3,2.4,5.8v0.1C1699.2,939.4,1698.2,941.7,1696.1,943.3z"/>
	<path class="st17" d="M1734.3,938.1c-1.4,2.4-3.4,4.3-5.9,5.7c-2.5,1.4-5.3,2.1-8.4,2.1s-5.9-0.7-8.4-2.1c-2.5-1.4-4.4-3.3-5.8-5.7
		c-1.4-2.4-2.1-5-2.1-7.9v-0.1c0-2.9,0.7-5.5,2.1-7.9c1.4-2.4,3.4-4.3,5.9-5.7c2.5-1.4,5.3-2.1,8.4-2.1s5.9,0.7,8.4,2.1
		s4.4,3.3,5.8,5.7c1.4,2.4,2.1,5,2.1,7.9v0.1C1736.4,933.1,1735.7,935.7,1734.3,938.1z M1728.1,925.4c-0.8-1.5-1.9-2.6-3.3-3.5
		c-1.4-0.9-3-1.3-4.8-1.3c-1.8,0-3.4,0.4-4.8,1.3s-2.5,2-3.3,3.4c-0.8,1.4-1.2,3-1.2,4.8v0.1c0,1.7,0.4,3.3,1.2,4.8
		c0.8,1.5,1.9,2.6,3.3,3.5c1.4,0.9,3,1.3,4.8,1.3c1.8,0,3.4-0.4,4.8-1.3c1.4-0.8,2.5-2,3.3-3.4c0.8-1.4,1.2-3,1.2-4.8v-0.1
		C1729.3,928.5,1728.9,926.9,1728.1,925.4z"/>
	<path class="st17" d="M1749.2,927.6h14.7v6.1h-14.7v11.8h-6.8V915h23.4v6.1h-16.6V927.6z"/>
	<path class="st17" d="M1785.2,945.4h-6.8v-24.2h-9.4V915h25.5v6.2h-9.4V945.4z"/>
	<path class="st17" d="M1827.6,945.6l-6.9-19.9l-6.9,19.9h-5.9l-10.5-30.6h7.2l6.4,20.6l6.9-20.7h5.8l6.9,20.7l6.4-20.6h7.1
		l-10.5,30.6H1827.6z"/>
	<path class="st17" d="M1865.1,938.6h-13l-2.8,6.8h-6.9l13.2-30.6h6.2l13.2,30.6h-7.1L1865.1,938.6z M1854.5,932.7h8.2l-4.1-9.9
		L1854.5,932.7z"/>
	<path class="st17" d="M1891.8,935.7h-5.3v9.7h-6.8V915h14.1c3.6,0,6.5,0.9,8.5,2.7c2,1.8,3.1,4.2,3.1,7.4v0.1
		c0,2.4-0.6,4.3-1.8,5.9c-1.2,1.6-2.8,2.7-4.8,3.5l7.5,10.9h-7.9L1891.8,935.7z M1897.1,922.2c-0.9-0.7-2.2-1.1-3.9-1.1h-6.7v8.7
		h6.9c1.6,0,2.9-0.4,3.8-1.2c0.9-0.8,1.4-1.8,1.4-3.1v-0.1C1898.5,924,1898,922.9,1897.1,922.2z"/>
	<path class="st17" d="M1911.5,915h23.2v5.9h-16.5v6.2h14.5v5.9h-14.5v6.4h16.7v5.9h-23.4V915z"/>
	<path class="st17" d="M1973.2,943.3c-2.1,1.7-4.8,2.5-8.2,2.5c-2.4,0-4.7-0.4-6.9-1.2c-2.3-0.8-4.3-2-6.1-3.6l4-4.7
		c1.5,1.2,2.9,2.1,4.4,2.7c1.5,0.6,3.1,1,4.7,1c1.4,0,2.5-0.3,3.2-0.8c0.8-0.5,1.2-1.2,1.2-2.1V937c0-0.6-0.2-1.1-0.5-1.5
		s-0.9-0.8-1.8-1.2c-0.9-0.4-2.2-0.8-3.9-1.2c-2.3-0.6-4.2-1.2-5.6-1.9c-1.4-0.7-2.5-1.6-3.3-2.7c-0.8-1.2-1.2-2.7-1.2-4.7v-0.1
		c0-1.8,0.5-3.4,1.4-4.8c0.9-1.4,2.2-2.4,3.8-3.2c1.6-0.8,3.5-1.2,5.6-1.2c4.4,0,8.2,1.3,11.4,3.9l-3.5,5c-2.9-2-5.6-3-8-3
		c-1.3,0-2.2,0.2-2.9,0.7c-0.7,0.5-1,1.1-1,1.9v0.1c0,0.7,0.2,1.2,0.5,1.6s1,0.8,1.9,1.2c0.9,0.3,2.3,0.8,4.2,1.2
		c3.3,0.9,5.8,2,7.4,3.3c1.6,1.3,2.4,3.3,2.4,5.8v0.1C1976.3,939.4,1975.3,941.7,1973.2,943.3z"/>
	<path class="st17" d="M2011.4,938.1c-1.4,2.4-3.4,4.3-5.9,5.7c-2.5,1.4-5.3,2.1-8.4,2.1s-5.9-0.7-8.4-2.1c-2.5-1.4-4.4-3.3-5.8-5.7
		c-1.4-2.4-2.1-5-2.1-7.9v-0.1c0-2.9,0.7-5.5,2.1-7.9c1.4-2.4,3.4-4.3,5.9-5.7c2.5-1.4,5.3-2.1,8.4-2.1c3.1,0,5.9,0.7,8.4,2.1
		s4.4,3.3,5.8,5.7c1.4,2.4,2.1,5,2.1,7.9v0.1C2013.5,933.1,2012.8,935.7,2011.4,938.1z M2005.2,925.4c-0.8-1.5-1.9-2.6-3.3-3.5
		c-1.4-0.9-3-1.3-4.8-1.3s-3.4,0.4-4.8,1.3s-2.5,2-3.3,3.4c-0.8,1.4-1.2,3-1.2,4.8v0.1c0,1.7,0.4,3.3,1.2,4.8
		c0.8,1.5,1.9,2.6,3.3,3.5c1.4,0.9,3,1.3,4.8,1.3s3.4-0.4,4.8-1.3c1.4-0.8,2.5-2,3.3-3.4c0.8-1.4,1.2-3,1.2-4.8v-0.1
		C2006.4,928.5,2006,926.9,2005.2,925.4z"/>
	<path class="st17" d="M2019.5,915h6.8v24.3h15.3v6.1h-22.1V915z"/>
	<path class="st17" d="M2068.6,942.4c-2.4,2.3-5.7,3.5-9.9,3.5c-4.2,0-7.5-1.2-9.8-3.5c-2.3-2.3-3.5-5.7-3.5-10.1V915h6.8v17.2
		c0,2.4,0.6,4.3,1.7,5.6c1.2,1.3,2.8,1.9,4.9,1.9s3.7-0.6,4.9-1.9c1.2-1.2,1.7-3.1,1.7-5.4V915h6.8v17.1
		C2072.1,936.7,2070.9,940.1,2068.6,942.4z"/>
	<path class="st17" d="M2093,945.4h-6.8v-24.2h-9.4V915h25.5v6.2h-9.4V945.4z"/>
	<path class="st17" d="M2107.8,915h6.8v30.4h-6.8V915z"/>
	<path class="st17" d="M2151.4,938.1c-1.4,2.4-3.4,4.3-5.9,5.7c-2.5,1.4-5.3,2.1-8.4,2.1s-5.9-0.7-8.4-2.1c-2.5-1.4-4.4-3.3-5.8-5.7
		c-1.4-2.4-2.1-5-2.1-7.9v-0.1c0-2.9,0.7-5.5,2.1-7.9c1.4-2.4,3.4-4.3,5.9-5.7c2.5-1.4,5.3-2.1,8.4-2.1c3.1,0,5.9,0.7,8.4,2.1
		s4.4,3.3,5.8,5.7c1.4,2.4,2.1,5,2.1,7.9v0.1C2153.6,933.1,2152.9,935.7,2151.4,938.1z M2145.3,925.4c-0.8-1.5-1.9-2.6-3.3-3.5
		c-1.4-0.9-3-1.3-4.8-1.3s-3.4,0.4-4.8,1.3s-2.5,2-3.3,3.4c-0.8,1.4-1.2,3-1.2,4.8v0.1c0,1.7,0.4,3.3,1.2,4.8
		c0.8,1.5,1.9,2.6,3.3,3.5c1.4,0.9,3,1.3,4.8,1.3s3.4-0.4,4.8-1.3c1.4-0.8,2.5-2,3.3-3.4c0.8-1.4,1.2-3,1.2-4.8v-0.1
		C2146.5,928.5,2146.1,926.9,2145.3,925.4z"/>
	<path class="st17" d="M2166.3,926.1v19.3h-6.7V915h6.2l14.4,18.7V915h6.7v30.4h-5.8L2166.3,926.1z"/>
</g>
<g>
</g>
<g>
</g>
<g>
</g>
<g>
</g>
<g>
</g>
<g>
</g>
</svg>
